<?xml version="1.0" encoding="utf-8"?>
<!-- Generator: Adobe Illustrator 21.0.0, SVG Export Plug-In . SVG Version: 6.00 Build 0)  -->
<svg version="1.1" xmlns="http://www.w3.org/2000/svg" xmlns:xlink="http://www.w3.org/1999/xlink" x="0px" y="0px" width="500px"
	 height="500px" viewBox="0 0 500 500" style="enable-background:new 0 0 500 500;" xml:space="preserve">
<style type="text/css">
	.st0{opacity:0.31;fill:#CEAD84;}
	.st1{fill:#E7E0B6;stroke:#B77C55;stroke-width:2;stroke-linecap:round;stroke-linejoin:round;stroke-miterlimit:10;}
	.st2{opacity:0.31;fill:#D8B78B;}
	.st3{fill:#CEAD84;}
	.st4{fill:#F3EBC8;}
	.st5{fill:#B77C55;}
	.st6{fill:#E3C292;}
	.st7{fill:#F7F1D7;}
	.st8{fill:#D2A16C;}
	.st9{fill:#AF784B;}
	.st10{fill:#EFD9BD;}
	.st11{fill:#FFFAE3;}
	.st12{fill:#FFF6CF;}
	.st13{fill:#F7F1D7;stroke:#B77C55;stroke-linecap:round;stroke-linejoin:round;stroke-miterlimit:10;}
	.st14{fill:#F3EBC8;stroke:#B77C55;stroke-linecap:round;stroke-linejoin:round;stroke-miterlimit:10;}
	.st15{fill:#FFF8E3;}
</style>
<g id="Layer_2">
</g>
<g id="Layer_3">
	<g>
		<path class="st0" d="M428.8,327.3c0,0-8.7,27.7-16.7,37.3c-8.1,9.6-24.2,29.9-41.8,40.2c-17.6,10.3-35.3,22.6-44.7,25
			c-9.4,2.4-44.3,14.9-57.2,15.8s-49.4-1.6-59.8-3.5c-10.5-1.9-40.1-16.8-49.3-23.4c-9.3-6.6-42.1-23-49.6-38.9
			c-7.5-15.8-17.1-17-33.6-57.4S59.1,278,58.2,273.3s-7-28.7,8.7-67.5S428.8,327.3,428.8,327.3z"/>
		<path class="st1" d="M418.5,325.9c0,0-15.8,26-21.5,29c-5.7,3-20.9,22.1-32.6,29c-11.7,6.9-38.6,23.6-60.7,28.4
			c-22.1,4.8-52,5.7-57.7,5.7s-50.2-6.9-62.2-14.3c-12-7.5-47.8-27.5-58-37.4c-10.2-9.9-22.4-26.6-26.6-34.4
			c-4.2-7.8-4.5-5.1-9.6-13.2c-5.1-8.1-19.4-54.7-12.9-77.4c6.6-22.7,0.6-16.1,1.8-25.7c1.2-9.6,8.4-36.5,20.6-54.1
			S124.8,83.2,205.5,67s95.1-8.5,149.3,13.5c0,0,54.9,37.9,67.3,70.4c0,0,0.2,9.6,3.4,13.2c3.1,3.6,14.3,23.8,16.4,46.9
			c2,23.1,3.1,42.4,0,49.8c-3.1,7.4-2.2,9.6-2.9,13.5C438.2,278,438.2,295.3,418.5,325.9z"/>
		<path class="st2" d="M424.9,259.2c11.4,5,18.1,16.9,16.5,29.2c-4.9,37.2-17.8,102.8-71.5,130.8c-66.4,34.7-46.3,14.2-91.9,29.4
			c-45.6,15.2-78.9,6.1-119.8-23c-40.9-29-59-19.9-80.7-78.6c-13.8-37.5-21.1-56-24.5-64.5c-1.8-4.4-2.4-9.2-1.9-13.9
			c2.5-20.6,10.7-78.1,26.4-94.3c9-9.3,35.3-9.5,88.1-8.9C209,166,369.4,234.8,424.9,259.2z"/>
		<path class="st2" d="M424.9,253.4c11.4,5,18.1,16.9,16.5,29.2c-4.9,37.2-17.8,102.8-71.5,130.8c-66.4,34.7-46.3,14.2-91.9,29.4
			c-45.6,15.2-78.9,6.1-119.8-23c-40.9-29-59-19.9-80.7-78.6c-13.8-37.5-21.1-56-24.5-64.5c-1.8-4.4-2.4-9.2-1.9-13.9
			c2.5-20.6,10.7-78.1,26.4-94.3c9-9.3,35.3-9.5,88.1-8.9C209,160.2,369.4,229,424.9,253.4z"/>
		<path class="st3" d="M421.5,334.6c0,0-6.3,16.1-12.1,24.2s-10.5,16.4-16.4,21.1c-5.8,4.7-23.3,21.2-36.1,27.3
			c-12.8,6.1-45.1,23.6-55.6,23.4c-10.5-0.2-15.2,4.9-29.4,6.4c-14.1,1.4-22.6,5.7-33.6,1.9c-11-3.8-22.9-1.7-30.7-3.6
			c-7.8-2-32.7-12-39.2-18.3s-9.9-4-17.3-9.7c-7.4-5.8-9.9-6.3-14.1-10.8c-4.3-4.4-13.5-8-17-14.1s-11.9-16.3-15.7-21.1
			c-3.8-4.7-7.1-6.1-10.7-15.3c-3.6-9.2-13.2-24.4-13.2-24.4s-10.9-28.5-12.4-31.9c-1.5-3.3-4.4-17.4-4.4-17.4L421.5,334.6z"/>
		<g>
			<path class="st4" d="M339.9,409.9c-4,2.1-19.4,10.7-22.9,12.4s-9.6,3-16.1,3.9c-6.6,0.9-13.5,2.4-18.1,3c-4.6,0.6-5.7,3-12.1,4.6
				c-6.4,1.6-13.7,3.3-26.6,1c-12.9-2.2-17-2.7-24.4-3.3c-7.3-0.6-11.7-0.6-17.9-3.1s-10.3-4.2-16.6-7.6
				c-6.3-3.4-10.3-6.4-20.9-12.6c-10.6-6.1-10.6-5.1-14.2-9c-3.6-3.9-5.5-6.1-10.9-9.4c-5.4-3.3-9.4-5.5-13.7-11.8s-13.5-13-16.1-17
				c-2.7-4-4.3-7.2-5.7-8.1c-1.3-0.9-5.4-2.2-4.9-5.8c0.4-3.6,0.6-4.6,0.6-4.6s-8.7-11.8-12-17.6c-3.3-5.8-6.2-9.8-9.4-19.8
				C74.7,294.9,339.9,409.9,339.9,409.9z"/>
			<path class="st5" d="M340.1,409.9c-0.3,0.2-0.7,0.5-1.1,0.7l-1,0.5l-1.9,1.1l-3.8,2.2l-7.6,4.4c-2.6,1.5-5.1,2.9-7.8,4.3
				c-2.8,1.3-5.7,2-8.6,2.7c-2.9,0.6-5.9,1.1-8.7,1.6c-2.9,0.5-5.8,1-8.6,1.6l-4.3,0.8l-2.2,0.4c-0.7,0.1-1.5,0.2-2.1,0.3
				c-1.3,0.3-2.4,0.8-3.7,1.5c-1.3,0.7-2.6,1.5-4.1,2c-1.4,0.6-3,1-4.4,1.4c-1.4,0.4-2.9,0.7-4.4,1c-3,0.6-6,0.9-9,1
				c-3,0.1-6.1-0.1-9-0.5c-3-0.4-5.9-0.9-8.8-1.4c-5.8-1-11.5-1.8-17.4-2.2c-2.9-0.3-5.8-0.4-8.8-0.7c-3-0.3-6.1-0.8-9-1.8
				c-1.5-0.5-2.9-1.1-4.2-1.7l-4.1-1.7c-2.7-1.2-5.4-2.5-8.1-3.9c-5.3-2.8-10.2-6.1-15.2-9.2c-5-3.1-10-6.2-15.1-9
				c-1.3-0.7-2.6-1.4-3.9-2.2c-1.3-0.8-2.5-2-3.5-3.1c-2-2.2-3.9-4.4-6.1-6.3c-2.2-1.9-4.7-3.3-7.2-4.9c-2.5-1.6-5-3.3-7.1-5.4
				c-1.1-1-2.1-2.2-3-3.4c-0.5-0.6-0.9-1.2-1.3-1.8c-0.4-0.6-0.8-1.2-1.3-1.7c-1.8-2.3-3.9-4.3-6-6.3c-2.1-2-4.3-4-6.4-6.1
				c-1-1-2.1-2.2-2.9-3.5c-0.8-1.2-1.6-2.5-2.4-3.7c-0.8-1.2-1.6-2.5-2.5-3.4c-0.4-0.3-1.1-0.7-1.8-1c-0.7-0.4-1.3-0.8-1.9-1.3
				c-0.6-0.5-1.2-1.2-1.5-2c-0.3-0.8-0.4-1.8-0.3-2.5l0.5-4.4l0.2,0.6c-2-2.7-4.1-5.5-6-8.3c-2-2.8-3.9-5.6-5.7-8.5
				c-1.7-3-3.5-5.8-5.2-8.8c-1.7-3-3-6.2-4.2-9.5c-0.3-0.8-0.6-1.6-0.9-2.5c-0.1-0.3-0.2-0.8,0.1-1.4c0.1-0.3,0.3-0.4,0.5-0.6
				c0.1-0.1,0.3-0.2,0.4-0.2c0.5-0.2,0.8-0.2,1.1-0.2c0.6,0,1,0,1.5,0.1c1.8,0.3,3.5,0.7,5.2,1.1c3.3,0.9,6.6,2,9.8,3.1
				c6.5,2.2,12.9,4.5,19.3,6.8c12.8,4.8,25.4,9.7,38.1,14.8l19,7.6l18.9,7.8c12.6,5.2,25.1,10.5,37.6,15.8l37.4,16.2
				c12.5,5.4,24.9,11,37.3,16.5c6.2,2.8,12.4,5.6,18.6,8.4l9.3,4.2l4.6,2.1l2.3,1.1l1.2,0.5l0.6,0.3
				C339.7,409.6,339.9,409.8,340.1,409.9z M339.7,409.9c-0.2,0-0.4,0-0.5-0.1c-0.1,0-0.4-0.1-0.5-0.2l-1.2-0.5l-2.4-1l-4.7-1.9
				l-9.5-3.8c-6.3-2.5-12.6-5.1-18.9-7.7c-12.6-5.2-25.2-10.3-37.7-15.5l-75.4-31.1c-25.1-10.3-50.2-20.9-75.6-30.7
				c-6.3-2.5-12.7-4.9-19-7.2c-3.2-1.1-6.4-2.2-9.6-3.2c-1.6-0.5-3.2-0.9-4.8-1.2c-0.4-0.1-0.8-0.1-1-0.1c-0.1,0-0.3,0-0.1,0
				c0,0,0.1-0.1,0.2-0.1c0.1-0.1,0.2-0.2,0.3-0.3c0.2-0.3,0.1-0.7,0.1-0.7c0.2,0.7,0.5,1.6,0.7,2.4c1,3.2,2.3,6.3,3.8,9.3
				c1.5,3,3.3,5.9,4.9,8.9c1.7,2.9,3.6,5.7,5.4,8.5c1.9,2.8,3.8,5.6,5.8,8.4l0,0c0.1,0.2,0.2,0.4,0.1,0.6l-0.6,4.3
				c-0.1,0.7-0.1,1.2,0.1,1.8c0.2,0.6,0.6,1.1,1.1,1.5c0.5,0.4,1.1,0.8,1.7,1.2c0.6,0.4,1.3,0.6,2,1.2c0.6,0.6,1.1,1.2,1.5,1.8
				c0.4,0.6,0.8,1.2,1.2,1.9c0.8,1.3,1.6,2.5,2.4,3.7c0.8,1.2,1.7,2.3,2.7,3.3c2,2.1,4.2,4.1,6.3,6.1c2.1,2.1,4.2,4.1,6.1,6.5
				c0.5,0.6,0.9,1.2,1.4,1.8c0.4,0.6,0.8,1.2,1.3,1.7c0.9,1.1,1.9,2.2,2.9,3.2c2.1,2,4.5,3.6,7,5.1c2.5,1.5,5.1,3,7.5,4.9
				c2.4,1.9,4.4,4.1,6.4,6.2c1,1.1,2,2,3.2,2.7c1.2,0.7,2.5,1.3,3.8,2c5.3,2.7,10.4,5.6,15.5,8.6c5.1,3,10,6.1,15.2,8.7
				c2.6,1.3,5.2,2.5,7.9,3.6l4.1,1.6c1.4,0.5,2.7,1.1,4,1.5c2.7,0.9,5.4,1.3,8.3,1.6c2.9,0.3,5.8,0.4,8.8,0.7
				c5.9,0.5,11.8,1.4,17.6,2.4c2.9,0.5,5.8,1.1,8.6,1.4c2.9,0.4,5.7,0.6,8.6,0.6c2.9,0,5.7-0.3,8.5-0.8c1.4-0.3,2.8-0.6,4.2-0.9
				c1.4-0.3,2.7-0.7,4-1.2c1.3-0.5,2.5-1.1,3.8-1.8c1.3-0.7,2.9-1.4,4.5-1.6c0.8-0.1,1.5-0.2,2.2-0.3l2.2-0.3l4.3-0.7
				c2.9-0.5,5.8-1,8.8-1.3c2.9-0.4,5.8-0.7,8.7-1.3c2.8-0.6,5.7-1.2,8.3-2.3c2.6-1.2,5.2-2.6,7.8-3.9l7.8-4.1l3.9-2l2-1l1-0.5
				C339.1,410,339.3,410,339.7,409.9z"/>
		</g>
		<path class="st6" d="M327.5,411.8c-0.7,0.2-7.2,8.3-14.8,9.9c-7.6,1.6-41.2,9.2-43.3,9.2c-2,0-28.9,0.2-40.8-4.3
			c-11.9-4.5-50.4-16.1-61-22.9c-10.5-6.7-32.1-22-36.1-24.9c-4-2.9-24.1-27.3-25.9-29.7c-1.7-2.4-16.5-21.7-18-27.7
			c-2.7-11.1,55,28,55,28L327.5,411.8z"/>
		<g>
			<path class="st7" d="M448.6,264.7c0,0-4.4,10.5-3.6,14.3c0.7,3.8-2,11.1-1.9,14.1c0.1,3-4.3,16.8-6.1,20.7
				c-1.8,3.8-14.1,28.2-18.6,33c-4.5,4.7-20,24.4-28.7,31.4s-24.7,24.4-60.5,36.1c-35.9,11.7-59.4,17.5-87.2,10.3
				s-46.9-13.5-52.5-16.6c-5.6-3.1-11.7-4.9-22.2-12.1c-10.5-7.2-32.3-16.6-40.8-25.3c-8.5-8.7-10.8-11.2-19.1-22
				s-31.6-45.7-35.6-59.4c-1.6-5.3-7.2-12.8-9.6-22.5c-3.3-12.9-3.1-36.2,4.7-61.5c12.8-41.2,27.8-65.5,30.9-69s24.5-42.1,76.8-65.2
				s107.3-12.5,107.3-12.5s120.5,3.7,146.6,104.9c0,0,19.1,40.9,20.1,65.4C449.6,253.2,448.6,264.7,448.6,264.7z"/>
			<path class="st5" d="M448.8,264.8c-0.9,2.2-1.6,4.4-2.3,6.6c-0.3,1.1-0.6,2.2-0.8,3.4c-0.2,1.1-0.4,2.3-0.4,3.4
				c0,0.3,0.1,0.5,0.1,0.8l0.1,0.9c0,0.6,0,1.2,0,1.8c-0.1,1.2-0.3,2.4-0.5,3.5c-0.4,2.3-1,4.6-1.3,6.8c0,0.3-0.1,0.6-0.1,0.8l0,0.9
				c0,0.6-0.1,1.2-0.2,1.8c-0.2,1.2-0.5,2.3-0.8,3.4c-0.6,2.3-1.2,4.5-1.9,6.8c-0.7,2.2-1.4,4.5-2.2,6.7c-0.8,2.3-1.9,4.3-2.9,6.4
				c-2,4.2-4.2,8.3-6.4,12.4c-2.2,4.1-4.4,8.2-6.9,12.2l-1,1.5l-1,1.5c-0.4,0.5-0.8,1-1.2,1.4c-0.4,0.4-0.8,0.8-1.1,1.3
				c-1.5,1.7-3,3.5-4.5,5.3c-3,3.6-6,7.2-9,10.7c-3.1,3.5-6.2,7-9.5,10.3c-0.8,0.8-1.7,1.6-2.6,2.5l-2.7,2.3c-1.7,1.5-3.5,3-5.2,4.6
				c-3.5,3.1-7.1,6.1-10.9,8.9c-3.8,2.8-7.7,5.4-11.7,7.8c-8.1,4.8-16.6,8.9-25.4,12.1l-6.6,2.3L323,418c-4.4,1.4-8.9,2.8-13.4,4.1
				c-9,2.6-18.1,4.9-27.4,6.2c-2.3,0.3-4.7,0.6-7,0.8c-2.4,0.2-4.7,0.3-7.1,0.4c-4.7,0-9.5-0.1-14.2-0.8c-2.4-0.2-4.7-0.8-7-1.2
				c-2.3-0.5-4.6-1-6.9-1.7c-4.5-1.2-9-2.4-13.5-3.7c-9-2.6-17.9-5.3-26.7-8.4c-2.2-0.8-4.4-1.6-6.6-2.5c-1.1-0.5-2.2-0.9-3.3-1.5
				l-3.1-1.7c-4.1-2.1-8.4-4-12.5-6.4c-2-1.2-4-2.4-6-3.7c-2-1.3-3.8-2.6-5.8-3.8c-3.9-2.4-8-4.6-12.1-6.9c-4.1-2.3-8.1-4.5-12.1-7
				c-2-1.2-4-2.5-5.9-3.8c-1-0.7-1.9-1.4-2.8-2.1c-0.9-0.8-1.9-1.5-2.7-2.3c-0.9-0.8-1.7-1.7-2.5-2.5l-2.4-2.5
				c-1.6-1.7-3.2-3.4-4.8-5.1c-3.1-3.5-6-7.2-8.8-10.9c-5.7-7.4-10.9-15.1-16-22.9c-5.1-7.8-10-15.7-14.5-23.9
				c-2.2-4.1-4.4-8.2-6.1-12.7l-1.1-3.3c-0.4-1.1-0.9-2.1-1.4-3.1l-3.2-6.2c-2.1-4.2-4-8.5-5-13.2c-1.1-4.6-1.6-9.3-1.8-14
				c-0.4-9.4,0.4-18.8,1.9-28c0.8-4.6,1.8-9.2,3-13.7c1.2-4.5,2.6-9,4-13.4c5.8-17.7,12.8-35.1,21.8-51.6c1.1-2,2.3-4.1,3.6-6.1
				c0.6-1,1.3-2,2-3c0.4-0.5,0.9-1.1,1.1-1.4l0.5-0.6l0.5-0.7c2.6-3.8,5.3-7.7,8.2-11.4c5.8-7.4,12.1-14.4,19-20.8
				c6.9-6.4,14.3-12.2,22.1-17.4l6-3.7c1-0.6,2-1.3,3-1.8l3.1-1.7l3.1-1.7c1-0.6,2.1-1.2,3.1-1.6l6.4-3c2.1-1.1,4.3-1.9,6.5-2.8
				l3.3-1.3c1.1-0.4,2.2-0.9,3.3-1.3c4.5-1.5,8.9-3.1,13.5-4.2l3.4-0.9l1.7-0.5l1.7-0.4l6.9-1.4c2.3-0.5,4.6-0.8,7-1.2l3.5-0.5
				l3.5-0.4l3.5-0.4l1.8-0.2l1.8-0.1l7-0.5l7-0.2c2.3,0,4.7,0,7,0c9.4,0.2,18.7,0.8,28.1,2.4l-0.3,0c8.3,0.4,16.2,1.6,24.2,3.1
				c8,1.5,15.9,3.5,23.6,5.9c7.8,2.4,15.4,5.3,22.8,8.6c7.4,3.4,14.5,7.3,21.4,11.8l2.5,1.7l1.3,0.8L379,89l4.9,3.6
				c3.1,2.6,6.3,5.1,9.3,8l2.2,2.1c0.7,0.7,1.4,1.5,2.1,2.2c1.4,1.5,2.9,2.9,4.2,4.5l3.9,4.7c0.7,0.8,1.3,1.6,1.9,2.4l1.8,2.5
				l1.8,2.5c0.6,0.8,1.1,1.7,1.7,2.6c1.1,1.7,2.2,3.4,3.3,5.2l2.9,5.4c0.5,0.9,1,1.8,1.4,2.7l1.2,2.8c3.5,7.3,5.9,15.2,8.1,23
				l-0.1-0.2c3.6,8,6.8,16.2,9.8,24.4c2.9,8.3,5.6,16.6,7.5,25.2c0.5,2.1,0.9,4.3,1.3,6.5l0.5,3.3l0.2,1.6l0.1,1.7l0.2,3.3l0.1,3.3
				l0.1,6.6C449.5,247.3,449.5,256,448.8,264.8z M448.4,264.7c0.2-4.3,0.3-8.7,0.2-13.1c0-4.4-0.1-8.7-0.3-13.1l-0.3-6.5l-0.2-3.3
				l-0.3-3.2l-0.2-1.6l-0.3-1.6l-0.5-3.2c-0.5-2.1-0.9-4.3-1.4-6.4c-2.1-8.4-4.8-16.7-7.9-24.9c-3.1-8.1-6.4-16.2-10.1-24.1
				c0-0.1,0-0.1-0.1-0.2l0-0.1c-2.3-7.6-4.7-15.3-8.3-22.4l-1.3-2.7c-0.4-0.9-0.9-1.7-1.4-2.6l-2.9-5.2l-3.2-5
				c-0.5-0.8-1.1-1.7-1.6-2.5l-1.8-2.4l-1.8-2.4c-0.6-0.8-1.2-1.6-1.8-2.3l-3.9-4.5c-1.3-1.5-2.8-2.9-4.1-4.3
				c-0.7-0.7-1.4-1.4-2.1-2.1l-2.2-2c-2.9-2.7-6-5.2-9.1-7.7L377,92l-1.2-0.9l-1.3-0.8l-2.5-1.6c-6.7-4.3-13.7-8-21-11.3
				c-7.3-3.2-14.8-6-22.4-8.3c-7.6-2.3-15.4-4.2-23.2-5.7c-7.8-1.4-15.8-2.5-23.6-2.9c-0.1,0-0.2,0-0.3,0l0,0
				c-8.9-1.5-18.2-2.2-27.4-2.3c-2.3,0-4.6,0-6.9,0l-6.9,0.2l-6.9,0.5l-1.7,0.1l-1.7,0.2l-3.4,0.4l-3.4,0.4l-3.4,0.5
				c-2.3,0.4-4.6,0.6-6.8,1.1l-6.8,1.4l-1.7,0.3l-1.7,0.4l-3.3,0.9c-4.5,1-8.8,2.6-13.2,4c-1.1,0.3-2.2,0.8-3.2,1.2l-3.2,1.3
				c-2.1,0.9-4.3,1.6-6.4,2.7l-6.2,2.9c-1.1,0.5-2.1,1-3.1,1.6l-3,1.6l-3,1.6c-1,0.5-2,1.2-3,1.8l-5.9,3.6
				c-7.7,5.1-15,10.7-21.8,16.9c-6.8,6.2-13.1,13-18.8,20.2c-2.9,3.6-5.5,7.3-8.2,11.2l-0.5,0.7l-0.6,0.8l-1,1.3
				c-0.7,0.9-1.3,1.8-1.9,2.8c-1.2,1.9-2.4,3.9-3.6,5.9c-4.6,8-8.5,16.4-12.3,24.9c-3.7,8.5-7,17.2-10,25.9
				c-1.5,4.4-2.9,8.8-4.2,13.2c-1.2,4.4-2.3,9-3.1,13.5c-1.6,9.1-2.5,18.3-2.2,27.6c0.2,4.6,0.6,9.2,1.6,13.7
				c1,4.5,2.8,8.7,4.8,12.9l3.2,6.2c0.5,1.1,1,2.1,1.4,3.3l1.1,3.3c1.6,4.3,3.8,8.4,6,12.5c4.4,8.1,9.3,16.1,14.4,23.9
				c5.1,7.7,10.3,15.5,16.1,22.8c2.9,3.7,5.7,7.3,8.8,10.7c1.5,1.7,3.1,3.4,4.7,5.1l2.4,2.5c0.8,0.8,1.6,1.7,2.5,2.4
				c3.3,3.1,7.3,5.5,11.3,7.9c4,2.4,8.1,4.6,12.2,6.8c4.1,2.2,8.2,4.4,12.3,6.7c2,1.2,4,2.5,5.9,3.7c1.9,1.2,3.9,2.4,5.9,3.5
				c4,2.3,8.2,4.1,12.5,6.1l3.1,1.6c1,0.5,2.1,0.9,3.1,1.3c2.1,0.8,4.3,1.6,6.5,2.4c8.8,3,17.7,5.5,26.7,7.9c4.5,1.2,9,2.4,13.5,3.5
				c2.3,0.6,4.5,1,6.7,1.6c2.3,0.4,4.5,0.9,6.8,1.1c4.5,0.6,9.1,0.7,13.7,0.7c2.3-0.1,4.6-0.1,6.8-0.4c2.3-0.1,4.6-0.5,6.8-0.8
				c4.5-0.7,9.1-1.5,13.6-2.6c4.5-1,9-2.2,13.4-3.5c4.5-1.3,8.9-2.6,13.3-4l6.6-2.1l6.5-2.2c8.6-3.2,17-7.1,24.9-11.7
				c3.9-2.4,7.8-4.9,11.5-7.6c3.7-2.7,7.3-5.6,10.8-8.7c1.8-1.5,3.5-3,5.3-4.5l2.7-2.2c0.8-0.8,1.7-1.5,2.5-2.3
				c3.3-3.2,6.4-6.6,9.5-10.1c3.1-3.5,6.1-7,9.1-10.5c1.5-1.8,3-3.5,4.6-5.3c0.4-0.4,0.8-0.9,1.2-1.3c0.4-0.4,0.7-0.8,1.1-1.2l1-1.4
				l1-1.4c2.5-3.8,4.8-7.9,7-12c2.2-4.1,4.4-8.2,6.6-12.3c1-2.1,2.2-4.1,3-6.2c0.8-2.1,1.6-4.3,2.3-6.5c0.7-2.2,1.4-4.4,2-6.6
				c0.3-1.1,0.6-2.2,0.8-3.3c0.1-0.6,0.2-1.1,0.3-1.6l0-0.4l0-0.5c0-0.3,0.1-0.6,0.1-0.9c0.4-2.4,1-4.6,1.5-6.9
				c0.2-1.1,0.4-2.3,0.5-3.4c0-0.6,0.1-1.1,0-1.7l-0.1-0.8c0-0.3-0.1-0.6-0.1-0.9c0-1.2,0.3-2.4,0.5-3.5c0.3-1.1,0.6-2.3,1-3.4
				C446.7,269,447.5,266.8,448.4,264.7z"/>
		</g>
		<path class="st6" d="M380.5,250.7c1.3,0,5.2,8.1,8.5-2.9c3.4-11,8.1-15.9,1.8-18.6c-6.3-2.7-3.4,6.1-10.3,8.5
			c-6.9,2.5-7.2,6.6-7.2,6.6l2.7,6.8L380.5,250.7z"/>
		<path class="st8" d="M375.9,244.3c-0.4-1,7.3-9,8.1-10.5c0.8-1.5-0.6-4.1,3.3-3.3c4,0.8,4.8-0.2,5.2,1.9c0.4,2.1,1.6,2.2-0.4,3.6
			c-2,1.4-2.3,1.5-2.7,2.6c-0.4,1.1,0.4,2.6-0.9,3.7c-1.4,1.2-4.4,4.4-5.9,4.9C381.1,247.9,376.7,246.5,375.9,244.3z"/>
		<path class="st9" d="M382.6,235.4l-1,2.7c0,0,1.4,0.3-1.2,2.4c-2.6,2.1-2.6,3.6-1.1,2.5c1.5-1.1,1.1-0.3,1.6-1.5
			c0.5-1.2,0.7-1.6,0.7-1.6s1.1,0,1.4-1.4c0.3-1.4-0.1-1.5,0.2-2s1.2-1.8,0.6-1.6S382.6,235.4,382.6,235.4z"/>
		<path class="st6" d="M425.8,317.8c-1.2,1.4-24.6,30.7-24.6,30.7s-1.8,2.3-19.3,10.9s-69.4,20.8-69.4,20.8l-4.8-6.4l1.8,6.4
			c0,0-50.7,3.4-74.9-5.5c-24.2-8.9-38.1-13.2-54.5-26.2s-20.9-20-27-25.5s-16.9-16.2-19.8-20.2c-2.8-4-10.9-11.3-18-25.2
			c-7.1-13.9-12.4-39.2-12.4-39.2s-6.3-35.7-6.3-41.8c0-6.2-2.2-8-0.9-20.3s1.5-21.7,5.8-28.5c4.3-6.9,3.6-15.3,8.4-20.1
			C114.9,122.7,425.8,317.8,425.8,317.8z"/>
		<g>
			<path class="st4" d="M441.3,298.5c0,0-28.9,34.4-46.6,45.1s-46.9,26.8-54.2,26.5c-7.3-0.3-25.6,3.4-29.4,2.8c0,0,0.7-1.2-0.9-2.8
				c-0.9-0.9-2.7-2.3-3.1-2.9c-1-1.5-8.1-5.2-8.1-5.2s5.1,6.1,5.4,9c0.3,2.8,1.9,2.9,1,2.6c-0.9-0.3-41,2.8-69.3-8
				c-28.4-10.8-49.9-17.5-68.2-33.5c-18.2-16-34.1-29.1-35.4-34.9c-1.3-5.8-2.9-9.9-6.3-13.2c-3.4-3.4-13.7-20.6-16.4-38.8
				s-8.7-42.1-10.1-52.9c-1.3-10.8,0.7-30,2.2-36.1s0.9-6.5,2.2-9.6s3.8-15.9,10-28.7s38.2-56.4,38.2-56.4l123.6,137.7l157.9,105.2"
				/>
			<path class="st5" d="M441.4,298.6c-8.2,10-16.9,19.6-26,28.8c-4.6,4.6-9.3,9-14.5,13.1c-1.3,1-2.6,2-4,2.9
				c-1.4,0.9-2.8,1.8-4.1,2.6c-2.8,1.7-5.5,3.4-8.3,5c-5.6,3.3-11.2,6.5-17,9.5c-5.7,3-11.5,6-17.6,8.5c-1.5,0.6-3.1,1.2-4.7,1.7
				c-0.8,0.2-1.6,0.5-2.5,0.6c-0.4,0.1-0.9,0.1-1.4,0.2c-0.5,0-1,0-1.4,0c-3,0-6.3,0.4-9.4,0.8c-3.2,0.4-6.4,0.9-9.6,1.3
				c-1.6,0.2-3.2,0.4-4.9,0.6c-0.8,0.1-1.6,0.2-2.5,0.2c-0.9,0-1.7,0.1-2.8,0l-1.2-2.4c-0.1,0.1,0,0.1-0.1,0.1c0,0,0,0,0,0s0,0,0,0
				c0,0,0-0.1,0-0.1c0-0.1-0.1-0.2-0.2-0.4c-0.1-0.2-0.3-0.3-0.4-0.5l-0.7-0.7c-0.5-0.5-1.1-0.9-1.6-1.4l-0.4-0.4
				c-0.1-0.1-0.2-0.2-0.3-0.3c0,0-0.1-0.1-0.2-0.2c-0.1-0.1,0,0-0.1-0.1c0,0-0.3-0.3-0.5-0.5c-1-0.8-2.2-1.5-3.4-2.2
				c-1.2-0.7-2.4-1.4-3.7-2l2.1-2.6c1.6,2,3.1,3.9,4.4,6.2c0.3,0.6,0.6,1.2,0.9,1.8c0.1,0.3,0.3,0.7,0.4,1.1
				c0.1,0.2,0.1,0.4,0.1,0.7l0.1,0.4c0.1,0.4,0.2,0.8,0.4,1.1c0,0.1,0.1,0.1,0.1,0.1c0,0,0,0,0,0l0,0c-0.1,1.5,0.5-3.5-1.8,2.9
				c0.2,0.1,0.1,0,0.1,0c0,0,0,0,0.1,0c0.1,0,0.1,0,0.2,0l-0.3,0c-4.8,0.2-9.7,0.3-14.6,0.2c-9.8-0.1-19.6-0.7-29.3-2.1
				c-4.9-0.7-9.7-1.6-14.5-2.9c-2.4-0.6-4.8-1.3-7.1-2.1c-2.4-0.8-4.7-1.7-6.9-2.5c-9.1-3.5-18.2-6.9-27.2-10.7
				c-4.5-1.9-9-3.9-13.3-6.1c-4.4-2.2-8.7-4.6-12.8-7.3c-4.1-2.7-8-5.7-11.7-8.9l-10.9-9.7c-3.6-3.2-7.3-6.5-10.9-9.8
				c-3.6-3.3-7.1-6.6-10.3-10.4c-0.8-0.9-1.6-1.9-2.2-3c-0.3-0.5-0.7-1.1-0.9-1.7c-0.1-0.3-0.2-0.6-0.3-1l-0.2-0.9
				c-0.6-2.3-1.2-4.6-2.2-6.8c-0.5-1.1-1.1-2.1-1.8-3.1c-0.3-0.5-0.7-0.9-1.1-1.4c-0.4-0.5-0.8-0.8-1.2-1.3c-1.7-1.9-2.9-4-4.2-6.1
				c-4.9-8.5-8.7-17.6-11-27.1c-0.3-1.2-0.5-2.4-0.7-3.6c-0.2-1.2-0.4-2.4-0.6-3.6c-0.4-2.4-0.8-4.8-1.2-7.2
				c-0.9-4.8-1.8-9.5-2.9-14.3l-3.1-14.3c-1-4.8-2-9.5-2.8-14.4c-0.7-4.9-0.7-9.8-0.6-14.7c0.1-4.9,0.5-9.8,1.1-14.6
				c0.3-2.4,0.6-4.9,1.1-7.3c0.6-2.5,1.1-4.6,1.4-7.1c0.2-1.3,0.6-2.7,1.1-3.8c0.4-1,0.7-2.2,1-3.3c0.6-2.3,1.3-4.7,1.9-7
				c1.4-4.7,2.9-9.4,4.8-13.9c0.9-2.3,2-4.5,3.2-6.7c1.2-2.2,2.4-4.3,3.7-6.4c10.4-16.6,21.7-32.4,33.1-48.2c0.6-0.8,1.8-1,2.6-0.4
				c0.1,0.1,0.2,0.2,0.3,0.3l0,0l31,34.3l31,34.4l30.9,34.5l30.8,34.5l-0.4-0.3l39.3,26.5c13.1,8.8,26.2,17.7,39.3,26.6l39.2,26.7
				l39.1,26.8c0.1,0.1,0.1,0.2,0.1,0.3c-0.1,0.1-0.2,0.1-0.3,0.1l-39.8-25.8l-39.7-25.9c-13.3-8.6-26.5-17.3-39.7-26l-39.6-26.1
				c-0.1-0.1-0.2-0.2-0.3-0.3l0,0l-31-34.3l-30.9-34.4l-30.8-34.5l-30.8-34.5l2.9-0.1c-5.7,7.8-11.4,15.7-17,23.6
				c-5.6,7.9-11.2,15.9-16.4,24c-1.3,2-2.5,4.1-3.7,6.2c-1.1,2-2.2,4.2-3.1,6.4c-1.9,4.4-3.5,8.9-4.9,13.5c-0.7,2.3-1.4,4.6-2.1,7
				c-0.4,1.2-0.7,2.3-1.2,3.6c-0.5,1.1-0.8,2-1,3.2c-0.2,1.2-0.4,2.4-0.7,3.6c-0.3,1.2-0.6,2.5-0.9,3.6c-0.5,2.3-0.9,4.7-1.2,7.1
				c-0.6,4.8-1.1,9.6-1.3,14.4c-0.2,4.8-0.3,9.7,0.4,14.4c0.6,4.8,1.6,9.5,2.5,14.3l2.9,14.3c0.9,4.8,1.9,9.5,2.8,14.3
				c0.4,2.4,0.8,4.8,1.2,7.2c0.2,1.2,0.4,2.4,0.6,3.6c0.2,1.2,0.4,2.4,0.7,3.5c2.1,9.4,5.8,18.5,10.7,26.8c1.2,2.1,2.5,4.1,4.1,5.9
				c0.4,0.4,0.8,0.9,1.2,1.3c0.4,0.5,0.8,1,1.2,1.5c0.7,1,1.4,2.1,1.9,3.2c1.1,2.3,1.8,4.7,2.4,7l0.2,0.9c0.1,0.3,0.1,0.5,0.3,0.8
				c0.2,0.5,0.5,1,0.8,1.5c0.6,1,1.4,1.9,2.1,2.8c3.1,3.6,6.7,6.9,10.3,10.2c3.6,3.3,7.3,6.4,10.9,9.6l11.1,9.5
				c3.7,3.1,7.6,6,11.6,8.5c4.1,2.6,8.3,4.9,12.7,7c4.3,2.1,8.8,4,13.3,5.8c9,3.6,18.2,6.8,27.3,10.1c2.3,0.8,4.5,1.7,6.8,2.4
				c2.3,0.8,4.6,1.4,6.9,2c4.6,1.2,9.4,2,14.1,2.7c9.5,1.4,19.2,1.9,28.8,2c4.8,0.1,9.6,0,14.5-0.1l0.6,0c0.1,0,0.3,0,0.4,0.1
				c0.1,0,0.3,0.1,0.3,0.1c0.1,0.1,0.2,0.1,0.5,0.2c-2.1,6.5-1.7,1.4-1.9,2.9c-0.1-0.1-0.2-0.1-0.2-0.2c-0.1-0.1-0.2-0.2-0.3-0.3
				c-0.2-0.2-0.3-0.4-0.5-0.6c-0.5-0.8-0.7-1.6-0.8-2.4l-0.1-0.5c0-0.1,0-0.1,0-0.2c-0.1-0.2-0.1-0.4-0.2-0.6
				c-0.2-0.5-0.4-1-0.7-1.4c-1.1-2-2.5-3.9-4-5.7l0,0c-0.6-0.7-0.5-1.8,0.3-2.4c0.5-0.4,1.3-0.5,1.8-0.2c1.3,0.7,2.5,1.4,3.8,2.1
				c1.3,0.8,2.5,1.5,3.8,2.5c0.3,0.3,0.6,0.5,1.1,1l0.1,0.2l0.1,0.1l0.3,0.3l1.6,1.4l0.8,0.8c0.3,0.3,0.7,0.7,0.9,1.1
				c0.3,0.4,0.5,1,0.6,1.6c0,0.3,0.1,0.6,0,1c0,0.2,0,0.3-0.1,0.5c0,0.1-0.1,0.2-0.1,0.3c0,0.1-0.1,0.2-0.2,0.4l-1.2-2.4
				c0.5,0.1,1.3,0.1,2.1,0c0.8,0,1.6-0.1,2.3-0.2c1.6-0.2,3.2-0.4,4.8-0.6c3.2-0.4,6.4-0.9,9.6-1.3c3.2-0.4,6.5-0.8,9.9-0.7
				c0.5,0,0.8,0,1.1,0c0.3-0.1,0.7-0.1,1-0.2c0.7-0.1,1.5-0.3,2.2-0.5c1.5-0.4,3-1,4.4-1.6c5.9-2.4,11.7-5.2,17.5-8.1
				c5.7-2.9,11.4-6,17-9.2c2.8-1.6,5.6-3.2,8.4-4.8c1.4-0.8,2.8-1.6,4.1-2.5c1.3-0.9,2.6-1.8,3.9-2.8c5.1-3.9,9.9-8.2,14.6-12.6
				c9.4-8.9,18.2-18.3,26.8-28c0.1-0.1,0.2-0.1,0.3,0C441.5,298.4,441.5,298.6,441.4,298.6z"/>
		</g>
		<path class="st6" d="M423.4,308.2c0,0-8.1,6.8-21.5,20.4c-13.4,13.6-51.1,25.7-57.4,26.2s-41.7,0.4-52-0.4
			c-10.3-0.9-32.3-4.9-43.5-8.1c-11.2-3.1-21.5-10.9-30.9-14.6c-9.4-3.7-29.6-12.3-34.5-14.5c-4.9-2.2-21.5-24.2-27.4-30.5
			s-25.6-16.7-26.5-22.9c-0.9-6.2-25.6-71.2-20.2-102.6c5.4-31.4,4-42.6,8.1-42.1c4,0.5,12.1-21.6,12.1-21.6s13.9,4.9,23.8,13
			S423.4,308.2,423.4,308.2z"/>
		<g>
			<path class="st7" d="M440.8,290.2l-2.5-3.1c0,0-7.8-0.9-7.8-0.1c0,0.7,6-3,6-3s-11.8-11.2-13.3-11.5s-3.7-0.9-3.7-0.9
				s-14.5-11.7-17.5-12.1s-8.1-2.4-8.1-2.4s-5.2-4.9-7-5.4s-14.3-5.1-26.5-13s-14.8-10.8-18.4-13.5c-3.7-2.7-41.3-31.7-43.9-34.4
				s-18.4-20.3-18.4-20.3s-7.3-9-11.7-11.1s-6.7-3.4-8.8-4.8c-2.1-1.3-5.7-5.4-9.3-7.9s-19.7-16-23.8-19.7c-4-3.7-7.5-8.7-10.3-11.1
				c-2.8-2.4-12.4-9-17-12.1s-7.6-7.9-10-10.9c-2.4-3-2.5-7.6-10.5-10.8s-12.4-9.4-14.2-10.9c-1.8-1.5-2.8-2.7-3.7-5.1
				s-3.9-3-5.1-3.3c-1.2-0.3-2.1-3.3-3-1.5c-0.9,1.8-1.5,2.5-3.1,2.4c-1.6-0.1,0.1-1.8-2.5-0.6c-3.3,1.5-11.7,20.8-14.6,28.2
				c-3,7.5-7.5,23.6-9,28.1c-1.5,4.5-7.2,17.6-6.3,25.7c0.9,8.1,1.3,16.7-0.1,21.5s-2.3,12.3,2.2,41.2s18.2,52.9,30.2,64.3
				c12,11.4,17.3,14.6,19.1,19.4c1.8,4.8,25.1,25.1,43.3,32.6s22.4,16.1,41,17c0,0,27.6,10.9,54.9,10.2c26.9-0.8,33.6,4.2,72.8-11.4
				c29.9-11.9,51.7-32.1,60.3-41C442.8,296.8,442.9,292.9,440.8,290.2z"/>
			<path class="st5" d="M440.6,290.4l-2.5-3.1l0.1,0.1c-1.2-0.1-2.4-0.2-3.7-0.3c-1.2-0.1-2.5-0.2-3.6,0c-0.1,0-0.3,0.1-0.3,0.1
				c0,0,0-0.1,0-0.1c0,0-0.1-0.1-0.1-0.1c0,0,0.1,0,0.1,0c0.3-0.1,0.5-0.2,0.8-0.3c0.5-0.3,1.1-0.5,1.6-0.8c1.1-0.6,2.1-1.2,3.2-1.9
				l0,0.3c-2.6-2.4-5.2-4.9-7.9-7.2c-1.3-1.2-2.7-2.4-4.1-3.4c-0.4-0.3-0.7-0.5-1.1-0.7c-0.1-0.1-0.4-0.1-0.6-0.1l-0.7-0.1
				c-0.9-0.2-1.7-0.4-2.6-0.6c0,0-0.1,0-0.1,0l0,0c-3.9-3.1-7.8-6.1-11.9-8.9c-1-0.7-2.1-1.4-3.1-2c-0.5-0.3-1.1-0.6-1.6-0.8
				c-0.3-0.1-0.5-0.2-0.8-0.2c-0.3,0-0.6-0.1-0.9-0.2c-2.5-0.5-4.8-1.3-7.2-2.1c-0.1,0-0.1-0.1-0.2-0.1l0,0c-1.3-1.2-2.6-2.3-4-3.4
				c-0.7-0.5-1.4-1-2.1-1.4c-0.2-0.1-0.4-0.2-0.5-0.3l-0.2-0.1l-0.3-0.1c-0.4-0.1-0.9-0.3-1.3-0.4c-3.3-1.2-6.6-2.5-9.8-4
				c-6.4-2.9-12.6-6.4-18.5-10.3c-2.9-1.9-5.9-3.9-8.7-6c-1.4-1-2.8-2.1-4.2-3.2c-1.4-1.1-2.7-2.1-4.2-3.1
				c-5.6-4.2-11.3-8.4-16.8-12.6c-5.6-4.3-11.2-8.5-16.7-12.8c-2.8-2.2-5.5-4.3-8.3-6.6c-0.3-0.3-0.7-0.7-1.1-1l-0.9-1l-1.8-1.9
				l-3.6-3.9l-7.1-7.8l-3.5-3.9l-1.8-2c-0.5-0.7-1.1-1.3-1.7-2c-2.3-2.6-4.7-5.1-7.2-7.2c-0.3-0.2-0.6-0.5-1-0.7
				c-0.3-0.2-0.6-0.4-0.9-0.6c-0.7-0.4-1.6-0.8-2.3-1.2c-1.6-0.8-3.2-1.6-4.7-2.6c-0.8-0.5-1.5-0.9-2.3-1.5
				c-0.9-0.6-1.5-1.2-2.2-1.8c-1.3-1.2-2.6-2.4-3.8-3.6c-0.6-0.6-1.3-1.1-1.9-1.6c-0.3-0.3-0.7-0.5-1-0.8l-1.1-0.8
				c-1.4-1.1-2.8-2.2-4.1-3.3c-5.4-4.5-10.8-9-16-13.7c-1.3-1.2-2.7-2.4-3.9-3.7c-1.3-1.3-2.4-2.6-3.6-4c-1.1-1.3-2.3-2.7-3.4-4
				c-0.6-0.6-1.2-1.2-1.8-1.8c-0.6-0.5-1.3-1.1-2-1.6c-2.8-2.1-5.6-4.1-8.5-6.2l-4.3-3l-2.2-1.5c-0.7-0.5-1.5-1.1-2.2-1.7
				c-2.8-2.4-4.9-5.3-6.9-8.1c-0.5-0.7-1-1.3-1.6-2.2c-0.5-0.8-0.9-1.6-1.3-2.4c-0.8-1.5-1.7-2.9-2.9-4.1c-1.2-1.2-2.6-2.1-4.1-2.8
				l-2.4-1c-0.8-0.4-1.6-0.8-2.4-1.2c-3.1-1.8-5.9-4.2-8.3-6.7l-1.8-1.9c-0.3-0.3-0.6-0.6-0.9-0.9c-0.3-0.3-0.7-0.6-1-0.9
				c-0.7-0.6-1.3-1.4-1.7-2.2c-0.2-0.4-0.4-0.8-0.6-1.2c-0.2-0.4-0.4-0.9-0.5-1.2c-0.6-1.3-2.2-2-3.8-2.5l-0.6-0.2
				c-0.4-0.1-0.6-0.3-0.8-0.5c-0.4-0.4-0.7-0.7-0.9-1.1c-0.1-0.2-0.3-0.3-0.4-0.4c-0.1-0.1-0.2-0.1-0.1-0.1c0.1-0.1,0,0,0,0.1
				l-0.3,0.6c-0.2,0.4-0.4,0.8-0.8,1.2c-0.3,0.4-0.8,0.8-1.3,0.9c-0.6,0.2-1,0.1-1.6,0.1c-0.3,0-0.7-0.2-1-0.5
				c-0.1-0.2-0.2-0.4-0.2-0.5c0-0.1-0.1-0.2,0-0.1c0.1,0.1,0.3,0.1,0.2,0.1c0,0-0.1,0-0.2,0c-0.2,0-0.4,0.1-0.5,0.2
				c-0.2,0.1-0.4,0.2-0.5,0.2c-0.1,0.1-0.3,0.2-0.4,0.3c-0.6,0.5-1.1,1.2-1.5,2c-1.9,2.9-3.4,6-5,9.2c-1.5,3.1-2.9,6.3-4.3,9.6
				c-1.4,3.2-2.7,6.4-3.9,9.7c-2.3,6.6-4.2,13.3-6.2,20.1c-0.5,1.7-1,3.4-1.5,5.1c-0.6,1.7-1.2,3.3-1.8,5c-1.2,3.3-2.3,6.6-3.1,9.9
				c-0.8,3.3-1.5,6.8-1.2,10.1c0.4,3.4,0.8,7,0.9,10.5c0.1,3.5,0.2,7.1-0.5,10.8c-0.1,0.4-0.2,0.9-0.3,1.4c-0.1,0.4-0.2,0.8-0.3,1.2
				c-0.2,0.8-0.3,1.6-0.4,2.5c-0.2,1.7-0.2,3.4-0.2,5.1c0.1,6.9,1,13.8,1.9,20.7c0.5,3.5,1,6.9,1.5,10.4c0.3,1.7,0.6,3.4,0.9,5.1
				c0.3,1.7,0.7,3.4,1.1,5.1c1.6,6.7,3.7,13.3,6.4,19.7c2.6,6.4,5.8,12.6,9.4,18.4c3.7,5.8,7.9,11.3,12.8,16c2.5,2.4,5.1,4.7,7.7,7
				c2.6,2.3,5.3,4.6,7.9,7.3c1.3,1.3,2.5,3,3.3,4.9c0.4,1.1,1.6,2.4,2.7,3.6c2.3,2.5,4.9,4.8,7.5,7c5.3,4.5,10.8,8.6,16.6,12.5
				c2.9,1.9,5.8,3.7,8.9,5.3c1.5,0.8,3,1.6,4.6,2.3c0.8,0.4,1.5,0.7,2.3,1c0.8,0.3,1.7,0.7,2.5,1.1c3.3,1.5,6.5,3.1,9.5,4.9
				c3.1,1.8,6,3.7,9,5.4c3,1.7,6,3.1,9.2,4c3.2,0.9,6.5,1.4,9.9,1.6c0.2,0,0.4,0.1,0.6,0.1l0,0c8.1,3.1,16.7,5.5,25.3,7.3
				c8.6,1.8,17.4,3,26.1,3.1l6.7-0.1c2.2,0,4.5,0,6.7,0.1c4.5,0.1,8.9,0.3,13.3,0.3c8.8,0.1,17.5-1,26.1-3.4
				c8.5-2.3,16.9-5.3,25.2-8.5c8.2-3.4,16.1-7.4,23.7-12.1c7.6-4.7,14.8-9.9,21.6-15.7c3.4-2.9,6.7-5.9,9.9-9c1.5-1.6,3.4-3,4-5.1
				C442.4,294.4,442,292,440.6,290.4z M440.9,290.1c1.5,1.8,2,4.3,1.3,6.5c-0.3,1.1-1,2.1-1.8,2.9c-0.8,0.8-1.6,1.6-2.4,2.4
				c-3.2,3.1-6.5,6.2-9.8,9.1c-6.7,5.8-13.9,11.2-21.4,16.1c-7.5,4.9-15.4,9.2-23.6,12.8c-8.2,3.5-16.6,6.7-25.2,9.3
				c-8.6,2.6-17.6,4.1-26.7,4.2c-4.5,0.1-9-0.1-13.4-0.1c-2.2,0-4.4,0-6.6,0l-6.7,0.2c-9.1,0.1-18.1-1-26.9-2.7
				c-4.4-0.9-8.8-1.9-13.1-3.2c-4.3-1.2-8.6-2.6-12.9-4.2l0.7,0.1c-3.6-0.2-7.3-0.6-10.8-1.6c-3.6-1-7-2.5-10.1-4.3
				c-3.2-1.8-6.1-3.6-9.1-5.4c-3-1.7-6-3.3-9.1-4.7c-0.8-0.4-1.6-0.7-2.4-1c-0.8-0.4-1.7-0.7-2.5-1.1c-1.7-0.7-3.2-1.6-4.8-2.4
				c-3.2-1.7-6.2-3.6-9.2-5.5c-5.9-3.9-11.6-8.2-17-12.9c-2.7-2.3-5.3-4.7-7.8-7.4c-0.6-0.7-1.2-1.4-1.8-2.1
				c-0.3-0.4-0.6-0.8-0.9-1.2c-0.1-0.3-0.3-0.4-0.4-0.8l-0.3-0.7c-0.5-1.3-1.4-2.5-2.5-3.7c-2.2-2.4-4.9-4.7-7.5-7.1
				c-2.6-2.3-5.2-4.7-7.8-7.2c-5.2-5-9.6-10.8-13.3-16.8c-3.7-6.1-6.9-12.4-9.6-19c-2.6-6.6-4.7-13.4-6.3-20.3
				c-0.4-1.7-0.8-3.5-1.1-5.2c-0.3-1.7-0.6-3.5-0.9-5.2c-0.5-3.5-1-7-1.4-10.5c-0.9-7-1.6-14-1.6-21.1c0-1.8,0.1-3.6,0.4-5.4
				c0.1-0.9,0.3-1.8,0.5-2.7c0.1-0.5,0.2-0.9,0.4-1.3c0.1-0.4,0.2-0.8,0.3-1.2c0.7-3.2,0.7-6.7,0.7-10.2c-0.1-3.5-0.4-6.9-0.7-10.4
				c-0.2-3.7,0.6-7.3,1.5-10.7c0.9-3.4,2.1-6.8,3.3-10.1c0.6-1.6,1.3-3.3,1.8-4.9c0.5-1.6,1.1-3.3,1.6-5c2.1-6.7,4.1-13.4,6.4-20.1
				c1.2-3.3,2.6-6.5,4-9.8c1.4-3.2,2.9-6.4,4.4-9.6c1.6-3.2,3.1-6.3,5.1-9.3c0.5-0.7,1-1.5,1.7-2.1c0.2-0.2,0.4-0.3,0.6-0.5
				c0.3-0.2,0.5-0.2,0.7-0.3c0.2-0.1,0.4-0.2,0.7-0.2c0.1,0,0.3-0.1,0.5-0.1c0.1,0,0.2,0,0.4,0c0.1,0,0.3,0.2,0.4,0.3
				c0.2,0.3,0.2,0.4,0.2,0.5c0,0.1,0,0.1,0,0.1c0,0,0,0,0.2,0.1c0.3,0,0.7,0,1-0.1c0.6-0.2,1-0.8,1.4-1.6l0.3-0.6
				c0.1-0.2,0.3-0.6,0.9-0.7c0.6-0.1,0.9,0.3,1.1,0.4c0.2,0.2,0.4,0.4,0.5,0.6c0.3,0.3,0.5,0.7,0.8,0.9c0.1,0.1,0.2,0.2,0.3,0.2
				l0.6,0.2c0.9,0.2,1.8,0.5,2.6,1c0.8,0.5,1.6,1.2,2.1,2.1c0.2,0.5,0.3,0.8,0.5,1.2c0.2,0.4,0.4,0.7,0.6,1.1
				c0.4,0.7,0.9,1.3,1.5,1.9c0.3,0.3,0.6,0.6,0.9,0.8c0.2,0.1,0.3,0.3,0.5,0.5l0.5,0.5l1.8,1.9c2.4,2.5,5,4.7,8,6.4
				c0.7,0.4,1.5,0.8,2.3,1.2l2.4,1c1.6,0.8,3.2,1.7,4.6,3c1.4,1.3,2.4,2.9,3.2,4.5c0.4,0.8,0.8,1.5,1.3,2.2c0.4,0.6,1,1.3,1.6,2
				c2.1,2.8,4.2,5.5,6.8,7.7c0.6,0.6,1.3,1,2,1.5l2.2,1.5l4.4,2.9c2.9,2,5.8,4,8.7,6c0.7,0.5,1.4,1.1,2.1,1.7c0.7,0.6,1.4,1.3,2,1.9
				c1.2,1.3,2.4,2.6,3.5,4c1.2,1.3,2.3,2.6,3.5,3.8c1.2,1.2,2.5,2.3,3.8,3.4c5.3,4.5,10.8,9,16.2,13.3c1.4,1.1,2.7,2.2,4.1,3.2
				l1,0.7c0.4,0.3,0.8,0.5,1.1,0.8c0.7,0.6,1.4,1.1,2.1,1.7c1.4,1.2,2.6,2.4,3.9,3.5c0.6,0.6,1.3,1.1,1.9,1.5
				c0.6,0.4,1.4,0.9,2.1,1.3c1.5,0.8,3,1.6,4.6,2.4l2.4,1.2c0.5,0.2,0.9,0.5,1.3,0.8c0.4,0.3,0.8,0.6,1.2,0.8
				c2.9,2.3,5.3,4.9,7.7,7.6c0.6,0.7,1.2,1.3,1.7,2l1.7,1.9l3.5,3.9l7,7.8l3.5,3.9l1.8,1.9l0.9,1l0.8,0.8c2.6,2.2,5.4,4.4,8.1,6.6
				l16.5,13.1l16.5,13c1.4,1,2.8,2.2,4.2,3.3c1.4,1.1,2.7,2.2,4.1,3.3c2.7,2.1,5.6,4.2,8.4,6.2c5.7,4,11.7,7.5,18,10.6
				c3.1,1.5,6.3,2.9,9.6,4.2c0.4,0.2,0.8,0.3,1.2,0.4l0.3,0.1l0.4,0.1c0.2,0.1,0.5,0.2,0.7,0.3c0.8,0.5,1.5,1,2.2,1.6
				c1.4,1.1,2.7,2.3,4,3.5l-0.2-0.1c2.3,0.9,4.6,1.7,7,2.3c0.3,0.1,0.6,0.1,0.9,0.2c0.3,0.1,0.7,0.2,1,0.3c0.6,0.3,1.1,0.6,1.7,0.9
				c1.1,0.6,2.1,1.3,3.1,2.1c4.1,2.9,8,5.9,11.8,9l-0.1-0.1c0.9,0.2,1.7,0.5,2.6,0.7l0.7,0.1c0.2,0.1,0.4,0.1,0.7,0.2
				c0.4,0.2,0.8,0.5,1.2,0.8c1.4,1.1,2.8,2.3,4.1,3.5c2.7,2.4,5.3,4.8,7.9,7.3c0.1,0.1,0.1,0.2,0,0.3c0,0,0,0,0,0
				c-1,0.6-2.1,1.3-3.2,1.9c-0.5,0.3-1.1,0.6-1.6,0.9c-0.3,0.1-0.6,0.3-0.9,0.3c-0.1,0-0.2,0-0.3,0c0,0-0.2-0.1-0.3-0.2
				c-0.1-0.1,0-0.3,0-0.3c0.2-0.2,0.4-0.2,0.6-0.2c1.3-0.1,2.5,0,3.7,0c1.2,0.1,2.4,0.2,3.7,0.3c0.1,0,0.1,0,0.1,0.1L440.9,290.1z"
				/>
		</g>
		<circle class="st6" cx="422.3" cy="171.8" r="0"/>
		<path class="st6" d="M248.4,288.5c0,0-1.9,2.9-4.6,3.1s-2.7-0.6-4.1,0c-1.4,0.6-5.1,2.5-3.4-0.6s3.2-4.2,3.4-6.1s-2-4.2,1.1-5.7
			s3.7-2.7,6.1-1.5s3.6,0.5,4.1,2.4c0.5,1.9,0.4,3.8-0.4,5.5c-0.8,1.7-1.6,2.1-1.6,2.6C249.1,288.6,248.4,288.5,248.4,288.5z"/>
		<path class="st6" d="M160.8,194.1c-0.8,0.6-1.8,1.1-2.8,1.3c-2.4,0.6-8.8,1.5-6.7,4.9c3,4.8,8.1,4.8,8.1,4.8l6.3-4.2l3.9-4.8
			c0,0,1.8-4.8-4.2-4.8C161.6,191.4,162,193.1,160.8,194.1z"/>
		<path class="st6" d="M69.9,228.8c-2.2,0.4-3.6,2.4-3.4,4.6c0.2,1.9,0.7,4.1,1.6,5.6c1.9,3.1,5.2,3.1,5.2,3.1l0,0
			c2.2,0.6,4.5-0.7,5-2.9l0.9-3.4c1-3.7-1.7-7.4-5.5-7.4c0,0-0.1,0-0.1,0C72.3,228.4,71,228.6,69.9,228.8z"/>
		<path class="st6" d="M314.4,265.4c0,0-1-0.1-1.3,1.1c-0.4,1.3-1.1,2,0,2.3c1.1,0.3,0.7,1.1,2.2,0.3c1.5-0.8,1.8-0.7,1.8-1.8
			c0-1-0.1-2-1-1.9C315.2,265.4,314.4,265.4,314.4,265.4z"/>
		<path class="st6" d="M305,273.6c-0.5,0.5-2.1,0.9-0.5,3s3.6,3,4.6,3.1c1,0.1,1.7-2.5,4.4-1.1c2.7,1.3,5.6-3.5,3.5-3.6
			c-2.1-0.1-5.4-0.7-6.6-0.7c-1.2,0-1,0.7-2.2-0.1s-0.9-2.1-1.8-1.6C305.6,273,305,273.6,305,273.6z"/>
		<path class="st6" d="M320.6,114.8c2.2-0.5,3.2-2.8,2.5-4.9c-0.1-0.3-0.2-0.6-0.1-0.9c1.4-12.8,4.2-19.3-0.6-21.7
			c-4.8-2.5-5.5-4-5.5-4s2.9,6.9,2.9,9s-2.9,0.2-2.9,5.4c0,5.2,4,3.8,3.1,9.4c-0.9,5.6-1.4,2.3-0.4,7.6
			C319.7,114.9,320.1,114.9,320.6,114.8z"/>
		<path class="st6" d="M443.8,249.8c0,0-1.3,2.9,0-9.9s4.2-19.3-0.6-21.7c-4.8-2.5-5.5-4-5.5-4s2.9,6.9,2.9,9s-1.8,2.5-1.8,7.6
			c0,5.2,2.9,1.6,2,7.2c-0.9,5.6-3.8,3.4-0.4,7.6C443.8,249.8,443.8,249.8,443.8,249.8z"/>
		<path class="st6" d="M243.1,121.3c0,0,2.4,11.2,4.9,12.3c1.1,0.5,3.5,1,5.9,1.4c3,0.5,6,0.9,6,0.9s7.4-2.3,3.6-1.8
			c-3.8,0.5-11.5-0.5-14-3.2c-2.5-2.7-3.9-5.6-3.9-5.6L243.1,121.3z"/>
		<path class="st6" d="M322.2,340.4c0,0,7.7,8.4,10.4,8.1c1.2-0.1,3.6-1,5.8-1.8c2.9-1.1,5.6-2.3,5.6-2.3s5.2-5.8,2.1-3.4
			s-10.6,1.2-14.1,0.2c-3.5-1-5.2-0.3-5.2-0.3L322.2,340.4z"/>
		<path class="st6" d="M160.2,93.8l-1.1,7.2c0,0,1.3,1.3,3.9,1.5c2.5,0.1,1.2-2.2,3.1-3.4s3.1-2.2,3.1-2.2s-1-4.3-4.3-3.6
			c-3.3,0.7-5.2-0.1-5.2-0.1"/>
		<path class="st6" d="M262.9,397.5c-0.4,5.1-3.9,1.2-4.2,9.1c-0.3,7.9,1.8,6,2.1,7.9c0.3,1.9-1.6,3.7,1.2,4.3
			c2.8,0.6,6.9-0.9,6.9-0.9l2.1-1.3c0,0,7.3-4.5,2.4-5.5c-4.9-1-9.3,2.2-4.9-1s8.4-2.5,4.3-3.9c-4-1.3-5.9-3.3-5.9-3.3l-0.4-2.2
			c0,0-0.2-2.4-0.4-4.2c-0.2-1.8,0.7-3.9-1-2.8c-1.6,1-2.4,1.3-2.4,2.1C262.8,396.4,262.9,397.5,262.9,397.5z"/>
		<path class="st6" d="M258.7,399.5c1.4-1.6,0.3-2,2-5.2c1.7-3.3,1.1-6,1.1-6s0.1,0.4-0.8,2.2c-0.8,1.8-0.9,0.7-2.3,3.4
			c-1.4,2.7,0.2,2.6-0.9,4.8c-1.2,2.2-2,0.6-1.6,3C256.6,404.1,258.7,399.5,258.7,399.5z"/>
		<path class="st6" d="M158.2,274.5c-0.9-2-1.6-1.1-3.9-4c-2.2-2.9-5-3.5-5-3.5s0.4,0.1,1.6,1.6c1.3,1.5,0.3,1.1,2.1,3.5
			s2.4,0.9,3.9,2.9c1.5,2-0.3,2.1,2.1,2.7C161.4,278.4,158.2,274.5,158.2,274.5z"/>
		<path class="st6" d="M247.2,395.7c3.3-0.4,3.3-2,4.8-1.8c1.5,0.2,2.1-0.6,2.1,0.8c0,1.4,0,2.2,0,2.2s1.7-0.6,1.4,0.4
			s-2.2,1.5-3.6,2.2c-1.5,0.8-2-0.4-2.5-1.5s-0.2-1.5-1.1-1.4C247.4,396.8,245.6,395.9,247.2,395.7z"/>
		<path class="st8" d="M238.1,289.8c-0.3-0.8,3.2-6.2,3.8-7.4c0.6-1.2-0.5-3.2,2.6-2.6s3.7-0.1,4.1,1.5c0.3,1.7,1.2,1.7-0.3,2.8
			c-1.5,1.1-3.2,1.1-3.5,1.9c-0.3,0.9,0.2,1.1-0.9,2c-1.1,0.9-1.4,0.8-2.7,1.2C240.1,289.7,238.7,291.4,238.1,289.8z"/>
		<path class="st8" d="M69.9,241c-0.7-0.3-1.8-6-2.2-7.2c-0.3-1.1-2.3-1.7,0.1-3.3c2.4-1.5,2.3-2.4,3.6-1.6c1.3,0.9,1.9,0.4,1.5,2
			c-0.3,1.7-1.4,2.7-1,3.4c0.3,0.7,0.8,0.6,0.7,1.9s-0.4,1.4-1,2.4C71.1,239.8,71.3,241.7,69.9,241z"/>
		<path class="st9" d="M244.7,282.5l-0.8,2.1c0,0,1.1,0.3-0.9,1.9c-2,1.6-2,2.8-0.9,2c1.2-0.8,0.8-0.3,1.2-1.2
			c0.4-0.9,0.5-1.2,0.5-1.2s0.9,0,1.1-1.1c0.2-1.1-0.1-1.2,0.1-1.6c0.2-0.4,0.9-1.4,0.4-1.3C245.1,282.2,244.7,282.5,244.7,282.5z"
			/>
		<path class="st9" d="M265.7,404.5l-1,2.7c0,0,1.4,0.3-1.2,2.4s-2.6,3.6-1.1,2.5c1.5-1.1,1.1-0.3,1.6-1.5c0.5-1.2,0.7-1.6,0.7-1.6
			s1.1,0,1.4-1.4c0.3-1.4-0.1-1.5,0.2-2s1.2-1.8,0.6-1.6C266.3,404.2,265.7,404.5,265.7,404.5z"/>
		<path class="st9" d="M243,281.5c1.4-0.5,1.3-1,1.3-1l-0.4-0.3c0,0-0.4,0.1-1.1,0.8c-0.7,0.7-0.7,0.3-0.7,0.3L243,281.5z"/>
		<path class="st9" d="M70,233.3c1.8-0.6,1.2-1.6,1.2-1.6l-0.5-0.4c0,0-0.5,0.1-1.4,1s-0.2,4-0.2,4L70,233.3z"/>
		<path class="st8" d="M159.8,202.8c2.8-0.9,4.7-1.9,5.6-3.5s1.8-3.2,1.8-3.2s1.2-4.2-0.8-2.5s-0.6,1.2-3.6,2.7
			c-3,1.5-6.7,2.3-6.7,2.3s-0.1,1.5,0.6,2.1C157.6,201.3,159.8,202.8,159.8,202.8z"/>
		<path class="st9" d="M159.7,200.1c1.7-1,4-3,2.4-1.9c-1.6,1.1-3.4,0.7-4,1.1s-1,0.4-0.6,0.8s0.1,0.3,0.9,0.4
			C159.3,200.5,159.7,200.1,159.7,200.1z"/>
		<path class="st6" d="M197.7,107.1c9.4,8.1,9.4,8.1,9.4,8.1l5.2,6.9c0,0,6.1,4,11.9,8.3c5.8,4.3,8.7,7.6,11.4,11
			c2.7,3.4,5.6,5.4,5.6,5.4l11.9,9.9l-9.9-3.4c0,0-0.4,0.2-6.1-5.4c-5.6-5.6-8.3-11.7-12.8-14.3s-9.9-6.9-15.7-9
			c-5.8-2-9-9.9-9.6-10.8c-0.7-0.9-4.3-6.7-4.3-6.7H197.7z"/>
		<path class="st6" d="M320.8,350.8c-0.6,0-10.9,1.7-10.9,1.7l-17.2-3l-19.7-4.2c0,0-18.4-1.2-25-3.9c-6.6-2.7-18.4-10.2-18.4-10.2
			l-11.8-6.9l-12-3.2c0,0-15.1-9.4-17-11.8c-1.9-2.4,8.7,3.6,12.4,6c3.7,2.4,11.4,4.9,16.7,6.6s9.9,5.8,11.4,6.4
			c1.5,0.6,14.6,10.9,22.1,11.2c7.5,0.3,25.6,3.7,25.6,3.7s11.5,2.2,18.7,3.9c7.2,1.6,14.5,2.5,14.5,2.5s11.5-0.1,12.1-0.1
			C322.9,349.6,320.8,350.8,320.8,350.8z"/>
		<path class="st10" d="M223.2,60.6c6.8,0,18.6-3.4,26.5-2.5c7.9,0.8,11.7,2.2,11.7,2.2s-6.7,1.3-15.5,2.2s-8.2,1-13.4,1
			s-11.7,0.3-11.7,0.3L206.7,66c0,0-6.2,0-5,0.1c1.2,0.1,13.4-3.6,13.4-3.6L223.2,60.6z"/>
		<g>
			<g>
				<path class="st10" d="M310.8,140.6c1.9,0,1.9-3,0-3C308.8,137.6,308.8,140.6,310.8,140.6L310.8,140.6z"/>
			</g>
		</g>
		<g>
			<g>
				<path class="st10" d="M301.7,166c1.9,0,1.9-3,0-3C299.8,163,299.8,166,301.7,166L301.7,166z"/>
			</g>
		</g>
		<path class="st6" d="M428.7,288.8c0,1-0.9,7.5-0.9,7.5l-2.7,1.6c0,0-0.6,0.7-0.4,1.6c0.1,0.9,2.1,3.3,4.9-0.7
			c2.8-4,2.8-5.2,2.8-5.2l-1.8-4.8H428.7z"/>
		<path class="st11" d="M150.8,265.6c0.9,0.6,16.6,24.4,22.4,29.1c5.8,4.8,15.8,10,15.8,10l18.8,12.2c0,0,27.4,12.1,33,16
			c5.7,3.9,18.7,7,26.4,7.5c7.7,0.4,21.5,2.7,21.5,2.7s-40.8-8.1-47.7-12s-23-10.5-31-15.4s-32.5-18.7-35.8-22.6
			C171,289.3,150.8,265.6,150.8,265.6z"/>
		<path class="st12" d="M268.6,430.5c-0.4,0-9.3,2.6-12.6,2.1c-3.2-0.4-10.9-0.7-16.8-2.1s-17.7-3.6-22.6-3.6c-4.9,0-21.4-3-29-8.2
			c-7.6-5.2-21.7-11.1-21.7-11.1l-11.1-6.7c0,0,0.9-1.7,13.2,5.4s30.8,16.7,43.2,17.5s28.8,4.4,34.4,5.6
			C251.1,430.6,268.6,430.5,268.6,430.5z"/>
		<path class="st12" d="M158.7,387.7c-0.4-0.2-9.3-2.8-11.7-4.9c-2.5-2.1-8.8-6.4-13-10.8c-4.2-4.4-13-12.5-17.2-15.2
			s-16.5-14-20.1-22.5c-3.7-8.4-12.4-21-12.4-21l-5.8-11.6c0,0,1.7-1,8.3,11.6s17.1,30.6,27.1,37.9c10,7.3,22,19.1,26,23.2
			S158.7,387.7,158.7,387.7z"/>
		<path class="st12" d="M101.9,159.8l-1.3,27.8c0,0,9.9,51.8,13.9,64.2c4,12.3,7.6,22.4,10.5,27.6s6.9,14.1,9.4,18.6
			s5.6,7.6,6.9,7.8s-16.8-27.1-17.9-33.4c-1.1-6.3-9-32.7-12.8-48.2c-3.8-15.5-7.6-37.7-7.6-37.7s0.7-17.3,0-23.8
			C102.3,156.2,101.9,159.8,101.9,159.8z"/>
		<path class="st12" d="M302.5,364.9c0.1,0.2,2.6,8,2.6,8s-5,0.6-6,0.3c-1-0.3,0.9-3.8,0.9-4.1s-2.7-3.9-2.7-3.9l-1.7-5.8
			c0,0,6.1,0.1,8.3,2.1c2.2,1.9,4.5,4.8,4.5,4.8l10.4,5.5l-5.1-0.3c0,0-0.5,2.5-2.5,0c-1.9-2.5-5.2-6-5.2-6l-4.1-2.5L302.5,364.9z"
			/>
		<circle class="st6" cx="276.4" cy="324.9" r="1"/>
		<circle class="st6" cx="259.8" cy="322.8" r="1.2"/>
		<circle class="st6" cx="250.9" cy="311.1" r="0.7"/>
		<circle class="st6" cx="263.2" cy="288" r="1"/>
		<g>
			<path class="st7" d="M134.7,164.4c0,1-0.3-0.5-1.3-0.5s-1.3,0.4-1.3-0.6c0-1-0.5-2.7,0.5-2.7
				C133.7,160.6,134.7,163.4,134.7,164.4z"/>
			<path class="st5" d="M134.7,164.4c0,0.1,0.1,0.2,0,0.4c-0.1,0.1-0.2,0-0.2,0l-0.1-0.1c-0.1,0-0.1-0.1-0.2-0.1
				c-0.2-0.1-0.4-0.2-0.6-0.2c-0.2-0.1-0.7-0.2-1.2-0.3c-0.1,0-0.3,0-0.4-0.2c-0.1-0.1-0.1-0.3-0.2-0.4c-0.1-0.3-0.1-0.5-0.2-0.7
				c-0.1-0.4-0.2-0.9-0.2-1.5c0-0.3,0-0.6,0.4-1c0.4-0.3,0.9-0.3,1.2-0.2c0.7,0.4,0.9,0.8,1.1,1.3c0.2,0.5,0.3,1,0.4,1.4
				C134.6,163.4,134.7,163.9,134.7,164.4z M134.6,164.4c-0.1-0.9-0.6-1.8-1.2-2.4c-0.3-0.3-0.6-0.7-0.8-0.7c-0.1,0-0.1,0-0.1,0
				c0,0-0.1,0.1-0.1,0.3c-0.1,0.4,0,0.8-0.1,1.3c0,0.2-0.1,0.5-0.1,0.7c0,0.1,0,0.2,0,0.3c0,0,0.1,0.1,0.2,0c0.2,0,0.4-0.2,0.7-0.3
				c0.2-0.1,0.6-0.1,0.9,0.1C134.4,163.8,134.5,164.1,134.6,164.4l0,0.2c0,0.1,0.1,0.1,0,0.1C134.6,164.6,134.6,164.5,134.6,164.4z"
				/>
		</g>
		<g>
			<circle class="st7" cx="365.1" cy="315.4" r="1"/>
			<path class="st5" d="M366.2,315.4c0,0.3-0.1,0.5-0.3,0.8c-0.2,0.2-0.4,0.4-0.8,0.5c-0.7,0.1-1.3-0.5-1.4-1.2c0-0.4,0.1-0.7,0.3-1
				c0.3-0.3,0.7-0.5,1-0.4c0.4,0,0.7,0.3,0.9,0.6C366.2,314.8,366.2,315.1,366.2,315.4z M366.1,315.4c0-0.3-0.2-0.4-0.4-0.5
				c-0.2-0.1-0.4,0-0.5,0c-0.2,0.1-0.5,0.1-0.6,0.5c-0.1,0.3,0.2,0.7,0.6,0.7c0.2,0,0.4,0,0.6-0.1
				C366,315.9,366.1,315.7,366.1,315.4z"/>
		</g>
		<circle class="st6" cx="186.7" cy="263.9" r="1"/>
		<circle class="st6" cx="170.1" cy="261.7" r="1"/>
		<circle class="st6" cx="161.1" cy="250.1" r="1"/>
		<circle class="st6" cx="173.5" cy="226.9" r="1"/>
		<circle class="st6" cx="190.2" cy="228.9" r="1"/>
		<circle class="st6" cx="218.7" cy="229.3" r="0.5"/>
		<circle class="st6" cx="202" cy="227.1" r="1.3"/>
		<circle class="st13" cx="384" cy="113.5" r="1"/>
		<circle class="st13" cx="384" cy="204" r="1"/>
		<circle class="st6" cx="205.4" cy="192.3" r="1"/>
		<circle class="st6" cx="222.1" cy="194.3" r="1"/>
		<g>
			<circle class="st7" cx="219.6" cy="290.1" r="1.9"/>
			<path class="st5" d="M221.5,290.1c0,0.5-0.1,1-0.4,1.6c-0.3,0.5-0.9,0.8-1.6,0.7c-0.6-0.1-1.1-0.5-1.4-0.9
				c-0.3-0.4-0.6-0.9-0.7-1.4c-0.3-1.2,0.9-2.5,2.2-2.4c0.6,0,1.3,0.3,1.6,0.9C221.5,289.1,221.5,289.7,221.5,290.1z M221.4,290.1
				c0-0.5-0.3-0.9-0.7-1.1c-0.4-0.2-0.7-0.3-1.1-0.2c-0.7,0-1.4,0.5-1.6,1.3c-0.1,0.4,0,0.9,0.4,1.2c0.4,0.3,0.8,0.3,1.2,0.2
				c0.4-0.1,0.7-0.2,1.1-0.4C221.1,291.1,221.4,290.6,221.4,290.1z"/>
		</g>
		<path class="st6" d="M381.2,99c-2.8,0-13.7-6.3-13.7-9.1c0-2.8,6.8,1.2,9.6,1.2s5.1,2.3,5.1,5.1C382.1,98.9,384,99,381.2,99z"/>
		<circle class="st6" cx="229.3" cy="306.6" r="1"/>
		<circle class="st6" cx="218.6" cy="272.4" r="1"/>
		<circle class="st6" cx="143.3" cy="118.9" r="0.4"/>
		<circle class="st6" cx="145.8" cy="112.8" r="1.5"/>
		<circle class="st6" cx="156" cy="111.2" r="0.4"/>
		<circle class="st6" cx="156" cy="116.4" r="0.4"/>
		<circle class="st6" cx="134.9" cy="153.1" r="1.1"/>
		<circle class="st6" cx="156.8" cy="145.1" r="0.2"/>
		<circle class="st6" cx="137.4" cy="142.3" r="0.5"/>
		<ellipse class="st6" cx="142.4" cy="139.1" rx="0.9" ry="0.4"/>
		<circle class="st6" cx="146.2" cy="134.3" r="0.7"/>
		<circle class="st6" cx="143.8" cy="163.4" r="0.5"/>
		<ellipse class="st6" cx="134.2" cy="171.7" rx="0.8" ry="0.3"/>
		<circle class="st6" cx="127.7" cy="183" r="0.2"/>
		<circle class="st6" cx="154.2" cy="175.6" r="0.6"/>
		<circle class="st6" cx="168.9" cy="181.3" r="0.2"/>
		<ellipse class="st6" cx="179.4" cy="167.5" rx="0.7" ry="1"/>
		<circle class="st6" cx="165.3" cy="156.1" r="0.4"/>
		<path class="st6" d="M364.1,295.9c0,0,6.6,1.6,9.6,0c3-1.6-2.4-1.2,5.5-3.9c7.8-2.7,12.6-8.3,12.6-8.3s-2.8,0.7-8.7,3.6
			c-5.9,2.9-7.7,3.7-10.4,4.1c-2.7,0.4-7.8-1.3-8.5-1.3s-9-3.7-9-3.7s4.4,7.2,5.9,7.2c1.6,0,2.8,1.2,3.5,1.3
			S364.1,295.9,364.1,295.9z"/>
		<path class="st6" d="M183.5,124.5c-1.7,2.9-4.1,3.8-2,4.8c2.1,1,0.8,0.8,3.3,1.7s3.5,2.5,4.1,2.5c0.7,0-2.9,1.5-2.9,1.5
			s-1.3-1.8-2.9-3.1c-1.6-1.2-3.7-2.2-3.7-2.2s-1.4-1.9,0-3.1C180.7,125.4,183.5,124.5,183.5,124.5z"/>
		<ellipse class="st6" cx="189.9" cy="397.5" rx="1.1" ry="0.6"/>
		<ellipse class="st6" cx="182.9" cy="391.5" rx="0.5" ry="1"/>
		<circle class="st6" cx="156.5" cy="380.2" r="0.7"/>
		<circle class="st6" cx="143.6" cy="362.6" r="1.3"/>
		<circle class="st6" cx="168.6" cy="380.7" r="0.5"/>
		<circle class="st6" cx="208.6" cy="402.6" r="1.9"/>
		<ellipse class="st6" cx="229.2" cy="413.8" rx="1.3" ry="0.7"/>
		<ellipse class="st6" cx="290.7" cy="404.5" rx="1.3" ry="0.7"/>
		<ellipse class="st6" cx="249.7" cy="419.4" rx="1.4" ry="0.4"/>
		<circle class="st6" cx="237.1" cy="403" r="0.6"/>
		<circle class="st6" cx="206" cy="383.4" r="0.7"/>
		<circle class="st6" cx="172.4" cy="365.8" r="0.3"/>
		<ellipse class="st6" cx="122.7" cy="344.3" rx="0.8" ry="0.3"/>
		<circle class="st6" cx="114.6" cy="323.2" r="0.4"/>
		<ellipse class="st6" cx="108.4" cy="296.9" rx="0.4" ry="0.8"/>
		<ellipse class="st6" cx="97.7" cy="297.3" rx="1" ry="0.4"/>
		<ellipse class="st6" cx="124.6" cy="316.2" rx="1.8" ry="0.3"/>
		<circle class="st6" cx="94.2" cy="307.5" r="0.5"/>
		<ellipse class="st6" cx="139.2" cy="333" rx="1.5" ry="1"/>
		<circle class="st6" cx="81.1" cy="272.2" r="0.2"/>
		<circle class="st6" cx="93.9" cy="261.3" r="0.6"/>
		<ellipse class="st6" cx="80.2" cy="247.9" rx="1.2" ry="0.6"/>
		<circle class="st6" cx="89.2" cy="224.4" r="0.2"/>
		<circle class="st6" cx="78.3" cy="210.6" r="1.2"/>
		<circle class="st6" cx="83.5" cy="187" r="0.4"/>
		<circle class="st6" cx="86.9" cy="174.3" r="0.8"/>
		<circle class="st6" cx="88" cy="200.3" r="1.1"/>
		<circle class="st6" cx="71.3" cy="218.6" r="0.8"/>
		<g>
			<circle class="st7" cx="79.8" cy="275.6" r="1.3"/>
			<path class="st5" d="M81.1,275.6c0,0.7-0.5,1.4-1.3,1.6c-0.4,0.1-0.9,0-1.2-0.3c-0.4-0.3-0.6-0.8-0.6-1.2c0-0.5,0.2-1,0.6-1.2
				c0.4-0.3,0.8-0.4,1.2-0.3C80.6,274.1,81.1,274.9,81.1,275.6z M81.1,275.6c0-0.3-0.2-0.7-0.4-0.9c-0.3-0.2-0.6-0.3-0.9-0.2
				c-0.6,0.2-0.8,0.7-0.8,1.1c0,0.4,0.2,0.9,0.8,1.1c0.3,0.1,0.6,0,0.9-0.2C80.9,276.3,81.1,275.9,81.1,275.6z"/>
		</g>
		<circle class="st6" cx="65.3" cy="254.7" r="0.4"/>
		<path class="st6" d="M69.4,277.6c0,0-6.9-13.2-6.5-17.4c0.4-4.2,0.5-6.2,0.5-6.2s0.5,2.1,1.5,3.8c1,1.7,3.4,1.1,5.3,1.3
			c2,0.3,4.4,0.6,3.9,0.6c-0.4,0-3.1,1.2-5.2,1.6c-2.1,0.3-2.2-1.7-2.9,0.2c-0.7,2-1.5,2.7-0.2,4.3
			C67.3,267.4,69.4,277.6,69.4,277.6z"/>
		<path class="st6" d="M403.1,360.3c-0.6,0.3-27.1,26-31.5,28.1c-4.5,2.1-15.8,12-26.6,15.7s-20.3,7.7-26.6,9.6
			c-6.3,1.9-15.8,3.1-15.8,3.1s37.7-12.1,48.3-17.8c10.6-5.7,23.5-17,25.7-18.5c2.2-1.5,13.9-12.3,16.9-14.9
			C396.4,362.8,403.1,360.3,403.1,360.3z"/>
		<path class="st6" d="M152.4,64.6c2,1.5,7.5,6.7,9.4,9.2c1.9,2.5-1.7,3.6,8.6,9.9c10.3,6.3,9.8,5.7,14.8,9.5c5,3.7,3.1,2.1,0-2.2
			c-3.1-4.3-4.1-5-9.5-7.6c-5.4-2.6-10.6-7.3-11.6-9.3c-1-2-3.8-6.7-5.9-7.8c-2.1-1.1-4.9-1.6-4.9-1.6H152.4z"/>
		<path class="st6" d="M134.5,228.9c0,0,4.8,4.6,7.9,4.3c3.1-0.3,1.2-1.2,5.1-0.9c3.9,0.3,4.2-0.2,5.2,0c1,0.2-12.1-3.1-14.3-4.4
			c-2.2-1.3-4-2-5.1-4.4c-1-2.4-1.3-3.7-3.1-3.6c-1.8,0.1,1.8,6.7,1.8,6.7l-0.9,0.6L134.5,228.9z"/>
		<circle class="st6" cx="297.1" cy="418.2" r="1.1"/>
		<circle class="st6" cx="303.9" cy="409.9" r="0.6"/>
		<circle class="st6" cx="312.5" cy="405.5" r="1.7"/>
		<circle class="st6" cx="285.7" cy="415.4" r="0.4"/>
		<circle class="st6" cx="319.9" cy="384.9" r="0.5"/>
		<circle class="st6" cx="341.9" cy="389.2" r="0.1"/>
		<circle class="st6" cx="364.6" cy="376" r="0.5"/>
		<circle class="st6" cx="374.3" cy="370.2" r="1"/>
		<circle class="st6" cx="401.8" cy="355.1" r="0.4"/>
		<circle class="st6" cx="408.3" cy="351.8" r="0.7"/>
		<circle class="st6" cx="411.2" cy="343.8" r="0"/>
		<circle class="st6" cx="168.4" cy="351.4" r="0.3"/>
		<circle class="st6" cx="147.1" cy="337.8" r="0.3"/>
		<circle class="st6" cx="112.3" cy="280.2" r="0"/>
		<circle class="st14" cx="245.1" cy="359.9" r="1.5"/>
		<circle class="st14" cx="230.7" cy="350.2" r="0.2"/>
		<circle class="st6" cx="419.4" cy="219.5" r="0.7"/>
		<circle class="st6" cx="414.1" cy="205.9" r="0.4"/>
		<circle class="st6" cx="400.5" cy="201.6" r="1.3"/>
		<circle class="st6" cx="424.3" cy="196.2" r="0.2"/>
		<circle class="st6" cx="430.5" cy="194.2" r="0.7"/>
		<circle class="st6" cx="413.8" cy="170.5" r="1.9"/>
		<circle class="st6" cx="403.2" cy="153.9" r="0.9"/>
		<circle class="st6" cx="381.4" cy="160.2" r="0.7"/>
		<circle class="st6" cx="380.7" cy="135.2" r="0.7"/>
		<circle class="st6" cx="392.6" cy="131.4" r="0.9"/>
		<circle class="st6" cx="401.1" cy="132.3" r="1"/>
		<circle class="st6" cx="363.7" cy="114.5" r="0.9"/>
		<circle class="st6" cx="343.1" cy="147.5" r="0.9"/>
		<circle class="st6" cx="358" cy="182.4" r="0.9"/>
		<circle class="st6" cx="358" cy="164.5" r="0.6"/>
		<circle class="st6" cx="352.7" cy="94.4" r="0.6"/>
		<circle class="st6" cx="334.2" cy="100.8" r="0.4"/>
		<circle class="st6" cx="316.7" cy="117.8" r="0.9"/>
		<circle class="st6" cx="290" cy="102.7" r="0.6"/>
		<circle class="st6" cx="285.2" cy="136.4" r="0.6"/>
		<circle class="st6" cx="283.9" cy="114.8" r="1.3"/>
		<circle class="st6" cx="319.7" cy="160.9" r="1.3"/>
		<circle class="st6" cx="265.7" cy="75.8" r="1.1"/>
		<circle class="st6" cx="249.5" cy="114.6" r="1.1"/>
		<circle class="st6" cx="282.4" cy="68.9" r="1"/>
		<circle class="st6" cx="224.6" cy="70.7" r="0.7"/>
		<circle class="st6" cx="205.5" cy="77.3" r="0.4"/>
		<circle class="st6" cx="246.9" cy="90.7" r="0.6"/>
		<circle class="st6" cx="306.2" cy="73.1" r="0.5"/>
		<circle class="st6" cx="249" cy="101.2" r="0.5"/>
		<circle class="st6" cx="320.9" cy="77.5" r="0.6"/>
		<circle class="st6" cx="282.2" cy="89.1" r="0.8"/>
		<circle class="st6" cx="270.5" cy="96.4" r="0.8"/>
		<circle class="st6" cx="217.3" cy="91" r="0.3"/>
		<path class="st6" d="M198.8,73.6c0,0-1.6,4.6-1.2,6.2c0.3,1.6,2,3.6,2.5,4.3s-0.4,1.2,2.7,2.1c3.1,0.9,3.7,1.3,3.7,1.3l-4.9,1.5
			c0,0-2-2.6-4-3.9c-2.1-1.3-2.6-2-2.8-3.8s-1.2-3,0-4.5C196,75.4,198.8,73.6,198.8,73.6z"/>
		<circle class="st6" cx="394.6" cy="158" r="0.2"/>
		<circle class="st6" cx="357.7" cy="119.6" r="0.3"/>
		<circle class="st6" cx="353.3" cy="125.4" r="0.2"/>
		<circle class="st6" cx="361" cy="141.2" r="0"/>
		<circle class="st6" cx="336.3" cy="79" r="0.2"/>
		<circle class="st6" cx="270.5" cy="65.2" r="0.2"/>
		<ellipse class="st6" cx="302.3" cy="332.6" rx="0.3" ry="0.6"/>
		<ellipse class="st6" cx="317.5" cy="324.4" rx="1.1" ry="0.5"/>
		<ellipse class="st6" cx="334.1" cy="315.9" rx="1.5" ry="0.5"/>
		<circle class="st6" cx="298.5" cy="301.2" r="0.5"/>
		<ellipse class="st6" cx="371.1" cy="328.5" rx="2.4" ry="0.7"/>
		<ellipse class="st6" cx="400.4" cy="308.2" rx="0.8" ry="0.3"/>
		<ellipse class="st6" cx="386" cy="304.6" rx="0.8" ry="0.2"/>
		<circle class="st6" cx="368.9" cy="303.4" r="0.2"/>
		<ellipse class="st6" cx="322.6" cy="295.7" rx="4.9" ry="0.9"/>
		<ellipse class="st6" cx="272.7" cy="304.2" rx="2" ry="0.7"/>
		<ellipse class="st6" cx="203.1" cy="298.7" rx="3.5" ry="1"/>
		<ellipse class="st6" cx="267.4" cy="218.2" rx="2.9" ry="0.6"/>
		<path class="st6" d="M297,196.7c0,0.8,1.2,0,2.7,0c1.5,0,4,2,4,1.1s-2.5-2.6-4-2.6C298.2,195.2,297,195.9,297,196.7z"/>
		<path class="st6" d="M330.8,218.7c0,0-1.7-1.8-4.4-3.5c-2.8-1.7-5.6-3.3-7.5-2.4c-1.9,0.9-5.5,2.8-6.1,3.4
			c-0.5,0.5-3.2,5.9,3.5,5.3c6.7-0.6,6.3-1.9,9.7-2.2c3.4-0.4,2.2,0,4.3,0.7s7,3.9,4.6,2S330.8,218.7,330.8,218.7z"/>
		<ellipse class="st6" cx="257" cy="227.9" rx="0.8" ry="0"/>
		<circle class="st6" cx="246.9" cy="209.1" r="1.5"/>
		<ellipse class="st6" cx="270.1" cy="251.7" rx="1.2" ry="0"/>
		<circle class="st6" cx="249.1" cy="254.3" r="0.7"/>
		<ellipse class="st6" cx="229.4" cy="246.9" rx="1.1" ry="0.6"/>
		<ellipse class="st6" cx="240.1" cy="232.5" rx="2" ry="0.6"/>
		<ellipse class="st6" cx="296.1" cy="240.5" rx="1.5" ry="0.6"/>
		<ellipse class="st6" cx="260.9" cy="180.2" rx="1.4" ry="0.7"/>
		<rect x="212.4" y="154" transform="matrix(0.7071 -0.7071 0.7071 0.7071 -46.6899 195.263)" class="st6" width="0" height="0"/>
		<ellipse class="st6" cx="341.8" cy="265.4" rx="1.6" ry="1"/>
		<ellipse class="st6" cx="337.1" cy="250.1" rx="0.7" ry="0"/>
		<circle class="st6" cx="333.4" cy="241.7" r="0.2"/>
		<ellipse class="st6" cx="409.4" cy="285.6" rx="1.8" ry="0.2"/>
		<path class="st15" d="M183.9,124.5c2.2-0.6,3-0.7,4.2,0c1.2,0.7,2.7,2.2,3,2.7s-2.4,1.5,0.4,2.5s5.4-0.2,4.1,1.3
			c-1.3,1.6-2.2,1.9-4.5,1.9s-2.3-0.9-3.5-1.1c-1.2-0.2-1.7-1.8-3.8-2.2c-2.1-0.4-3.7-0.6-3-1.2s0.6-0.3,1.5-1.3
			c0.9-1,1.3-1.5,1.2-1.9c-0.1-0.4,0.1-0.8,0.1-0.8"/>
		<path class="st15" d="M133.3,218c-0.7,0.9-2.2,1.2-1.5,2.5c0.8,1.3,1.6,3.5,2.2,4.3c0.6,0.7,2.8,2.8,5.8,3.7
			c3,1,10.7,4.7,12.3,3.6s3.6-2,1.8-3.2c-1.8-1.2-5.4-2-5.4-2l-7.6-2.6c0,0-3.1-5.7-4.9-6.3C134.2,217.4,133.3,218,133.3,218z"/>
		<path class="st15" d="M264.2,133.7c1.4-1,3.6-4.3,1.6-4.9c-2-0.7-1.9-0.8-3.6-0.7c-1.7,0.1-2.2-2-5.7-4c-3.4-2.1-4.5-2.2-6.2-2.6
			c-1.6-0.4-5.7-2.8-6-1.9c-0.3,0.9,2,2.6,4.8,5.2c2.8,2.7,0.7,0.3,3.9,3.3c3.2,3,1.3,2,4.8,3.5
			C261.2,133.2,264.2,133.7,264.2,133.7z"/>
		<circle class="st6" cx="164.3" cy="357.4" r="1"/>
		<circle class="st12" cx="178.6" cy="361.9" r="0.5"/>
		<circle class="st6" cx="175.3" cy="369.7" r="0.5"/>
		<path class="st12" d="M69.6,276.9c0,0-0.2-3.6-1.3-6.8s-2.7-5-2.3-6.6c0.4-1.6-0.8-1.8,1.8-1.8c2.6,0.1,2.3,1.9,4.6-0.3
			c2.2-2.2,2.7-1.7,2.8-1.5c0.1,0.2,0.7,1.4,1.1,1.5c0.4,0.1-1.1,1.3-3.6,2c-2.5,0.7-4.3-0.2-4.1,1.1c0.2,1.3,1.3,1,1.5,2.6
			c0.2,1.6-0.2,3,0.1,3.8S69.6,276.9,69.6,276.9z"/>
		<path class="st12" d="M422.3,146.2c0,0-3.5-9.2-5.6-12.9c-2.1-3.7-14.7-24-20.7-27.7c-6-3.6-8.7-8.5-11.2-10
			c-2.5-1.5,4.3,5.9,9.7,11.5s11.5,14.2,14,18.4c2.5,4.2,5.6,10,7.4,13.5s4.8,19,6.3,20.5c1.5,1.5,18.4,42.8,18.8,45.9
			c0.4,3.1,3.8,9.8,3.8,9.8s-1.5-13.1-3.1-17.9c-1.6-4.9-6.2-17.4-8.1-21.9s-7-18.3-7.6-20.1c-0.6-1.8,1.4,2.5-2.1-3.8
			C420.6,145.3,422.3,146.2,422.3,146.2"/>
		<path class="st6" d="M226.4,168.5c3.9,2.4,3.1-1.9,9.9,3.1c6.8,5,7,7.1,10.5,6s5-4.2,1.5-5.8s-6.1-2.2-7.7-5.3
			c-1.6-3.1-5.5-7.7-9.3-5.6c-3.7,2.1-6.7,0.5-6.9,4.5C224.3,169.4,226.4,168.5,226.4,168.5z"/>
		<path class="st8" d="M230.9,165.7c2.8-0.9,11.3,4.9,10.8,3.1c-0.4-1.4-6.1-6.1-6.1-6.1s-1.5-2.6-3.5-0.9c-1.9,1.7,0.1-0.4-2.9,1.1
			c-3,1.5-4.7,2.3-4.7,2.3s-0.1,1.5,0.6,2.1S230.9,165.7,230.9,165.7z"/>
		<path class="st9" d="M232.2,162.6c1.7-1,6.8,3,5.1,2.1c-4.8-2.7-10.2,0.1-10.8,0.5c-0.6,0.4,0.8-1.3,1.2-1s1-0.7,1.8-0.7
			C230.3,163.6,232.2,162.6,232.2,162.6z"/>
		<path class="st6" d="M129.8,341c-3.9,6.7-3.5,9.7-0.7,12.1c2.8,2.4,0.2,4.1,5.6,5.4c5.4,1.2,2.2-3.5,7.6-2.6
			c5.4,0.9,8.8,1.9,7.3-1.3s-0.5-5.3-4.6-6c-4.1-0.8-7.7-1.7-9.5-3.8C133.7,342.5,131,339,129.8,341z"/>
		<path class="st8" d="M135.8,355.7c3.1-0.7,2.1-3.4,6.3-1.5c4.2,1.9,5.1,2.2,5.5,1.6c0.4-0.6,0.9-0.7,0.4-2.3s0.6-2.8-1-3.3
			c-1.5-0.6-2.1-0.9-3.3-1.1c-1.1-0.3-1.9,0-0.6,1.7c1.2,1.7,4,1.6,1.1,2.2s-4.5-0.3-5.6-0.1c-1.1,0.2-1.2-0.7-2.4,1.2
			c-1.1,1.9-1.7,2.3-1.7,2.3L135.8,355.7z"/>
		<path class="st9" d="M145.7,353.3c-0.3,0.3-0.6,0.5-2,0.5s-0.7,0.3-2.8-0.1c-2.1-0.4-3.1-1-4-0.8c-0.9,0.2-1.2,0.9,0.2,1
			c1.4,0.1,2.4,0.1,3.4,0.3c1,0.3,0.2,0.3,2,0.4c1.8,0.1,2.6-0.4,3.1-0.7C146.2,353.5,145.7,353.3,145.7,353.3z"/>
		<path class="st12" d="M131.6,100.7c0,0-4.2,10-6.7,15.4c-2.6,5.4-3.1,5.3-3.9,10.5c-0.8,5.1-4.5,8.4-3.9,12.5
			c0.5,3.3,0.9,11.5,0.7,17.4c0,1.5-0.1,2.8-0.2,3.9c-0.6,5.3-1.3,5.3-1.6,10c-0.4,4.7-1.3,3.8,0,7.5c1.3,3.7-0.1,6.2,0.2,9.5
			c0.3,3.4-0.8,8.7,1.2,10.5c2.1,1.8,1.8,4.9,1.8,4.9s-0.6,3.7-0.4,5.3c0.3,1.6,1.2,0.6,2.1,5.1s1.8,17.7,4,19.3
			c2.3,1.6,4,2.1,3.8,5.7s2,1.2,2.8,6.2c0.8,5,1.5,6.6,3.4,9.6c1.8,3,11.8,14.2,11.8,14.2s-7.8-13.4-9.4-16.5
			c-1.6-3.1,0.5-1.7-2.4-7.3c-2.9-5.7-3.1-4.4-3.9-8.1c-0.8-3.6-1-4.8-3.5-7.5s-3.1-1.5-3.6-6.4s-0.9-9.9-1.6-11.9s-2.1-1.7-1.4-6.6
			c0.7-4.9-0.2-6.1,0-9.7s-3.3,3.7-3.3-2.9c0-6.7,0.4-9.6,0.7-13.5c0.2-3.9,0.2-3.1,0.2-8.8c0-5.7,1.1-16.7,1.1-24.2
			s-2.7-6.2,1.3-11.9s4.5-5.9,3.6-8.5c-0.9-2.6-0.9-2.1,2-6.7c2.9-4.6,4.7-4.9,4.4-6.9c-0.4-2,1.5-13.6,5-22.6s0.8-5.2,0.8-5.2
			s-1.9,5.6-3.4,9.9C131.9,97.4,131.6,100.7,131.6,100.7z"/>
		<path class="st12" d="M292.9,419.8c-0.6,0.3-20.1,2.8-24.3,2.2c-4.2-0.6-5.2,0.7-14.1-0.4c-8.9-1.2-4.5-0.7-14.7-1.8
			c-10.2-1.1-28.2-6.7-28.2-6.7l-22.9-9.5c0,0,5.9,5.3,8.8,5.7s6.8,4.6,11.8,6.2c5,1.5,10.3,3.1,12.9,3.8s10.2,3.1,11.9,4.2
			c1.6,1,5.2,0.5,7.7,1.1c2.5,0.6,0.5-2,3.1,0s2.1,1.3,4.7,1.7c2.6,0.4,1.6-1.1,4.9,0c3.2,1.1,1.7,1.1,6.1,1.3
			c4.4,0.2,1.6-0.8,6.5-0.8s0.4-1.8,8-1.6c7.6,0.1,7.4-0.8,10.2-0.1c2.8,0.6,5.8-2.4,6.8-2.4c1,0,0.4-0.1,0.9-0.6
			S292.9,419.8,292.9,419.8z"/>
		<path class="st12" d="M433.3,282.5c0.3-1.2-8.4-6.3-18.4-11.1c-10-4.8-11.5-8.7-18.5-13.4c-7-4.7-12.7-6.3-17.1-7.9
			c-4.4-1.7-42.8-19.9-45.8-23.8c-3-3.9-12.7-3.8-12.7-3.8s-4.9,0.7-2.2,2.6c2.7,1.9-4.6,7.2,5.1,14.8c9.7,7.6,46.3,29,56.2,31.5
			c9.9,2.5,13.9,2,20.6,8.7s15,1.7,18.9,3.5c3.9,1.8,9.7,0.6,10.8,0C431.2,283.1,433.3,282.5,433.3,282.5z"/>
		<path class="st12" d="M313.1,210.6c-3.8-2.5-3.8-5-11.4-6.8c-7.6-1.8-11.8-0.3-17.8-7.8c-6-7.5,0.4-13.3-5-18.1
			c-5.5-4.8-10.9-8.8-16.6-12.6c-5.7-3.9-14.5-8.4-13.2-4.1s12.7,7.4,17.5,11.2c4.8,3.8,6.9,0.3,7.5,8.7c0.7,8.4-3.2,13.1,2.6,18.7
			c5.8,5.6,4.3,7,10.9,9.3s2.9,4.1,9.9,4.6C304.6,214.1,313.1,210.6,313.1,210.6z"/>
		<path class="st12" d="M237.1,147.9c-10.8-4.2-18.6-16.5-30.7-22.4c-12.1-5.9-17-2.9-21.1-12.1c-4-9.2-1.6-14.2-2.9-17
			c-1.4-2.9-2.5-4.5-7.4-7.3s-10.9-7.1-16-12.2c-5.1-5.2-5.3-8.7-7.5-8c-2.2,0.8-3.1,2.1-3.1,5.7s1.3,6.6,5.6,8.5
			c4.3,1.9,7.1,3.1,10.2,5.2c3.1,2,10.5,4.1,12,8.9c1.6,4.8,0,5.7,1.6,11.2c1.6,5.5,0.7,5.8,4.7,9.4c4,3.7,14.8,11.5,24,19.1
			s7.8,7.2,13.5,11.4c5.6,4.3,1.8,1.9,9.4,4.7C236.9,155.8,251,153.3,237.1,147.9z"/>
		<ellipse class="st6" cx="339.9" cy="243.4" rx="1.6" ry="1"/>
		<path class="st6" d="M378.2,249.6c0,0.5-0.7,0-1.6,0s-1.6,0.5-1.6,0s0.7-1,1.6-1S378.2,249.1,378.2,249.6z"/>
		<path class="st12" d="M373.4,91.3c0,0,6.5,3.2-6-5.5s-13.2-11.4-19.8-11.2c-6.7,0.2-11.5-1.7-13-4c-1.5-2.3-1.8-2.6-8.5-4.5
			c-6.7-1.8-8.6-2.4-13-3.3c-4.4-0.9-4.6-1.2-11.4-2.2c-6.8-1-14-2.2-17.8-2.1c-2,0-3.4-0.2-4.9-0.5c-1.4-0.2-2.9-0.5-5.1-0.8
			c-4.7-0.5-4.5-2.6-9.3-1.3s-4.5,0-10,0c-5.6,0-7.4-1.4-12.9-0.5c-5.4,0.9-3.4-0.7-8.6,0.5s-3.8,1.9-7.7,1.9
			c-3.9,0-0.1-0.1-5.3,0.5c-5.2,0.6-4.7,1.7-10,1.5c-5.3-0.2-7.7-1-12.5,1.6c-4.7,2.6-30.6,12.9-30.6,12.9s37.1-11,43.6-12.3
			c6.5-1.3,2.3,0.2,8.9-0.6c6.6-0.7,5-1,9.5-1.2c4.5-0.2,10.3-2.1,12.7-2.4c2.4-0.3,2.1,2.3,8.6,1.8c6.5-0.5,4.5-0.8,14.2-1.1
			c9.8-0.3,20.8,1.2,26,3.5s8.4,1.1,18.3,2.5c9.9,1.3,14.8,5.8,17.7,6.8c2.9,1,9.6,0.4,11.2,2.2c1.6,1.7,8.5,3.5,11.7,5.2
			c3.1,1.7,6.9,0.6,8.5,2.6C359.5,83.4,373.4,91.3,373.4,91.3z"/>
	</g>
</g>
</svg>
