<svg xmlns="http://www.w3.org/2000/svg" viewBox="0 0 444.35 448.13"><defs><style>.cls-1,.cls-4{fill:#cead84;}.cls-1,.cls-3{opacity:0.31;}.cls-2{fill:#e7e0b6;stroke-width:2px;}.cls-14,.cls-15,.cls-2{stroke:#b77c55;stroke-linecap:round;stroke-linejoin:round;}.cls-3{fill:#d8b78b;}.cls-15,.cls-5{fill:#f3ebc8;}.cls-6{fill:#b77c55;}.cls-7{fill:#e3c292;}.cls-14,.cls-8{fill:#f7f1d7;}.cls-9{fill:#d2a16c;}.cls-10{fill:#af784b;}.cls-11{fill:#efd9bd;}.cls-12{fill:#fffae3;}.cls-13{fill:#fff6cf;}.cls-16{fill:#fff8e3;}</style></defs><title>bread</title><g id="Layer_2" data-name="Layer 2"><path class="cls-1" d="M442.5,334.26s-9.67,30.91-18.67,41.58-27,33.3-46.67,44.82-39.33,25.18-49.83,27.85-49.4,16.67-63.78,17.67-55.05-1.8-66.72-3.9-44.67-18.77-55-26.1-47-25.67-55.33-43.33-19-19-37.51-64-18.8-49.51-19.81-54.76-7.85-32,9.74-75.26S442.5,334.26,442.5,334.26Z" transform="translate(-21.15 -29.6)"/><path class="cls-2" d="M431,332.67s-17.67,29-24,32.33-23.33,24.67-36.33,32.33S327.67,423.67,303,429s-58,6.33-64.33,6.33-56-7.67-69.33-16S116,388.67,104.67,377.67,79.68,348,75,339.33s-5-5.67-10.68-14.67-21.67-61-14.33-86.33.67-18,2-28.67S61.35,169,75,149.33,103.5,62,193.5,44s106-9.5,166.5,15c0,0,61.25,42.25,75,78.5,0,0,.25,10.75,3.75,14.75s16,26.5,18.25,52.25,3.5,47.25,0,55.5-2.5,10.75-3.25,15S453,298.58,431,332.67Z" transform="translate(-21.15 -29.6)"/><path class="cls-3" d="M438.18,258.34a31.15,31.15,0,0,1,18.37,32.57c-5.45,41.46-19.9,114.64-79.72,145.91-74,38.68-51.59,15.8-102.44,32.8s-88,6.76-133.65-25.62-65.84-22.16-90-87.64c-15.39-41.77-23.49-62.41-27.34-71.88A31.09,31.09,0,0,1,21.37,269c2.79-23,12-87.14,29.41-105.21,10-10.39,39.4-10.54,98.22-9.92C197.41,154.39,376.31,231.15,438.18,258.34Z" transform="translate(-21.15 -29.6)"/><path class="cls-3" d="M438.18,251.84a31.15,31.15,0,0,1,18.37,32.57c-5.45,41.46-19.9,114.64-79.72,145.91-74,38.68-51.59,15.8-102.44,32.8s-88,6.76-133.65-25.62-65.84-22.16-90-87.64C35.4,308.08,27.29,287.44,23.44,278a31.09,31.09,0,0,1-2.07-15.46c2.79-23,12-87.14,29.41-105.21,10-10.39,39.4-10.54,98.22-9.92C197.41,147.89,376.31,224.65,438.18,251.84Z" transform="translate(-21.15 -29.6)"/><path class="cls-4" d="M434.33,342.42s-7,18-13.5,27-11.75,18.25-18.25,23.5-26,23.59-40.25,30.42-50.25,26.33-62,26.08-17,5.52-32.75,7.13-25.25,6.37-37.5,2.12-25.5-1.88-34.25-4.07-36.5-13.43-43.75-20.43-11-4.41-19.25-10.83-11-7.08-15.75-12-15-8.92-19-15.67-13.25-18.21-17.5-23.48-8-6.77-12-17-14.77-27.25-14.77-27.25S41.73,296.11,40,292.39,35.08,273,35.08,273Z" transform="translate(-21.15 -29.6)"/><path class="cls-5" d="M343.34,426.37c-4.5,2.33-21.68,12-25.51,13.8s-10.67,3.33-18,4.33-15,2.67-20.17,3.33-6.33,3.33-13.5,5.17-15.33,3.67-29.67,1.17-19-3-27.17-3.67-13-.67-20-3.5a152.19,152.19,0,0,1-18.5-8.5c-7-3.83-11.5-7.17-23.33-14s-11.83-5.67-15.83-10-6.17-6.83-12.17-10.5-10.5-6.17-15.33-13.17-15-14.5-18-19-4.83-8-6.33-9-6-2.5-5.5-6.5.68-5.17.68-5.17S65.33,338,61.67,331.5s-6.93-10.89-10.48-22.12S343.34,426.37,343.34,426.37Z" transform="translate(-21.15 -29.6)"/><path class="cls-6" d="M343.54,426.36a8.6,8.6,0,0,1-1.18.79l-1.07.61L339.17,429l-4.26,2.47-8.54,4.91c-2.87,1.62-5.65,3.28-8.67,4.79a47.88,47.88,0,0,1-9.57,3c-3.23.72-6.53,1.24-9.75,1.73s-6.43,1.13-9.65,1.76l-4.85.92-2.45.42c-.81.14-1.69.25-2.38.38a14.19,14.19,0,0,0-4.17,1.64,40.19,40.19,0,0,1-4.55,2.26,35.72,35.72,0,0,1-4.88,1.53c-1.6.41-3.23.8-4.88,1.13a58.55,58.55,0,0,1-10,1.12,68.11,68.11,0,0,1-10.06-.54c-3.35-.41-6.57-1-9.79-1.54-6.47-1.07-12.88-2-19.38-2.47-3.26-.3-6.49-.49-9.83-.81a43.52,43.52,0,0,1-10-2c-1.63-.55-3.2-1.21-4.7-1.83l-4.56-1.93c-3-1.31-6.06-2.74-9-4.32-5.89-3.08-11.41-6.79-16.91-10.28s-11.12-6.9-16.85-10c-1.43-.8-2.88-1.53-4.35-2.45a18.21,18.21,0,0,1-3.87-3.4,70.34,70.34,0,0,0-6.78-7,67.41,67.41,0,0,0-8-5.48,46.75,46.75,0,0,1-8-6,35.52,35.52,0,0,1-3.33-3.74c-.52-.65-1-1.34-1.48-2s-.93-1.31-1.45-1.93a71.12,71.12,0,0,0-6.72-7.07c-2.37-2.26-4.82-4.43-7.15-6.8a24.24,24.24,0,0,1-3.2-3.89c-.91-1.37-1.79-2.77-2.67-4.15a20.74,20.74,0,0,0-2.81-3.77,16.8,16.8,0,0,0-2-1.16A12.24,12.24,0,0,1,75.53,361a5.92,5.92,0,0,1-1.64-2.25,5.6,5.6,0,0,1-.28-2.79l.59-4.91.15.61q-3.42-4.57-6.72-9.21c-2.19-3.11-4.37-6.22-6.37-9.51s-4-6.45-5.8-9.86a75.47,75.47,0,0,1-4.67-10.57c-.34-.92-.62-1.77-1-2.77a1.81,1.81,0,0,1,.64-2,2.24,2.24,0,0,1,.46-.26,3.45,3.45,0,0,1,1.2-.23,10.19,10.19,0,0,1,1.66.11,47.91,47.91,0,0,1,5.74,1.28c3.7,1,7.33,2.2,10.94,3.41,7.22,2.43,14.36,5,21.48,7.65,14.23,5.32,28.35,10.87,42.46,16.48l21.13,8.47,21.05,8.65c14,5.78,28,11.74,42,17.65L260.33,389c13.93,6,27.77,12.22,41.64,18.38q10.4,4.61,20.76,9.33l10.36,4.7,5.17,2.37,2.58,1.19,1.29.6.69.32A7.17,7.17,0,0,1,343.54,426.36Zm-.4,0c-.22,0-.42-.06-.58-.12s-.41-.16-.62-.24l-1.32-.53L338,424.42l-5.27-2.14L322.19,418l-21.05-8.63L259.06,392,175,357.26c-28-11.54-56-23.29-84.27-34.21-7.06-2.75-14.13-5.45-21.25-8-3.56-1.26-7.13-2.48-10.72-3.54a48.23,48.23,0,0,0-5.33-1.33,7.67,7.67,0,0,0-1.17-.12c-.15,0-.3,0-.2,0a.74.74,0,0,0,.15-.09.94.94,0,0,0,.28-.33,1,1,0,0,0,.09-.7c.25.8.54,1.77.83,2.63a72.88,72.88,0,0,0,4.25,10.33c1.68,3.31,3.67,6.59,5.49,9.9s4,6.39,6.08,9.52,4.28,6.24,6.48,9.32a.85.85,0,0,1,.15.61l-.69,4.85a3.94,3.94,0,0,0,.15,2.05,4.44,4.44,0,0,0,1.23,1.69,10.83,10.83,0,0,0,1.89,1.31,16.18,16.18,0,0,1,2.22,1.34,11.49,11.49,0,0,1,1.68,2c.48.69.92,1.39,1.36,2.09.88,1.39,1.73,2.78,2.63,4.15a22.81,22.81,0,0,0,3,3.72c2.26,2.33,4.7,4.53,7.06,6.82a84.74,84.74,0,0,1,6.83,7.19c.54.63,1,1.33,1.52,2s.94,1.32,1.44,1.95a34.24,34.24,0,0,0,3.23,3.59,42.41,42.41,0,0,0,7.81,5.71,68.71,68.71,0,0,1,8.3,5.47,74.7,74.7,0,0,1,7.12,6.93,16.28,16.28,0,0,0,3.57,3c1.34.79,2.84,1.5,4.29,2.26,5.87,3,11.58,6.28,17.24,9.64s11.16,6.86,17,9.72c2.9,1.45,5.84,2.78,8.84,4l4.54,1.84c1.54.61,3,1.21,4.49,1.68a42.45,42.45,0,0,0,9.26,1.79c3.2.3,6.51.49,9.79.78,6.58.52,13.17,1.51,19.64,2.62,3.25.54,6.48,1.18,9.64,1.59a70.07,70.07,0,0,0,9.57.63,55.3,55.3,0,0,0,9.51-.92c1.57-.29,3.14-.64,4.72-1a32.65,32.65,0,0,0,4.52-1.34,42.09,42.09,0,0,0,4.3-2,17,17,0,0,1,5-1.8c.92-.15,1.68-.22,2.49-.34l2.41-.35,4.84-.79c3.24-.54,6.49-1.08,9.76-1.52s6.47-.84,9.67-1.46a52.08,52.08,0,0,0,9.29-2.54c2.9-1.31,5.84-2.9,8.74-4.38l8.72-4.56,4.38-2.26,2.19-1.12,1.1-.55A5.09,5.09,0,0,1,343.14,426.37Z" transform="translate(-21.15 -29.6)"/><path class="cls-7" d="M329.5,428.5c-.75.25-8,9.25-16.5,11s-46,10.25-48.25,10.25-32.25.25-45.5-4.75-56.25-18-68-25.5S115.5,395,111,391.75s-26.89-30.41-28.83-33.08-18.38-24.18-20-30.93C59.07,315.36,123.5,359,123.5,359Z" transform="translate(-21.15 -29.6)"/><path class="cls-8" d="M464.58,264.5s-4.89,11.75-4.07,16-2.21,12.36-2.15,15.72-4.79,18.78-6.79,23-15.75,31.5-20.75,36.75-22.25,27.25-32,35-27.5,27.25-67.5,40.25-66.25,19.5-97.25,11.5-52.25-15-58.5-18.5-13-5.5-24.75-13.5-36-18.5-45.5-28.25A210.86,210.86,0,0,1,84.08,358c-9.25-12-35.25-51-39.75-66.25-1.74-5.9-8-14.3-10.75-25.12C30,252.25,30.1,226.21,38.83,198c14.25-46,31-73,34.5-77S100.67,74,159,48.33s119.67-14,119.67-14,134.33,4.1,163.49,117c0,0,21.35,45.6,22.43,73S464.58,264.5,464.58,264.5Z" transform="translate(-21.15 -29.6)"/><path class="cls-6" d="M464.78,264.55c-1,2.47-1.8,4.87-2.53,7.36-.36,1.24-.7,2.49-1,3.74a17.27,17.27,0,0,0-.45,3.77,7.64,7.64,0,0,0,.08.9l.14,1a16,16,0,0,1,0,2,33.16,33.16,0,0,1-.53,3.91c-.46,2.57-1.14,5.1-1.49,7.6,0,.31-.08.62-.08.92v.45l0,.53a16.47,16.47,0,0,1-.28,2c-.24,1.3-.54,2.57-.86,3.84-.64,2.53-1.36,5-2.12,7.52s-1.57,5-2.49,7.42-2.17,4.79-3.29,7.14q-3.44,7-7.11,13.87c-2.46,4.58-4.94,9.15-7.74,13.59L434,353.78l-1.16,1.63c-.43.53-.9,1.1-1.32,1.58s-.85.93-1.27,1.42c-1.69,1.94-3.34,3.93-5,5.92-3.32,4-6.65,8-10.06,11.91s-6.89,7.82-10.61,11.52c-.91.94-1.91,1.82-2.87,2.73l-3,2.55c-2,1.64-3.89,3.37-5.85,5.07-3.92,3.42-8,6.76-12.16,9.89s-8.58,6-13.06,8.73a174.75,174.75,0,0,1-28.32,13.52l-7.41,2.59-7.41,2.4L317,437.59c-2.5.74-5,1.52-7.48,2.23a223.24,223.24,0,0,1-30.57,6.9c-2.61.31-5.21.7-7.84.86-1.31.09-2.62.25-3.94.28l-3.95.13a104,104,0,0,1-15.77-.92l-2-.25c-.65-.09-1.3-.23-1.95-.34l-3.89-.7c-2.55-.6-5.16-1.16-7.65-1.84q-7.54-2-15-4.11c-10-2.87-20-5.85-29.78-9.34q-3.69-1.3-7.34-2.8c-1.21-.51-2.42-1-3.63-1.63l-3.45-1.84c-2.27-1.16-4.63-2.24-7-3.4s-4.67-2.37-6.94-3.68-4.5-2.69-6.68-4.14-4.26-2.89-6.48-4.23c-4.4-2.67-9-5.15-13.49-7.67s-9.08-5.05-13.52-7.77q-3.34-2-6.56-4.28c-1.07-.75-2.12-1.55-3.17-2.33s-2.07-1.63-3-2.58-1.88-1.84-2.78-2.77l-2.7-2.81c-1.79-1.88-3.57-3.78-5.3-5.73-3.46-3.9-6.68-8-9.85-12.11s-6.23-8.34-9.17-12.61-5.82-8.6-8.65-13c-5.65-8.71-11.18-17.51-16.19-26.63a118.85,118.85,0,0,1-6.78-14.1l-1.27-3.67c-.45-1.18-1-2.34-1.55-3.49-1.14-2.31-2.38-4.59-3.54-6.92a65.08,65.08,0,0,1-5.59-14.67,86.1,86.1,0,0,1-2-15.56,151.23,151.23,0,0,1,2.14-31.19c.9-5.14,2-10.25,3.32-15.3s2.94-10,4.52-15q4.84-14.84,10.84-29.28a282.73,282.73,0,0,1,13.54-28.2c1.28-2.28,2.6-4.54,4-6.77L70,122.75l1.15-1.65c.41-.54.94-1.18,1.23-1.59l.52-.7.54-.8c2.89-4.28,5.92-8.59,9.13-12.71a189.38,189.38,0,0,1,21.22-23.11,205.53,205.53,0,0,1,24.67-19.41l6.66-4.17c1.12-.67,2.2-1.43,3.36-2l3.44-1.89,3.44-1.89c1.15-.63,2.28-1.28,3.48-1.82L156,47.59c2.33-1.2,4.81-2.08,7.23-3.08L166.83,43c1.22-.48,2.42-1,3.68-1.39,5-1.62,9.92-3.41,15-4.63l3.8-1,1.9-.5,1.92-.4,7.69-1.61c2.57-.52,5.17-.85,7.75-1.28l3.88-.61,3.9-.43,3.9-.43,2-.21,2-.14,7.83-.53,7.84-.24c2.62,0,5.23,0,7.85,0a209.67,209.67,0,0,1,31.35,2.66l-.33,0a208,208,0,0,1,27,3.42,244.34,244.34,0,0,1,26.32,6.56,214,214,0,0,1,25.38,9.62,186.67,186.67,0,0,1,23.8,13.09l2.84,1.87,1.42.94,1.37,1,5.48,4,5.26,4.32,1.31,1.08c.43.37.84.77,1.26,1.15l2.5,2.31,2.5,2.31c.82.78,1.58,1.63,2.37,2.44,1.55,1.66,3.18,3.24,4.66,5l4.38,5.21c.75.85,1.42,1.77,2.09,2.69l2,2.74,2,2.74c.66.92,1.23,1.91,1.85,2.86,1.21,1.92,2.44,3.82,3.63,5.76l3.23,6c.52,1,1.11,2,1.56,3l1.39,3.1c3.93,8.18,6.57,16.88,9,25.58l-.08-.22q6,13.42,10.95,27.2a244.56,244.56,0,0,1,8.39,28.1c.55,2.38,1,4.81,1.43,7.21l.51,3.65.25,1.82.14,1.84.26,3.68.1,3.66.14,7.31C465.56,245,465.52,254.75,464.78,264.55Zm-.39-.09c.27-4.79.3-9.71.29-14.56s-.11-9.73-.28-14.6l-.28-7.3-.17-3.65-.33-3.61-.17-1.8-.29-1.79-.57-3.58c-.51-2.37-1-4.75-1.55-7.1a257.76,257.76,0,0,0-8.77-27.75c-3.41-9.09-7.17-18.08-11.25-26.86a1.24,1.24,0,0,1-.06-.16l0-.05c-2.52-8.53-5.22-17-9.19-25l-1.4-3c-.45-1-1.05-2-1.57-2.93l-3.21-5.83c-1.18-1.88-2.4-3.73-3.6-5.59-.61-.92-1.18-1.88-1.83-2.77l-2-2.66-2-2.66a33.16,33.16,0,0,0-2.06-2.61l-4.33-5c-1.47-1.66-3.07-3.2-4.6-4.8-.78-.79-1.53-1.61-2.34-2.36l-2.46-2.24L397.9,81.9c-.41-.37-.81-.75-1.24-1.11l-1.29-1-5.17-4.18-5.39-3.9-1.35-1-1.4-.9L379.27,68a182.91,182.91,0,0,0-23.43-12.61,223.74,223.74,0,0,0-25-9.28A240.24,240.24,0,0,0,305,39.74,204.52,204.52,0,0,0,278.6,36.5l-.31,0h0a210.79,210.79,0,0,0-30.62-2.58c-2.57,0-5.14,0-7.71,0l-7.71.23-7.69.51-1.92.13-1.92.21-3.83.42-3.83.42-3.81.58c-2.53.41-5.09.72-7.61,1.22l-7.55,1.54-1.89.38-1.86.49-3.72,1c-5,1.17-9.84,2.9-14.73,4.46-1.23.36-2.41.88-3.6,1.34l-3.57,1.42c-2.37,1-4.8,1.82-7.09,3l-7,3.29c-1.18.52-2.29,1.16-3.42,1.77l-3.39,1.84-3.39,1.84c-1.14.59-2.2,1.33-3.3,2L130.58,66a201.81,201.81,0,0,0-24.29,18.92,192.07,192.07,0,0,0-21,22.53c-3.2,4-6.18,8.19-9.13,12.48l-.56.81-.65.86c-.48.63-.78,1-1.16,1.48l-1.08,1.53-1.05,1.59c-1.38,2.15-2.7,4.35-4,6.58A295.1,295.1,0,0,0,54,160.5q-6.17,14.22-11.15,28.94c-1.63,4.91-3.28,9.82-4.67,14.77s-2.51,10-3.46,15.07A149.36,149.36,0,0,0,32.3,250a84.51,84.51,0,0,0,1.79,15.28,61.38,61.38,0,0,0,5.39,14.37c1.14,2.31,2.37,4.6,3.52,6.95.57,1.18,1.12,2.38,1.59,3.63L45.83,294a117.72,117.72,0,0,0,6.64,13.95c5,9.08,10.4,17.91,16,26.6,2.85,4.33,5.73,8.64,8.7,12.88s6,8.44,9.2,12.5,6.41,8.14,9.85,12c1.72,1.92,3.5,3.8,5.3,5.66l2.71,2.79c.9.93,1.81,1.86,2.74,2.71a75.23,75.23,0,0,0,12.56,8.85c4.44,2.63,9,5.09,13.56,7.55s9.16,4.87,13.67,7.52c2.25,1.31,4.49,2.78,6.61,4.18s4.36,2.72,6.6,4,4.53,2.41,6.86,3.51,4.7,2.15,7.06,3.33l3.44,1.78c1.13.54,2.3,1,3.49,1.51q3.57,1.41,7.24,2.65c9.77,3.32,19.74,6.16,29.72,8.88,5,1.34,10,2.68,15,4,1.26.34,2.5.62,3.75.9l3.74.84,3.77.65c.63.1,1.26.23,1.89.31l1.9.22a107.34,107.34,0,0,0,15.27.82l3.83-.13c1.28,0,2.55-.19,3.82-.28,2.55-.16,5.09-.54,7.63-.85,5.07-.76,10.12-1.69,15.13-2.88s10-2.47,15-3.85c2.49-.69,5-1.45,7.44-2.17l7.42-2.28,7.4-2.36,7.29-2.51A171.48,171.48,0,0,0,366,414c4.4-2.64,8.72-5.42,12.84-8.49s8.12-6.3,12-9.68c2-1.69,3.9-3.4,5.95-5.07l3-2.44c.93-.86,1.9-1.69,2.8-2.6,3.68-3.56,7.17-7.37,10.62-11.23s6.81-7.8,10.18-11.74c1.69-2,3.37-3.94,5.12-5.9.43-.49.89-1,1.34-1.46s.79-.92,1.19-1.39l1.11-1.52,1.06-1.59c2.79-4.3,5.33-8.82,7.83-13.35s4.91-9.12,7.3-13.71c1.16-2.31,2.44-4.59,3.36-6.92s1.79-4.83,2.61-7.28,1.57-4.92,2.25-7.41c.34-1.24.66-2.49.92-3.74a15.5,15.5,0,0,0,.3-1.84l0-.44,0-.52c0-.35.07-.68.11-1,.42-2.63,1.14-5.11,1.65-7.64a32.28,32.28,0,0,0,.6-3.78,15.18,15.18,0,0,0,0-1.88l-.1-.93a8.37,8.37,0,0,1-.07-1,18,18,0,0,1,.58-3.93c.3-1.28.67-2.53,1.07-3.77C462.47,269.27,463.4,266.79,464.39,264.45Z" transform="translate(-21.15 -29.6)"/><path class="cls-7" d="M388.6,248.87c1.5,0,5.75,9,9.5-3.25s9-17.75,2-20.75-3.75,6.75-11.5,9.5-8,7.36-8,7.36l3,7.64Z" transform="translate(-21.15 -29.6)"/><path class="cls-9" d="M383.51,241.73c-.4-1.12,8.18-10,9.06-11.66s-.71-4.54,3.71-3.67,5.33-.21,5.83,2.17,1.75,2.46-.46,4-2.57,1.68-3,2.91.48,2.86-1,4.16-4.87,4.93-6.62,5.47S384.38,244.15,383.51,241.73Z" transform="translate(-21.15 -29.6)"/><path class="cls-10" d="M391,231.77l-1.09,3.06s1.59.38-1.29,2.69-2.94,4-1.25,2.81,1.19-.37,1.75-1.69.79-1.75.79-1.75a1.74,1.74,0,0,0,1.59-1.6c.31-1.59-.12-1.65.19-2.28s1.31-2,.63-1.81A6,6,0,0,0,391,231.77Z" transform="translate(-21.15 -29.6)"/><path class="cls-7" d="M439.15,323.68c-1.3,1.56-27.4,34.21-27.4,34.21s-2,2.59-21.5,12.19-77.42,23.18-77.42,23.18l-5.33-7.13,2,7.13S253,397,226,387.08s-42.5-14.69-60.75-29.2S142,335.58,135.19,329.42s-18.87-18.09-22-22.5-12.17-12.56-20-28.1-13.87-43.74-13.87-43.74-7-39.79-7-46.67-2.5-8.91-1-22.67,1.7-24.17,6.5-31.83,4-17.06,9.37-22.44S439.15,323.68,439.15,323.68Z" transform="translate(-21.15 -29.6)"/><path class="cls-5" d="M456.43,302.16S424.17,340.5,404.5,352.5s-52.31,29.83-60.4,29.5-28.6,3.83-32.76,3.17c0,0,.78-1.38-1-3.13-1-1-3-2.59-3.45-3.2-1.17-1.67-9.08-5.83-9.08-5.83s5.67,6.83,6,10,2.08,3.25,1.08,2.92S259.17,389,227.5,377s-55.67-19.5-76-37.33-38-32.42-39.5-38.92-3.25-11-7-14.75-15.25-23-18.25-43.25-9.75-47-11.25-59,.75-33.5,2.5-40.25,1-7.25,2.5-10.75,4.25-17.75,11.12-32,42.54-62.92,42.54-62.92L272,191.41,448.07,308.73" transform="translate(-21.15 -29.6)"/><path class="cls-6" d="M456.58,302.28c-9.19,11.13-18.84,21.88-29.05,32.11a181.36,181.36,0,0,1-16.14,14.54c-1.43,1.12-2.91,2.19-4.42,3.23s-3.08,2-4.62,2.91q-4.62,2.83-9.3,5.56-9.35,5.47-18.92,10.59c-6.4,3.38-12.84,6.68-19.6,9.46-1.7.68-3.42,1.33-5.21,1.88a27.42,27.42,0,0,1-2.77.71,14.83,14.83,0,0,1-1.5.22c-.27,0-.53,0-.82,0h-.68a86.26,86.26,0,0,0-10.55.87c-3.56.45-7.12,1-10.7,1.47-1.79.24-3.59.49-5.41.69-.91.1-1.83.19-2.76.25a15.79,15.79,0,0,1-3.06,0l-1.17-2.42-.06.11h0v0a.6.6,0,0,0,0-.15,1.47,1.47,0,0,0-.22-.49,3.59,3.59,0,0,0-.52-.6l-.83-.75c-.59-.52-1.19-1-1.82-1.6-.16-.15-.32-.29-.49-.47l-.27-.3-.17-.21-.06-.07a4.36,4.36,0,0,0-.59-.53,38,38,0,0,0-3.8-2.47c-1.34-.79-2.73-1.55-4.09-2.28l2.08-2.56a52.88,52.88,0,0,1,4.86,6.88,17.64,17.64,0,0,1,1,2,9.09,9.09,0,0,1,.4,1.18,5.77,5.77,0,0,1,.14.7l.06.45a3.49,3.49,0,0,0,.42,1.27,1.08,1.08,0,0,0,.12.16l0,0,0,0c-.12,1.54.45-3.46-1.76,3,.15.08.06,0,0,0a1,1,0,0,0,.26.06h-.43c-5.35.17-10.86.32-16.29.27a242.2,242.2,0,0,1-32.65-2.32,152.92,152.92,0,0,1-16.12-3.18c-2.66-.69-5.3-1.44-7.92-2.31s-5.18-1.88-7.7-2.83c-10.1-3.9-20.28-7.66-30.33-11.85q-7.54-3.12-14.88-6.78A134.69,134.69,0,0,1,164,350.47a116.54,116.54,0,0,1-13-9.94l-12.17-10.79c-4-3.61-8.12-7.19-12.12-10.87a137.74,137.74,0,0,1-11.52-11.6,30.83,30.83,0,0,1-2.48-3.33,13.43,13.43,0,0,1-1-1.9,7.29,7.29,0,0,1-.36-1.06l-.24-1a40.87,40.87,0,0,0-2.47-7.59,21.46,21.46,0,0,0-2-3.42,17.42,17.42,0,0,0-1.22-1.55c-.43-.51-.89-.93-1.36-1.49a46.79,46.79,0,0,1-4.65-6.81,110,110,0,0,1-12.2-30.22c-.31-1.33-.6-2.66-.82-4s-.47-2.69-.67-4c-.42-2.67-.89-5.33-1.38-8q-1.48-8-3.18-15.93l-3.43-15.9c-1.11-5.31-2.27-10.61-3.08-16A93.88,93.88,0,0,1,74,168.62q.25-8.18,1.22-16.31c.33-2.72.69-5.41,1.28-8.15a71.62,71.62,0,0,0,1.55-7.89,16.68,16.68,0,0,1,1.2-4.19c.42-1.11.78-2.45,1.14-3.74.71-2.6,1.41-5.24,2.18-7.86A146,146,0,0,1,88,105a82.42,82.42,0,0,1,3.52-7.5c1.32-2.43,2.74-4.76,4.17-7.09C107.32,72,119.94,54.33,132.64,36.71a1.88,1.88,0,0,1,2.92-.17l0,0,34.56,38.29,34.51,38.33,34.42,38.42,34.33,38.5-.37-.32,43.88,29.56q21.94,14.77,43.83,29.62l43.77,29.71,43.67,29.87a.2.2,0,0,1-.22.33L403.57,280.1l-44.28-28.95q-22.16-14.45-44.22-29L270.89,193a1.86,1.86,0,0,1-.35-.3l0,0L236,154.41,201.48,116,167.09,77.59,132.76,39.1l2.94-.15q-9.61,13.08-19,26.36C110.48,74.16,104.27,83,98.48,92.13,97,94.4,95.63,96.7,94.33,99a79.37,79.37,0,0,0-3.46,7.18,151.43,151.43,0,0,0-5.46,15.13c-.8,2.57-1.53,5.16-2.29,7.78-.39,1.32-.74,2.6-1.3,4a13.83,13.83,0,0,0-1.09,3.58c-.21,1.3-.44,2.71-.74,4.06s-.68,2.73-1,4c-.59,2.56-1,5.23-1.36,7.89-.71,5.33-1.21,10.71-1.45,16.09a91.92,91.92,0,0,0,.42,16.05c.72,5.32,1.81,10.63,2.85,15.94l3.22,15.94c1.06,5.32,2.13,10.64,3.09,16,.48,2.67.94,5.35,1.35,8q.3,2,.65,4c.2,1.33.49,2.64.79,4a107.55,107.55,0,0,0,11.93,29.91,45.87,45.87,0,0,0,4.54,6.58c.4.47.94,1,1.39,1.5a18.69,18.69,0,0,1,1.31,1.64,22.77,22.77,0,0,1,2.11,3.61,42.16,42.16,0,0,1,2.61,7.82l.24,1a5.94,5.94,0,0,0,.3.86,12.08,12.08,0,0,0,.9,1.69,29.49,29.49,0,0,0,2.39,3.16,136.53,136.53,0,0,0,11.46,11.38c4,3.64,8.09,7.19,12.2,10.72L152.29,339a114.43,114.43,0,0,0,13,9.54,132.9,132.9,0,0,0,14.12,7.77q7.28,3.5,14.82,6.47c10,4,20.25,7.59,30.44,11.34,2.56.94,5.06,1.91,7.59,2.71s5.11,1.53,7.71,2.18c5.19,1.28,10.48,2.23,15.79,3a252.29,252.29,0,0,0,32.18,2.28c5.41.08,10.74,0,16.22-.16h.6l.24,0a2.53,2.53,0,0,1,.51.12,3.17,3.17,0,0,1,.51.23c-2.11,6.49-1.74,1.37-1.89,2.89l-.23-.18a3.55,3.55,0,0,1-.34-.33,4.51,4.51,0,0,1-.49-.66,6.81,6.81,0,0,1-.89-2.55l-.07-.56a2.39,2.39,0,0,0-.06-.29,5.74,5.74,0,0,0-.25-.74,14.34,14.34,0,0,0-.8-1.63,49.83,49.83,0,0,0-4.48-6.4l0,0a1.68,1.68,0,0,1,2.1-2.53c1.44.77,2.83,1.55,4.23,2.37a40.51,40.51,0,0,1,4.17,2.74,6.94,6.94,0,0,1,1.14,1.09l.14.18.13.14.37.36c.54.5,1.15,1,1.75,1.56.3.27.61.54.93.85a6.8,6.8,0,0,1,1,1.21,4.69,4.69,0,0,1,.68,1.7,3.85,3.85,0,0,1,0,1,3.49,3.49,0,0,1-.1.54c0,.09-.06.19-.09.28a2.65,2.65,0,0,1-.17.39l-1.17-2.42a13.74,13.74,0,0,0,2.34,0c.86-.05,1.74-.13,2.62-.22,1.76-.18,3.54-.41,5.32-.64,3.56-.47,7.14-1,10.74-1.41a88.44,88.44,0,0,1,11-.83h.67c.16,0,.35,0,.53,0a11.86,11.86,0,0,0,1.18-.17,24.46,24.46,0,0,0,2.47-.62c1.66-.5,3.32-1.11,5-1.76,6.61-2.63,13.08-5.79,19.47-9.05s12.72-6.71,19-10.25q4.7-2.66,9.35-5.4c1.55-.91,3.1-1.84,4.58-2.79s2.93-2,4.36-3.09a198.88,198.88,0,0,0,16.28-14.06c10.42-9.92,20.27-20.46,29.83-31.25a.2.2,0,0,1,.28,0A.2.2,0,0,1,456.58,302.28Z" transform="translate(-21.15 -29.6)"/><path class="cls-7" d="M436.5,313s-9,7.6-24,22.8-57,28.7-64,29.2-46.5.5-58-.5-36-5.5-48.5-9-24-12.17-34.5-16.34S174.5,325.5,169,323s-24-27-30.5-34S110,270.41,109,263.45,80.5,184,86.5,149s4.5-47.53,9-46.93S109,78,109,78s15.5,5.5,26.5,14.5S436.5,313,436.5,313Z" transform="translate(-21.15 -29.6)"/><path class="cls-8" d="M455.83,292.93,453,289.5s-8.67-1-8.67-.17S451,286,451,286s-13.17-12.5-14.83-12.83-4.17-1-4.17-1-16.17-13-19.5-13.5a58.45,58.45,0,0,1-9-2.67s-5.83-5.5-7.83-6-16-5.67-29.5-14.5-16.47-12-20.57-15-46.1-35.33-48.93-38.33-20.5-22.67-20.5-22.67-8.17-10-13-12.33a88.15,88.15,0,0,1-9.83-5.33c-2.33-1.5-6.33-6-10.33-8.83s-22-17.83-26.5-22-8.33-9.67-11.5-12.33-13.83-10-19-13.5S177.5,76.33,174.83,73,172,64.5,163.17,61s-13.83-10.5-15.83-12.17a12.05,12.05,0,0,1-4.17-5.67c-1-2.67-4.33-3.33-5.67-3.67s-2.33-3.67-3.33-1.67-1.67,2.83-3.5,2.67.17-2-2.83-.67c-3.73,1.69-13,23.17-16.33,31.5s-8.33,26.33-10,31.33-8,19.67-7,28.67,1.45,18.67-.11,24-2.56,13.67,2.44,46,20.33,59,33.67,71.67,19.33,16.33,21.33,21.67,28,28,48.33,36.33,25,18,45.67,19c0,0,30.82,12.2,61.17,11.33,30-.85,37.5,4.67,81.17-12.67,33.31-13.22,57.6-35.75,67.25-45.7A7.53,7.53,0,0,0,455.83,292.93Z" transform="translate(-21.15 -29.6)"/><path class="cls-6" d="M455.67,293.06l-2.83-3.43.14.07c-1.35-.15-2.71-.28-4.07-.38a23.43,23.43,0,0,0-4,0,1.07,1.07,0,0,0-.33.1.1.1,0,0,0,0-.1s-.09-.06-.05-.05l.17,0a5.72,5.72,0,0,0,.91-.36c.61-.29,1.21-.61,1.8-.94,1.19-.66,2.36-1.37,3.52-2.08l0,.34c-2.9-2.73-5.83-5.44-8.82-8.08-1.5-1.31-3-2.63-4.57-3.83a8.49,8.49,0,0,0-1.2-.79,5.18,5.18,0,0,0-.67-.16l-.73-.16c-1-.22-1.95-.46-2.92-.71l-.1,0h0c-4.35-3.41-8.75-6.77-13.3-9.88-1.14-.77-2.29-1.53-3.47-2.22a16.46,16.46,0,0,0-1.79-.93,3.77,3.77,0,0,0-.89-.28c-.35-.05-.7-.11-1-.19a62.52,62.52,0,0,1-8-2.4.47.47,0,0,1-.16-.09l0,0c-1.43-1.3-2.91-2.58-4.43-3.76a21.82,21.82,0,0,0-2.34-1.62,5.21,5.21,0,0,0-.58-.29l-.26-.09-.37-.1c-.5-.14-1-.3-1.43-.46-3.73-1.3-7.34-2.82-10.92-4.44a146.83,146.83,0,0,1-20.58-11.48c-3.28-2.15-6.53-4.36-9.69-6.71-1.58-1.17-3.14-2.39-4.67-3.59s-3-2.31-4.66-3.49c-6.28-4.67-12.54-9.35-18.76-14.1s-12.43-9.49-18.59-14.32c-3.08-2.43-6.14-4.83-9.19-7.39-.39-.33-.81-.73-1.21-1.1l-1-1.09-2-2.17-4-4.34-7.86-8.71-3.92-4.36-2-2.24c-.61-.73-1.24-1.46-1.87-2.19a68.38,68.38,0,0,0-8.08-8c-.36-.28-.72-.57-1.08-.8a9.21,9.21,0,0,0-1.07-.66c-.79-.42-1.74-.86-2.6-1.31-1.76-.89-3.52-1.82-5.25-2.84-.88-.52-1.69-1-2.59-1.62a25.08,25.08,0,0,1-2.43-2c-1.47-1.35-2.86-2.7-4.29-4-.71-.64-1.43-1.25-2.16-1.84-.36-.29-.73-.57-1.1-.85L241,133.5c-1.58-1.22-3.09-2.46-4.61-3.71-6-5-12-10-17.9-15.23-1.46-1.3-3-2.62-4.36-4.07s-2.69-2.93-4-4.43-2.51-3-3.8-4.41a24.94,24.94,0,0,0-2-2c-.7-.6-1.46-1.2-2.23-1.79-3.08-2.35-6.27-4.61-9.45-6.87l-4.79-3.36L185.48,86a27.34,27.34,0,0,1-2.39-1.88,53.49,53.49,0,0,1-7.73-9c-.57-.8-1.16-1.49-1.77-2.4s-1-1.78-1.45-2.64a16.93,16.93,0,0,0-3.2-4.59,16.56,16.56,0,0,0-4.62-3.13l-2.67-1.17A28.69,28.69,0,0,1,159,59.78a40.78,40.78,0,0,1-9.24-7.48l-2-2.14-.5-.5c-.17-.15-.31-.29-.52-.46-.38-.32-.76-.66-1.12-1a11.67,11.67,0,0,1-1.93-2.42A13.38,13.38,0,0,1,143,44.4c-.2-.45-.39-1-.55-1.33-.73-1.51-2.53-2.32-4.33-2.77l-.71-.18a2.18,2.18,0,0,1-.89-.5,9.43,9.43,0,0,1-1-1.18A5.08,5.08,0,0,0,135,38c-.13-.14-.26-.15-.13-.14s0,0-.09.17l-.33.62a8.41,8.41,0,0,1-.85,1.34,3,3,0,0,1-1.46,1,4.07,4.07,0,0,1-1.73.1,1.51,1.51,0,0,1-1-.58,1.56,1.56,0,0,1-.23-.54c0-.14-.07-.23,0-.14a.4.4,0,0,0,.18.13l-.22,0a5.51,5.51,0,0,0-.62.22,4,4,0,0,0-.57.27,3.16,3.16,0,0,0-.48.39,14.05,14.05,0,0,0-1.74,2.19,91,91,0,0,0-5.55,10.22c-1.69,3.51-3.28,7.07-4.82,10.66s-3.07,7.18-4.36,10.83c-2.56,7.35-4.73,14.86-6.92,22.37-.55,1.88-1.09,3.75-1.69,5.64s-1.32,3.71-2,5.55c-1.31,3.67-2.55,7.35-3.49,11.09a36.59,36.59,0,0,0-1.39,11.25c.42,3.82.84,7.8,1,11.73a52.59,52.59,0,0,1-.59,12c-.1.5-.25,1-.37,1.5s-.24.9-.34,1.36a26.84,26.84,0,0,0-.46,2.76,49.88,49.88,0,0,0-.28,5.69,193.75,193.75,0,0,0,2.11,23.15c.53,3.86,1.11,7.71,1.72,11.56.31,1.92.68,3.81,1,5.71s.83,3.78,1.23,5.66a148.91,148.91,0,0,0,7.11,22,135.94,135.94,0,0,0,10.52,20.57,88.27,88.27,0,0,0,14.34,17.85c2.83,2.66,5.71,5.27,8.63,7.85s5.9,5.09,8.74,8.09a17.94,17.94,0,0,1,3.68,5.42,16.06,16.06,0,0,0,3,4.11,105.43,105.43,0,0,0,8.36,7.87,187.11,187.11,0,0,0,18.52,13.91c3.23,2.11,6.52,4.1,9.9,5.92,1.69.89,3.39,1.77,5.13,2.54.86.41,1.73.75,2.62,1.14s1.84.77,2.75,1.18a108.24,108.24,0,0,1,10.62,5.49c3.43,2,6.72,4.11,10,6a46.81,46.81,0,0,0,10.29,4.44,50,50,0,0,0,11.09,1.74,2.16,2.16,0,0,1,.65.14h0c4.51,1.73,9.24,3.24,14,4.6s9.51,2.52,14.32,3.54a147.85,147.85,0,0,0,29.19,3.39l7.44-.07c2.5,0,5,0,7.49.08,5,.1,10,.33,14.87.37a103.67,103.67,0,0,0,29.1-3.84A253.47,253.47,0,0,0,391,346.58a177.35,177.35,0,0,0,26.42-13.5,208.1,208.1,0,0,0,24-17.49q5.67-4.82,11-10c1.69-1.79,3.83-3.32,4.51-5.69A7.37,7.37,0,0,0,455.67,293.06Zm.31-.25a7.79,7.79,0,0,1,1.43,7.21,7.92,7.92,0,0,1-2,3.24c-.87.88-1.73,1.78-2.63,2.65q-5.3,5.25-11,10.1A215,215,0,0,1,418,333.9a178.65,178.65,0,0,1-26.3,14.18l-3.44,1.48-3.47,1.38c-2.31.93-4.63,1.85-7,2.69s-4.67,1.74-7.05,2.51l-3.55,1.19-3.6,1.07a106.43,106.43,0,0,1-29.7,4.65c-5,.1-10-.08-14.94-.1-2.48,0-4.94,0-7.41,0l-7.47.17a151.55,151.55,0,0,1-30-3c-4.93-1-9.8-2.16-14.63-3.52s-9.59-2.85-14.37-4.66l.66.14a54.13,54.13,0,0,1-12-1.83,51.06,51.06,0,0,1-11.22-4.77c-3.5-1.95-6.79-4.06-10.12-6a103.94,103.94,0,0,0-10.2-5.28c-.87-.4-1.75-.76-2.63-1.14s-1.86-.77-2.76-1.2c-1.83-.82-3.61-1.74-5.37-2.67-3.51-1.89-6.9-4-10.22-6.12a180.89,180.89,0,0,1-18.9-14.32,109.22,109.22,0,0,1-8.65-8.25c-.68-.76-1.36-1.51-2-2.36a16,16,0,0,1-1-1.36,7.58,7.58,0,0,1-.46-.82l-.36-.79a14,14,0,0,0-2.88-4.22c-2.52-2.69-5.53-5.25-8.42-7.87s-5.82-5.27-8.66-8A92,92,0,0,1,115,256.37a136.69,136.69,0,0,1-10.66-21.2,152.34,152.34,0,0,1-7-22.63c-.4-1.94-.86-3.86-1.2-5.8s-.68-3.9-1-5.84c-.57-3.88-1.12-7.76-1.6-11.65a186.18,186.18,0,0,1-1.78-23.56,52.45,52.45,0,0,1,.4-6,29.42,29.42,0,0,1,.55-3c.11-.5.25-1,.39-1.48s.25-.88.35-1.34a50.52,50.52,0,0,0,.72-11.37c-.1-3.88-.42-7.7-.81-11.65A38.43,38.43,0,0,1,95,118.92c1-3.83,2.33-7.54,3.7-11.22.68-1.83,1.41-3.66,2-5.47s1.18-3.7,1.76-5.57c2.32-7.47,4.52-15,7.14-22.38,1.33-3.72,2.9-7.3,4.45-10.9s3.19-7.16,4.9-10.68a92,92,0,0,1,5.69-10.34A15.11,15.11,0,0,1,126.6,40a4.34,4.34,0,0,1,.67-.53,5,5,0,0,1,.75-.36,6.6,6.6,0,0,1,.76-.27,2.27,2.27,0,0,1,.5-.08,1.12,1.12,0,0,1,.39.05.88.88,0,0,1,.45.33,1.48,1.48,0,0,1,.21.55.44.44,0,0,0,0,.14s.06.06.23.09a2.82,2.82,0,0,0,1.17-.07c.67-.19,1.15-1,1.59-1.79l.35-.68a1.25,1.25,0,0,1,2.13-.31,6.15,6.15,0,0,1,.55.61,8.66,8.66,0,0,0,.89,1,.94.94,0,0,0,.37.22l.72.18a11.39,11.39,0,0,1,2.89,1.1,5.62,5.62,0,0,1,2.3,2.32c.26.55.38.93.58,1.37a12.06,12.06,0,0,0,.64,1.23,10.32,10.32,0,0,0,1.73,2.14c.33.33.69.64,1.06.94.18.14.38.34.58.51l.54.54,2,2.12a39.35,39.35,0,0,0,9,7.17,27.22,27.22,0,0,0,2.55,1.29L165,61A18.09,18.09,0,0,1,170,64.34a18.51,18.51,0,0,1,3.52,5c.47.87.91,1.72,1.42,2.47s1.17,1.51,1.75,2.28a51.87,51.87,0,0,0,7.61,8.62,25.39,25.39,0,0,0,2.25,1.7L189,86l4.87,3.28c3.23,2.21,6.46,4.42,9.64,6.75.8.59,1.59,1.18,2.38,1.84a27.2,27.2,0,0,1,2.21,2.13c1.38,1.46,2.64,2.95,3.93,4.41s2.57,2.9,3.93,4.24,2.8,2.58,4.28,3.86c5.93,5,12,10,18.08,14.86,1.52,1.21,3.06,2.42,4.59,3.57l1.15.84c.42.3.84.6,1.24.92.8.62,1.58,1.27,2.33,1.93,1.5,1.32,2.93,2.68,4.35,4a22.29,22.29,0,0,0,2.09,1.71c.72.48,1.59,1,2.39,1.46,1.65.95,3.35,1.83,5.08,2.69.88.44,1.7.81,2.65,1.3a12.59,12.59,0,0,1,1.43.86c.46.29.87.61,1.29.93A69.82,69.82,0,0,1,275.5,156c.66.75,1.3,1.5,1.94,2.27l1.91,2.13,3.92,4.35,7.85,8.71,3.92,4.35,2,2.16,1,1.05c.32.29.6.56,1,.87,2.92,2.48,6,4.93,9,7.36q9.15,7.31,18.37,14.55l18.44,14.47c1.51,1.16,3.14,2.39,4.64,3.65s3,2.47,4.54,3.66c3.06,2.38,6.22,4.64,9.43,6.85a143.83,143.83,0,0,0,20.08,11.8c3.5,1.68,7.07,3.27,10.69,4.62.45.17.91.33,1.35.47l.33.1a3.19,3.19,0,0,1,.43.16,6.43,6.43,0,0,1,.72.38,22.88,22.88,0,0,1,2.44,1.77c1.54,1.25,3,2.56,4.42,3.92l-.17-.11a61.7,61.7,0,0,0,7.82,2.53c.33.08.66.14,1,.2a4.8,4.8,0,0,1,1.09.35,17.2,17.2,0,0,1,1.88,1c1.2.72,2.35,1.5,3.49,2.29,4.54,3.19,8.9,6.6,13.22,10.08l-.1-.05c1,.26,1.92.51,2.89.74l.73.17a4.9,4.9,0,0,1,.78.2,8.75,8.75,0,0,1,1.29.85c1.6,1.22,3.09,2.55,4.59,3.87,3,2.66,5.9,5.37,8.8,8.12a.22.22,0,0,1,0,.31l0,0c-1.17.72-2.34,1.42-3.54,2.09-.6.33-1.2.66-1.83,1a6,6,0,0,1-1,.39.89.89,0,0,1-.33,0,.32.32,0,0,1-.23-.51,1,1,0,0,1,.61-.27,23.51,23.51,0,0,1,4.14,0c1.37.1,2.73.23,4.09.38a.21.21,0,0,1,.14.07Z" transform="translate(-21.15 -29.6)"/><circle class="cls-7" cx="414.1" cy="131.28"/></g><g id="Layer_3" data-name="Layer 3"><path class="cls-7" d="M241.34,291s-2.13,3.24-5.18,3.42-3-.65-4.53,0-5.73,2.77-3.79-.65,3.61-4.72,3.79-6.84-2.22-4.72,1.2-6.38,4.16-3.05,6.84-1.66,4.07.55,4.62,2.68a8.6,8.6,0,0,1-.46,6.09c-.92,1.86-1.76,2.32-1.76,2.88S241.34,291,241.34,291Z" transform="translate(-21.15 -29.6)"/><path class="cls-7" d="M143.63,185.69a8.29,8.29,0,0,1-3.12,1.5c-2.68.66-9.85,1.72-7.5,5.48a11.34,11.34,0,0,0,9,5.33l7-4.67,4.33-5.33s2-5.33-4.67-5.33C144.51,182.67,144.95,184.66,143.63,185.69Z" transform="translate(-21.15 -29.6)"/><path class="cls-7" d="M42.24,224.42a4.7,4.7,0,0,0-3.8,5.15,15.71,15.71,0,0,0,1.77,6.21,7.37,7.37,0,0,0,5.85,3.47h0a4.55,4.55,0,0,0,5.63-3.19l1-3.79A6.52,6.52,0,0,0,46.63,224H46.5A23.13,23.13,0,0,0,42.24,224.42Z" transform="translate(-21.15 -29.6)"/><path class="cls-7" d="M314.92,265.25s-1.08-.17-1.5,1.25-1.25,2.25,0,2.58.75,1.25,2.42.33,2-.83,2-2-.17-2.18-1.08-2.17Z" transform="translate(-21.15 -29.6)"/><path class="cls-7" d="M304.42,274.42c-.58.58-2.33,1-.58,3.33a8.18,8.18,0,0,0,5.17,3.42c1.17.08,1.92-2.75,4.92-1.25s6.25-3.92,3.92-4-6-.83-7.33-.83-1.17.83-2.42-.17-1-2.33-2-1.75A9,9,0,0,0,304.42,274.42Z" transform="translate(-21.15 -29.6)"/><path class="cls-7" d="M321.88,97.25a4.15,4.15,0,0,0,2.77-5.5,2.32,2.32,0,0,1-.15-1c1.58-14.24,4.67-21.5-.67-24.25s-6.08-4.5-6.08-4.5S321,69.75,321,72s-3.25.25-3.25,6,4.5,4.25,3.5,10.5-1.56,2.54-.5,8.5C320.82,97.37,321.26,97.4,321.88,97.25Z" transform="translate(-21.15 -29.6)"/><path class="cls-7" d="M459.26,247.85s-1.5,3.25,0-11,4.67-21.5-.67-24.25-6.08-4.5-6.08-4.5,3.25,7.75,3.25,10-2,2.75-2,8.5,3.25,1.75,2.25,8-4.25,3.75-.5,8.5Z" transform="translate(-21.15 -29.6)"/><path class="cls-7" d="M235.47,104.49s2.67,12.47,5.43,13.68a37.49,37.49,0,0,0,6.63,1.56c3.38.59,6.66,1,6.66,1s8.22-2.61,4-2.05-12.81-.6-15.6-3.56a26.53,26.53,0,0,1-4.31-6.25Z" transform="translate(-21.15 -29.6)"/><path class="cls-7" d="M323.64,348.85s8.63,9.38,11.63,9a37.49,37.49,0,0,0,6.51-2c3.21-1.21,6.25-2.51,6.25-2.51s5.75-6.42,2.38-3.79-11.78,1.31-15.69.18-5.75-.31-5.75-.31Z" transform="translate(-21.15 -29.6)"/><path class="cls-7" d="M142.91,73.83l-1.25,8A7,7,0,0,0,146,83.5c2.83.17,1.33-2.5,3.5-3.83a28.49,28.49,0,0,0,3.5-2.5s-1.17-4.83-4.83-4a10.15,10.15,0,0,1-5.83-.1" transform="translate(-21.15 -29.6)"/><path class="cls-7" d="M257.5,412.5c-.5,5.67-4.33,1.33-4.67,10.17s2,6.67,2.33,8.83-1.83,4.17,1.33,4.83,7.67-1,7.67-1l2.33-1.5s8.17-5,2.67-6.17-10.33,2.5-5.5-1.17,9.33-2.83,4.83-4.33a17,17,0,0,1-6.56-3.67l-.4-2.5s-.23-2.67-.47-4.67.76-4.33-1.07-3.17-2.67,1.5-2.67,2.33A17.55,17.55,0,0,0,257.5,412.5Z" transform="translate(-21.15 -29.6)"/><path class="cls-7" d="M252.8,414.81c1.57-1.81.39-2.19,2.26-5.81a10.66,10.66,0,0,0,1.19-6.69,6.52,6.52,0,0,1-.87,2.44c-.94,2-1,.81-2.57,3.81s.26,2.88-1.05,5.31-2.25.69-1.75,3.38S252.8,414.81,252.8,414.81Z" transform="translate(-21.15 -29.6)"/><path class="cls-7" d="M140.69,275.43c-1-2.19-1.82-1.28-4.3-4.52a10.66,10.66,0,0,0-5.55-3.92s.42.13,1.84,1.83S133,270,135,272.77s2.71,1,4.36,3.21-.33,2.33,2.31,3S140.69,275.43,140.69,275.43Z" transform="translate(-21.15 -29.6)"/><path class="cls-7" d="M240,410.56c3.73-.39,3.63-2.19,5.31-2s2.35-.69,2.33.88,0,2.44,0,2.44,1.86-.62,1.61.5-2.44,1.63-4.06,2.5-2.19-.5-2.75-1.62-.25-1.7-1.25-1.57S238.23,410.75,240,410.56Z" transform="translate(-21.15 -29.6)"/><path class="cls-9" d="M229.86,292.39c-.31-.87,3.56-7,4.24-8.25s-.55-3.53,2.88-2.85,4.14-.16,4.53,1.68,1.36,1.91-.36,3.14-3.53,1.2-3.85,2.15.22,1.28-1,2.28a5.94,5.94,0,0,1-3,1.36C232,292.32,230.54,294.26,229.86,292.39Z" transform="translate(-21.15 -29.6)"/><path class="cls-9" d="M42.25,238.06c-.74-.37-2-6.74-2.4-8s-2.56-1.95.09-3.65,2.59-2.69,4-1.74,2.07.39,1.73,2.26-1.54,3-1.16,3.8.94.69.8,2.08a5.35,5.35,0,0,1-1.07,2.73C43.62,236.66,43.86,238.85,42.25,238.06Z" transform="translate(-21.15 -29.6)"/><path class="cls-10" d="M237.19,284.27l-.84,2.38s1.23.29-1,2.09-2.28,3.11-1,2.18.92-.29,1.36-1.31.61-1.36.61-1.36a1.35,1.35,0,0,0,1.23-1.24c.24-1.24-.1-1.28.15-1.77s1-1.55.49-1.41A4.64,4.64,0,0,0,237.19,284.27Z" transform="translate(-21.15 -29.6)"/><path class="cls-10" d="M260.65,420.36l-1.09,3.06s1.59.38-1.29,2.69-2.94,4-1.25,2.81,1.19-.37,1.75-1.69.79-1.75.79-1.75a1.74,1.74,0,0,0,1.59-1.6c.31-1.59-.12-1.65.19-2.28s1.31-2,.63-1.81A6,6,0,0,0,260.65,420.36Z" transform="translate(-21.15 -29.6)"/><path class="cls-10" d="M235.35,283.15c1.55-.53,1.41-1.12,1.41-1.12l-.41-.34s-.45.07-1.24.9-.74.36-.74.36Z" transform="translate(-21.15 -29.6)"/><path class="cls-10" d="M42.41,229.44c2-.69,1.32-1.8,1.32-1.8l-.53-.44s-.58.1-1.6,1.16-.24,4.46-.24,4.46Z" transform="translate(-21.15 -29.6)"/><path class="cls-9" d="M142.54,195.46c3.17-1,5.25-2.12,6.21-3.92s2-3.54,2-3.54,1.29-4.71-.87-2.79-.71,1.38-4,3a37.81,37.81,0,0,1-7.42,2.58s-.17,1.71.71,2.33S142.54,195.46,142.54,195.46Z" transform="translate(-21.15 -29.6)"/><path class="cls-10" d="M142.46,192.42c1.92-1.08,4.5-3.29,2.67-2.08s-3.75.79-4.42,1.21-1.08.5-.67.88.13.38,1,.42A2.16,2.16,0,0,0,142.46,192.42Z" transform="translate(-21.15 -29.6)"/><path class="cls-7" d="M184.75,88.75l10.5,9L201,105.5s6.75,4.5,13.25,9.25A60.36,60.36,0,0,1,227,127a33.26,33.26,0,0,0,6.25,6l13.25,11-11-3.75s-.5.25-6.75-6-9.25-13-14.25-16-11-7.75-17.5-10-10-11-10.75-12-4.75-7.5-4.75-7.5Z" transform="translate(-21.15 -29.6)"/><path class="cls-7" d="M322.09,360.5c-.67,0-12.17,1.88-12.17,1.88L290.76,359l-22-4.67S248.26,353,240.93,350s-20.5-11.33-20.5-11.33L207.26,331l-13.33-3.53s-16.83-10.47-19-13.14,9.67,4,13.83,6.67,12.67,5.5,18.67,7.33,11,6.5,12.67,7.17,16.33,12.17,24.67,12.5,28.5,4.17,28.5,4.17,12.83,2.5,20.83,4.33,16.17,2.83,16.17,2.83l13.5-.17C324.43,359.17,322.09,360.5,322.09,360.5Z" transform="translate(-21.15 -29.6)"/><path class="cls-11" d="M213.17,36.83c7.58,0,20.75-3.75,29.58-2.83s13,2.5,13,2.5S248.25,38,238.5,39s-9.17,1.08-14.92,1.08-13,.33-13,.33l-15.75,2.5s-6.92,0-5.58.17,14.92-4,14.92-4Z" transform="translate(-21.15 -29.6)"/><path class="cls-11" d="M310.85,125.88a1.5,1.5,0,0,0,0-3,1.5,1.5,0,0,0,0,3Z" transform="translate(-21.15 -29.6)"/><path class="cls-11" d="M300.75,154.25a1.5,1.5,0,0,0,0-3,1.5,1.5,0,0,0,0,3Z" transform="translate(-21.15 -29.6)"/><path class="cls-7" d="M442.33,291.33c0,1.17-1,8.33-1,8.33l-3,1.83a2.57,2.57,0,0,0-.5,1.83c.17,1,2.33,3.67,5.5-.83s3.17-5.83,3.17-5.83l-2-5.33Z" transform="translate(-21.15 -29.6)"/><path class="cls-12" d="M132.5,265.43c1,.67,18.5,27.17,25,32.5s17.67,11.2,17.67,11.2l21,13.63s30.5,13.5,36.83,17.83,20.81,7.83,29.41,8.33,23.93,3,23.93,3-45.5-9-53.17-13.33-25.67-11.67-34.58-17.17-36.25-20.83-39.92-25.17S132.5,265.43,132.5,265.43Z" transform="translate(-21.15 -29.6)"/><path class="cls-13" d="M263.88,449.33c-.5,0-10.4,2.88-14,2.38s-12.11-.75-18.74-2.37-19.75-4-25.25-4S182,442,173.5,436.21s-24.23-12.35-24.23-12.35l-12.39-7.5s1-1.9,14.75,6S186,441,199.75,441.83s32.13,4.88,38.38,6.25S263.88,449.33,263.88,449.33Z" transform="translate(-21.15 -29.6)"/><path class="cls-13" d="M141.33,401.59c-.42-.27-10.32-3.15-13.1-5.51s-9.82-7.13-14.55-12-14.53-14-19.17-16.91-18.35-15.65-22.44-25.06-13.84-23.42-13.84-23.42l-6.44-13s1.87-1.07,9.25,12.95,19,34.15,30.17,42.26,24.5,21.34,29,25.85S141.33,401.59,141.33,401.59Z" transform="translate(-21.15 -29.6)"/><path class="cls-13" d="M77.94,147.49l-1.5,31s11,57.8,15.5,71.55,8.5,25,11.75,30.75,7.75,15.75,10.5,20.75,6.25,8.5,7.75,8.75S103.19,280,101.94,273s-10-36.5-14.25-53.75-8.5-42-8.5-42,.75-19.25,0-26.5S77.94,147.49,77.94,147.49Z" transform="translate(-21.15 -29.6)"/><path class="cls-13" d="M301.67,376.17l2.95,8.88s-5.53.62-6.7.28,1-4.25,1-4.58a48.76,48.76,0,0,0-3-4.33L294,370s6.83.17,9.25,2.33a56.45,56.45,0,0,1,5,5.33l11.58,6.08-5.67-.33s-.58,2.75-2.75,0-5.83-6.67-5.83-6.67L301,374Z" transform="translate(-21.15 -29.6)"/><circle class="cls-7" cx="251.45" cy="301.99" r="1.09"/><circle class="cls-7" cx="232.91" cy="299.62" r="1.28"/><circle class="cls-7" cx="222.91" cy="286.62" r="0.77"/><circle class="cls-7" cx="236.66" cy="260.8" r="1.09"/><path class="cls-8" d="M114.5,152.55c0,1.12-.3-.51-1.42-.51s-1.44.44-1.44-.68-.52-3,.61-3S114.5,151.43,114.5,152.55Z" transform="translate(-21.15 -29.6)"/><path class="cls-6" d="M114.55,152.55c0,.15.05.23,0,.45s-.2,0-.23,0l-.1-.06-.18-.11a3.17,3.17,0,0,0-.62-.26,4.78,4.78,0,0,0-1.32-.28.53.53,0,0,1-.48-.22,1.91,1.91,0,0,1-.16-.44c-.08-.29-.11-.51-.18-.76a6.55,6.55,0,0,1-.22-1.62,1.47,1.47,0,0,1,.4-1.07,1.18,1.18,0,0,1,1.3-.19,2.61,2.61,0,0,1,1.2,1.41,7.46,7.46,0,0,1,.42,1.58A10.9,10.9,0,0,1,114.55,152.55Zm-.1,0a5.41,5.41,0,0,0-1.26-2.74,2.77,2.77,0,0,0-.87-.86.28.28,0,0,0-.17,0,.66.66,0,0,0-.13.36c-.07.43,0,1-.06,1.49a4.78,4.78,0,0,1-.11.79.59.59,0,0,0,0,.31c0,.06.07.07.2.06s.49-.19.76-.27a1.15,1.15,0,0,1,1,.09,1.37,1.37,0,0,1,.54.77l.07.19c0,.07.11.1,0,.12C114.42,152.86,114.46,152.66,114.45,152.55Z" transform="translate(-21.15 -29.6)"/><circle class="cls-8" cx="350.35" cy="291.4" r="1.09"/><path class="cls-6" d="M372.64,321a1.67,1.67,0,0,1-.3.85,1.18,1.18,0,0,1-.85.5A1.42,1.42,0,0,1,370,321a1.59,1.59,0,0,1,.37-1.12,1.38,1.38,0,0,1,1.12-.47,1.2,1.2,0,0,1,1,.63A1.75,1.75,0,0,1,372.64,321Zm-.1,0a.68.68,0,0,0-.46-.58,1.11,1.11,0,0,0-.58,0,.78.78,0,0,0-.69.59.77.77,0,0,0,.69.84,1,1,0,0,0,.7-.14A.77.77,0,0,0,372.54,321Z" transform="translate(-21.15 -29.6)"/><circle class="cls-7" cx="151.39" cy="233.91" r="1.09"/><circle class="cls-7" cx="132.85" cy="231.53" r="1.09"/><circle class="cls-7" cx="122.85" cy="218.53" r="1.09"/><circle class="cls-7" cx="136.6" cy="192.72" r="1.09"/><circle class="cls-7" cx="155.22" cy="194.9" r="1.09"/><circle class="cls-7" cx="187.02" cy="195.35" r="0.52"/><circle class="cls-7" cx="168.48" cy="192.97" r="1.5"/><circle class="cls-14" cx="371.36" cy="66.18" r="1.09"/><circle class="cls-14" cx="371.36" cy="167.18" r="1.09"/><circle class="cls-7" cx="172.23" cy="154.16" r="1.09"/><circle class="cls-7" cx="190.85" cy="156.35" r="1.09"/><circle class="cls-8" cx="188.03" cy="263.23" r="2.09"/><path class="cls-6" d="M211.32,292.83a3.18,3.18,0,0,1-.44,1.71,1.84,1.84,0,0,1-1.71.8,2.51,2.51,0,0,1-1.6-.91,3.09,3.09,0,0,1-.77-1.6,2.35,2.35,0,0,1,2.37-2.63,2.06,2.06,0,0,1,1.71.91A3.11,3.11,0,0,1,211.32,292.83Zm-.1,0a1.45,1.45,0,0,0-.8-1.25,2.54,2.54,0,0,0-1.25-.31,1.89,1.89,0,0,0-1.82,1.56,1.46,1.46,0,0,0,.45,1.37,1.67,1.67,0,0,0,1.37.31,3.74,3.74,0,0,0,1.26-.42A1.44,1.44,0,0,0,211.22,292.83Z" transform="translate(-21.15 -29.6)"/><path class="cls-7" d="M389.43,79.67c-3.11,0-15.32-7.06-15.32-10.17s7.56,1.35,10.67,1.35a5.64,5.64,0,0,1,5.64,5.64C390.41,79.6,392.54,79.67,389.43,79.67Z" transform="translate(-21.15 -29.6)"/><circle class="cls-7" cx="198.91" cy="281.62" r="1.09"/><circle class="cls-7" cx="186.94" cy="243.44" r="1.09"/><circle class="cls-7" cx="102.93" cy="72.28" r="0.4"/><circle class="cls-7" cx="105.73" cy="65.4" r="1.69"/><circle class="cls-7" cx="117.1" cy="63.71" r="0.41"/><circle class="cls-7" cx="117.1" cy="69.53" r="0.41"/><circle class="cls-7" cx="93.62" cy="110.36" r="1.19"/><circle class="cls-7" cx="118" cy="101.46" r="0.23"/><circle class="cls-7" cx="96.44" cy="98.4" r="0.58"/><ellipse class="cls-7" cx="101.98" cy="94.78" rx="0.96" ry="0.46"/><circle class="cls-7" cx="106.17" cy="89.38" r="0.81"/><circle class="cls-7" cx="103.5" cy="121.88" r="0.56"/><ellipse class="cls-7" cx="92.78" cy="131.15" rx="0.84" ry="0.33"/><circle class="cls-7" cx="85.62" cy="143.76" r="0.27"/><circle class="cls-7" cx="115.14" cy="135.53" r="0.63"/><circle class="cls-7" cx="131.54" cy="141.84" r="0.27"/><ellipse class="cls-7" cx="143.19" cy="126.44" rx="0.75" ry="1.13"/><circle class="cls-7" cx="127.52" cy="113.73" r="0.42"/><path class="cls-7" d="M370.38,299.25s7.38,1.75,10.75,0-2.62-1.37,6.13-4.37a34.57,34.57,0,0,0,14-9.25,54.72,54.72,0,0,0-9.75,4c-6.62,3.25-8.62,4.13-11.62,4.63s-8.75-1.47-9.5-1.42-10-4.08-10-4.08,4.88,8,6.63,8,3.13,1.37,3.88,1.43S370.38,299.25,370.38,299.25Z" transform="translate(-21.15 -29.6)"/><path class="cls-7" d="M169,108.13c-1.87,3.25-4.62,4.25-2.25,5.38s.88.88,3.63,1.88,3.88,2.83,4.63,2.79-3.25,1.63-3.25,1.63a20.38,20.38,0,0,0-3.25-3.42,22,22,0,0,0-4.17-2.42s-1.54-2.08,0-3.46A16.1,16.1,0,0,1,169,108.13Z" transform="translate(-21.15 -29.6)"/><ellipse class="cls-7" cx="154.92" cy="382.94" rx="1.19" ry="0.72"/><ellipse class="cls-7" cx="147.17" cy="376.21" rx="0.56" ry="1.06"/><circle class="cls-7" cx="117.73" cy="363.65" r="0.75"/><circle class="cls-7" cx="103.35" cy="344.03" r="1.5"/><circle class="cls-7" cx="131.17" cy="364.21" r="0.56"/><circle class="cls-7" cx="175.84" cy="388.68" r="2.12"/><ellipse class="cls-7" cx="198.73" cy="401.09" rx="1.5" ry="0.81"/><ellipse class="cls-7" cx="267.35" cy="390.79" rx="1.5" ry="0.81"/><ellipse class="cls-7" cx="221.62" cy="407.33" rx="1.52" ry="0.44"/><circle class="cls-7" cx="207.6" cy="389.05" r="0.62"/><circle class="cls-7" cx="172.92" cy="367.21" r="0.81"/><circle class="cls-7" cx="135.42" cy="347.59" r="0.31"/><ellipse class="cls-7" cx="80.04" cy="323.59" rx="0.94" ry="0.31"/><circle class="cls-7" cx="71.02" cy="300.03" r="0.41"/><ellipse class="cls-7" cx="64.04" cy="270.71" rx="0.44" ry="0.94"/><ellipse class="cls-7" cx="52.17" cy="271.18" rx="1.06" ry="0.47"/><ellipse class="cls-7" cx="82.12" cy="292.28" rx="1.98" ry="0.38"/><circle class="cls-7" cx="48.26" cy="282.56" r="0.53"/><ellipse class="cls-7" cx="98.42" cy="310.96" rx="1.69" ry="1.06"/><circle class="cls-7" cx="33.62" cy="243.17" r="0.27"/><circle class="cls-7" cx="47.88" cy="231.08" r="0.65"/><ellipse class="cls-7" cx="32.56" cy="216.15" rx="1.33" ry="0.63"/><circle class="cls-7" cx="42.7" cy="189.87" r="0.22"/><circle class="cls-7" cx="30.52" cy="174.56" r="1.29"/><circle class="cls-7" cx="36.29" cy="148.21" r="0.44"/><circle class="cls-7" cx="40.1" cy="134.03" r="0.88"/><circle class="cls-7" cx="41.29" cy="163" r="1.19"/><circle class="cls-7" cx="22.73" cy="183.49" r="0.88"/><circle class="cls-8" cx="32.12" cy="246.97" r="1.48"/><path class="cls-6" d="M54.75,276.57a1.75,1.75,0,0,1-1.48,1.73,1.72,1.72,0,0,1-1.35-.38,1.77,1.77,0,0,1,0-2.7,1.71,1.71,0,0,1,1.35-.38A1.75,1.75,0,0,1,54.75,276.57Zm0,0a1.3,1.3,0,0,0-.48-1,1.21,1.21,0,0,0-1-.23,1.26,1.26,0,0,0,0,2.46,1.22,1.22,0,0,0,1-.23A1.3,1.3,0,0,0,54.75,276.57Z" transform="translate(-21.15 -29.6)"/><circle class="cls-7" cx="16.01" cy="223.68" r="0.41"/><path class="cls-7" d="M41.75,278.81S34,264.13,34.5,259.44s.58-6.87.58-6.87a17.81,17.81,0,0,0,1.67,4.25c1.13,1.94,3.75,1.19,5.94,1.5s4.88.63,4.38.63-3.44,1.37-5.75,1.75-2.44-1.93-3.25.25-1.69,3-.19,4.75S41.75,278.81,41.75,278.81Z" transform="translate(-21.15 -29.6)"/><path class="cls-7" d="M413.83,371c-.67.31-30.17,28.94-35.17,31.29S361,415.73,349,419.78s-22.67,8.55-29.67,10.72S301.67,434,301.67,434s42-13.46,53.83-19.8,26.17-19,28.67-20.67,15.5-13.67,18.83-16.67S413.83,371,413.83,371Z" transform="translate(-21.15 -29.6)"/><path class="cls-7" d="M134.25,41.25a80.5,80.5,0,0,1,10.5,10.25c2.13,2.75-1.87,4,9.63,11s10.88,6.39,16.5,10.57,3.5,2.3,0-2.45-4.62-5.62-10.62-8.5S148.42,54,147.33,51.75s-4.21-7.45-6.58-8.66a25,25,0,0,0-5.5-1.84Z" transform="translate(-21.15 -29.6)"/><path class="cls-7" d="M114.33,224.5s5.33,5.16,8.83,4.83,1.33-1.35,5.67-1,4.67-.17,5.83,0-13.5-3.51-16-4.92-4.5-2.24-5.67-4.91-1.5-4.17-3.5-4,2,7.42,2,7.42l-1,.65Z" transform="translate(-21.15 -29.6)"/><circle class="cls-7" cx="274.48" cy="406.03" r="1.21"/><circle class="cls-7" cx="282.1" cy="396.73" r="0.67"/><circle class="cls-7" cx="291.69" cy="391.9" r="1.92"/><circle class="cls-7" cx="261.73" cy="402.94" r="0.46"/><circle class="cls-7" cx="299.89" cy="368.94" r="0.54"/><circle class="cls-7" cx="324.44" cy="373.65" r="0.08"/><circle class="cls-7" cx="349.79" cy="358.92" r="0.6"/><circle class="cls-7" cx="360.52" cy="352.48" r="1.17"/><circle class="cls-7" cx="391.23" cy="335.69" r="0.46"/><circle class="cls-7" cx="398.44" cy="331.98" r="0.75"/><circle class="cls-7" cx="401.77" cy="323.07"/><circle class="cls-7" cx="130.95" cy="331.58" r="0.35"/><circle class="cls-7" cx="107.23" cy="316.36" r="0.38"/><circle class="cls-7" cx="68.35" cy="252.1"/><circle class="cls-15" cx="216.5" cy="341.04" r="1.64"/><circle class="cls-15" cx="200.45" cy="330.24" r="0.22"/><circle class="cls-7" cx="410.85" cy="184.4" r="0.75"/><circle class="cls-7" cx="404.97" cy="169.27" r="0.49"/><circle class="cls-7" cx="389.82" cy="164.49" r="1.47"/><circle class="cls-7" cx="416.32" cy="158.43" r="0.22"/><circle class="cls-7" cx="423.23" cy="156.28" r="0.75"/><circle class="cls-7" cx="404.6" cy="129.78" r="2.13"/><circle class="cls-7" cx="392.85" cy="111.28" r="1"/><circle class="cls-7" cx="368.47" cy="118.31" r="0.74"/><circle class="cls-7" cx="367.72" cy="90.4" r="0.74"/><circle class="cls-7" cx="380.98" cy="86.15" r="1"/><circle class="cls-7" cx="390.45" cy="87.24" r="1.09"/><circle class="cls-7" cx="348.76" cy="67.31" r="1.03"/><circle class="cls-7" cx="325.73" cy="104.15" r="1"/><circle class="cls-7" cx="342.35" cy="143.12" r="1"/><circle class="cls-7" cx="342.35" cy="123.15" r="0.63"/><circle class="cls-7" cx="336.48" cy="44.9" r="0.63"/><circle class="cls-7" cx="315.85" cy="52.03" r="0.5"/><circle class="cls-7" cx="296.38" cy="71.06" r="1.03"/><circle class="cls-7" cx="266.61" cy="54.16" r="0.63"/><circle class="cls-7" cx="261.23" cy="91.77" r="0.63"/><circle class="cls-7" cx="259.79" cy="67.71" r="1.44"/><circle class="cls-7" cx="299.71" cy="119.05" r="1.44"/><circle class="cls-7" cx="239.48" cy="24.15" r="1.25"/><circle class="cls-7" cx="221.42" cy="67.43" r="1.25"/><circle class="cls-7" cx="258.1" cy="16.53" r="1.13"/><circle class="cls-7" cx="193.67" cy="18.46" r="0.81"/><circle class="cls-7" cx="172.35" cy="25.9" r="0.5"/><circle class="cls-7" cx="218.54" cy="40.84" r="0.69"/><circle class="cls-7" cx="284.67" cy="21.21" r="0.56"/><circle class="cls-7" cx="220.85" cy="52.53" r="0.56"/><circle class="cls-7" cx="301.01" cy="26.06" r="0.66"/><circle class="cls-7" cx="257.85" cy="39.03" r="0.88"/><circle class="cls-7" cx="244.8" cy="47.19" r="0.88"/><circle class="cls-7" cx="185.45" cy="41.18" r="0.34"/><path class="cls-7" d="M186,51.38s-1.75,5.14-1.37,6.94,2.25,4.06,2.75,4.81-.5,1.38,3,2.38S194.5,67,194.5,67l-5.42,1.63a21.88,21.88,0,0,0-4.51-4.37c-2.32-1.5-2.95-2.25-3.07-4.25s-1.37-3.37,0-5A25.68,25.68,0,0,1,186,51.38Z" transform="translate(-21.15 -29.6)"/><circle class="cls-7" cx="383.23" cy="115.9" r="0.25"/><circle class="cls-7" cx="342.01" cy="73.06" r="0.28"/><circle class="cls-7" cx="337.2" cy="79.49" r="0.22"/><circle class="cls-7" cx="345.73" cy="97.15"/><circle class="cls-7" cx="318.23" cy="27.78" r="0.25"/><circle class="cls-7" cx="244.8" cy="12.38" r="0.23"/><ellipse class="cls-7" cx="280.29" cy="310.59" rx="0.31" ry="0.69"/><ellipse class="cls-7" cx="297.23" cy="301.45" rx="1.25" ry="0.55"/><ellipse class="cls-7" cx="315.79" cy="291.95" rx="1.69" ry="0.55"/><circle class="cls-7" cx="276.02" cy="275.53" r="0.54"/><ellipse class="cls-7" cx="357.01" cy="305.96" rx="2.66" ry="0.81"/><ellipse class="cls-7" cx="389.73" cy="283.34" rx="0.88" ry="0.31"/><ellipse class="cls-7" cx="373.67" cy="279.34" rx="0.94" ry="0.26"/><circle class="cls-7" cx="354.54" cy="277.96" r="0.19"/><ellipse class="cls-7" cx="302.92" cy="269.41" rx="5.44" ry="1.01"/><ellipse class="cls-7" cx="247.23" cy="278.88" rx="2.25" ry="0.73"/><ellipse class="cls-7" cx="169.6" cy="272.73" rx="3.92" ry="1.17"/><ellipse class="cls-7" cx="241.38" cy="183.02" rx="3.19" ry="0.64"/><path class="cls-7" d="M295.48,188.6c0,.92,1.34,0,3,0s4.42,2.2,4.42,1.28-2.76-3-4.42-3S295.48,187.67,295.48,188.6Z" transform="translate(-21.15 -29.6)"/><path class="cls-7" d="M333.25,213.17a24.13,24.13,0,0,0-4.92-3.92c-3.07-1.87-6.24-3.7-8.4-2.7a48,48,0,0,0-6.75,3.75c-.58.58-3.58,6.58,3.92,5.92s7-2.08,10.83-2.5,2.49,0,4.82.79,7.79,4.36,5.08,2.25Z" transform="translate(-21.15 -29.6)"/><ellipse class="cls-7" cx="229.77" cy="193.81" rx="0.92"/><circle class="cls-7" cx="218.48" cy="172.86" r="1.63"/><ellipse class="cls-7" cx="244.35" cy="220.4" rx="1.33"/><circle class="cls-7" cx="220.92" cy="223.27" r="0.82"/><ellipse class="cls-7" cx="198.94" cy="214.95" rx="1.25" ry="0.71"/><ellipse class="cls-7" cx="210.96" cy="198.9" rx="2.26" ry="0.67"/><ellipse class="cls-7" cx="273.35" cy="207.91" rx="1.67" ry="0.67"/><ellipse class="cls-7" cx="234.09" cy="140.57" rx="1.59" ry="0.83"/><rect class="cls-7" x="201.13" y="140.99" transform="translate(-61.93 153.92) rotate(-45)"/><ellipse class="cls-7" cx="324.33" cy="235.63" rx="1.77" ry="1.1"/><ellipse class="cls-7" cx="319.04" cy="218.57" rx="0.81"/><circle class="cls-7" cx="314.94" cy="209.17" r="0.21"/><ellipse class="cls-7" cx="399.73" cy="258.15" rx="2.04" ry="0.25"/><path class="cls-16" d="M169.37,108.13c2.51-.62,3.32-.81,4.63,0a12.39,12.39,0,0,1,3.31,3c.25.56-2.69,1.67.44,2.83s6.06-.27,4.56,1.48-2.5,2.13-5.06,2.13-2.57-1-3.87-1.19-1.87-2-4.25-2.42-4.08-.62-3.29-1.39.67-.32,1.67-1.45,1.49-1.64,1.38-2.12a1.27,1.27,0,0,1,.13-.87" transform="translate(-21.15 -29.6)"/><path class="cls-16" d="M113,212.42c-.75,1-2.5,1.32-1.66,2.74s1.74,3.91,2.46,4.74a15.72,15.72,0,0,0,6.42,4.17c3.31,1.08,11.9,5.27,13.71,4s4.06-2.25,2.06-3.58a22.21,22.21,0,0,0-6-2.19l-8.5-2.9s-3.5-6.33-5.5-7A3.58,3.58,0,0,0,113,212.42Z" transform="translate(-21.15 -29.6)"/><path class="cls-16" d="M258.92,118.41c1.53-1.06,4-4.75,1.78-5.5s-2.12-.87-4.06-.81-2.5-2.19-6.31-4.5a18.23,18.23,0,0,0-6.87-2.87c-1.81-.44-6.37-3.12-6.69-2.12s2.24,2.87,5.36,5.85.77.36,4.32,3.65,1.48,2.19,5.33,3.94A35.18,35.18,0,0,0,258.92,118.41Z" transform="translate(-21.15 -29.6)"/><circle class="cls-7" cx="126.36" cy="338.26" r="1.14"/><circle class="cls-13" cx="142.32" cy="343.27" r="0.58"/><circle class="cls-7" cx="138.61" cy="351.93" r="0.51"/><path class="cls-13" d="M41.94,278a29.24,29.24,0,0,0-1.5-7.61c-1.31-3.56-3.06-5.62-2.56-7.37s-.9-2.06,2-2,2.57,2.12,5.07-.38,3-1.94,3.17-1.68.76,1.55,1.26,1.68-1.19,1.44-4,2.19-4.84-.25-4.57,1.25,1.45,1.06,1.7,2.88-.19,3.38.13,4.25S41.94,278,41.94,278Z" transform="translate(-21.15 -29.6)"/><path class="cls-13" d="M435.25,132.33s-3.85-10.28-6.2-14.4-16.42-26.81-23.11-30.88-9.69-9.48-12.44-11.15,4.75,6.58,10.87,12.83A126.8,126.8,0,0,1,420,109.31c2.75,4.69,6.24,11.19,8.25,15.06s5.35,21.16,7,22.84,20.57,47.76,21,51.16,4.23,10.88,4.23,10.88-1.64-14.56-3.46-20-6.94-19.41-9-24.38-7.79-20.46-8.44-22.41,1.6,2.78-2.33-4.22-2-5.92-2-5.92" transform="translate(-21.15 -29.6)"/><path class="cls-7" d="M216.83,157.17c4.33,2.67,3.46-2.13,11.07,3.44s7.84,7.89,11.72,6.72,5.54-4.67,1.63-6.5-6.75-2.5-8.58-5.92-6.17-8.62-10.33-6.27-7.5.53-7.67,5S216.83,157.17,216.83,157.17Z" transform="translate(-21.15 -29.6)"/><path class="cls-9" d="M221.81,154c3.17-1,12.62,5.41,12,3.47-.47-1.52-6.84-6.82-6.84-6.82s-1.71-2.94-3.88-1,.08-.42-3.25,1.25l-5.2,2.6s-.17,1.71.71,2.33S221.81,154,221.81,154Z" transform="translate(-21.15 -29.6)"/><path class="cls-10" d="M223.22,150.59c1.92-1.08,7.63,3.39,5.72,2.31-5.33-3-11.41.16-12.08.58s.92-1.48,1.34-1.11,1.14-.79,2-.75A10,10,0,0,0,223.22,150.59Z" transform="translate(-21.15 -29.6)"/><path class="cls-7" d="M109.06,349.52c-4.36,7.43-3.93,10.86-.81,13.48s.25,4.63,6.25,6,2.5-3.87,8.5-2.87,9.77,2.08,8.17-1.5-.54-5.86-5.17-6.74-8.56-1.87-10.59-4.25S110.37,347.29,109.06,349.52Z" transform="translate(-21.15 -29.6)"/><path class="cls-9" d="M115.75,365.88c3.42-.79,2.33-3.75,7-1.62s5.67,2.5,6.13,1.83,1-.76.5-2.59.63-3.08-1.08-3.7a29.28,29.28,0,0,0-3.62-1.25c-1.25-.29-2.08,0-.71,1.92s4.46,1.79,1.25,2.5-5-.33-6.25-.08-1.37-.79-2.62,1.29a9.1,9.1,0,0,1-1.92,2.55Z" transform="translate(-21.15 -29.6)"/><path class="cls-10" d="M126.75,363.28c-.37.34-.72.53-2.25.53a8.56,8.56,0,0,1-3.17-.12c-2.39-.41-3.42-1.13-4.45-.91s-1.31,1,.25,1.13a27.55,27.55,0,0,1,3.84.34,5,5,0,0,0,2.28.41,5.26,5.26,0,0,0,3.5-.78C127.31,363.5,126.75,363.28,126.75,363.28Z" transform="translate(-21.15 -29.6)"/><path class="cls-13" d="M111.12,81.56s-4.66,11.14-7.5,17.16-3.47,5.94-4.39,11.67-5.05,9.36-4.39,14a150.47,150.47,0,0,1,.78,19.37c0,1.64-.13,3.12-.26,4.31-.65,5.95-1.42,6-1.82,11.2s-1.46,4.25,0,8.37-.11,6.87.28,10.62S92.88,188,95.19,190s2.06,5.48,2.06,5.48a27.38,27.38,0,0,0-.42,5.88c.28,1.73,1.37.7,2.39,5.68s2,19.74,4.5,21.49,4.42,2.39,4.27,6.35,2.23,1.39,3.12,7,1.71,7.36,3.76,10.75S128,268.4,128,268.4s-8.75-14.9-10.5-18.4.54-1.87-2.73-8.18-3.48-4.94-4.37-9-1.15-5.31-3.9-8.31-3.5-1.7-4-7.1-1-11.08-1.75-13.24-2.3-1.91-1.52-7.41-.27-6.85,0-10.8-3.73,4.14-3.73-3.28.5-10.66.75-15,.25-3.46.25-9.79,1.25-18.67,1.25-27-3-7,1.48-13.27,5-6.56,4-9.44-1-2.31,2.25-7.47,5.3-5.49,4.9-7.75,1.67-15.13,5.57-25.16.88-5.75.88-5.75-2.08,6.25-3.76,11.07A37.74,37.74,0,0,0,111.12,81.56Z" transform="translate(-21.15 -29.6)"/><path class="cls-13" d="M291,437.38c-.67.29-22.42,3.13-27.12,2.46s-5.8.83-15.67-.5-5-.75-16.37-2-31.46-7.5-31.46-7.5l-25.5-10.61s6.59,5.9,9.79,6.4,7.62,5.17,13.19,6.88,11.53,3.48,14.39,4.29,11.42,3.5,13.26,4.67,5.81.57,8.58,1.25.58-2.25,3.42,0,2.33,1.41,5.27,1.89,1.83-1.2,5.44,0,1.88,1.26,6.76,1.43,1.76-.9,7.23-.9.45-2,8.88-1.83,8.23-.84,11.35-.17,6.42-2.67,7.58-2.67.5-.17,1-.67S291,437.38,291,437.38Z" transform="translate(-21.15 -29.6)"/><path class="cls-13" d="M447.5,284.33c.3-1.33-9.33-7-20.5-12.33s-12.83-9.74-20.62-15-14.11-7-19-8.85-47.73-22.17-51-26.51-14.14-4.26-14.14-4.26-5.5.76-2.5,2.93-5.17,8,5.67,16.5,51.58,32.33,62.67,35.11,15.51,2.25,23,9.75,16.7,1.89,21,3.93,10.83.63,12,0A23.71,23.71,0,0,1,447.5,284.33Z" transform="translate(-21.15 -29.6)"/><path class="cls-13" d="M313.5,204.08c-4.25-2.83-4.25-5.58-12.75-7.58s-13.12-.37-19.81-8.69.48-14.81-5.6-20.18a178,178,0,0,0-18.5-14.08c-6.33-4.29-16.2-9.34-14.77-4.57s14.14,8.27,19.53,12.52,7.65.33,8.4,9.67-3.59,14.62,2.93,20.89,4.77,7.76,12.18,10.4,3.22,4.61,11.06,5.08S313.5,204.08,313.5,204.08Z" transform="translate(-21.15 -29.6)"/><path class="cls-13" d="M228.75,134.25c-12-4.65-20.75-18.37-34.25-24.94s-19-3.25-23.5-13.53-1.74-15.78-3.25-19-2.75-5-8.25-8.17A84.69,84.69,0,0,1,141.67,55c-5.67-5.75-5.92-9.75-8.42-8.87s-3.5,2.38-3.5,6.38,1.43,7.4,6.25,9.5a70.43,70.43,0,0,1,11.33,5.75c3.42,2.25,11.67,4.58,13.42,9.92s0,6.34,1.75,12.46.75,6.44,5.25,10.53,16.5,12.85,26.75,21.35,8.75,8,15,12.75,2,2.16,10.5,5.21S244.25,140.25,228.75,134.25Z" transform="translate(-21.15 -29.6)"/><ellipse class="cls-7" cx="322.2" cy="211.12" rx="1.77" ry="1.1"/><path class="cls-7" d="M386.12,247.62c0,.61-.79,0-1.77,0s-1.77.61-1.77,0,.79-1.1,1.77-1.1S386.12,247,386.12,247.62Z" transform="translate(-21.15 -29.6)"/><path class="cls-13" d="M380.75,71.13s7.23,3.6-6.64-6.12S359.42,52.25,352,52.5s-12.78-1.87-14.5-4.44-2-2.93-9.51-5-9.57-2.67-14.49-3.72-5.19-1.35-12.75-2.49-15.63-2.48-19.81-2.39a24.84,24.84,0,0,1-5.5-.52c-1.52-.28-3.2-.61-5.67-.86-5.3-.53-5-3-10.39-1.41s-5,0-11.17,0-8.29-1.53-14.34-.51-3.79-.82-9.6.51-4.28,2.1-8.64,2.15-.09-.15-5.87.52-5.2,1.91-11.1,1.65-8.64-1.13-13.9,1.82-34.1,14.41-34.1,14.41S192,39.94,199.25,38.47s2.58.19,9.92-.64,5.58-1.08,10.58-1.33,11.48-2.29,14.12-2.64,2.36,2.59,9.62,2,5-.92,15.89-1.26,23.16,1.36,29,3.88,9.36,1.28,20.36,2.78,16.5,6.5,19.75,7.63,10.75.5,12.5,2.44,9.5,3.94,13,5.81,7.75.63,9.5,2.88S380.75,71.13,380.75,71.13Z" transform="translate(-21.15 -29.6)"/></g></svg>