<?xml version="1.0" encoding="utf-8"?>
<!-- Generator: Adobe Illustrator 21.0.0, SVG Export Plug-In . SVG Version: 6.00 Build 0)  -->
<svg version="1.1" id="Layer_1" xmlns="http://www.w3.org/2000/svg" xmlns:xlink="http://www.w3.org/1999/xlink" x="0px" y="0px"
	 width="500px" height="500px" viewBox="0 0 500 500" style="enable-background:new 0 0 500 500;" xml:space="preserve">
<style type="text/css">
	.st0{opacity:0.31;fill:#CEAD84;enable-background:new    ;}
	.st1{fill:#E7E0B6;stroke:#B77C55;stroke-width:2;stroke-linecap:round;stroke-linejoin:round;stroke-miterlimit:10;}
	.st2{opacity:0.31;fill:#D8B78B;enable-background:new    ;}
	.st3{fill:#CEAD84;}
	.st4{fill:#F3EBC8;}
	.st5{fill:#B77C55;}
	.st6{fill:#E3C292;}
	.st7{fill:#F7F1D7;}
	.st8{fill:#D2A16C;}
	.st9{fill:#AF784B;}
	.st10{fill:#EFD9BD;}
	.st11{fill:#FFFAE3;}
	.st12{fill:#FFF6CF;}
	.st13{fill:#F7F1D7;stroke:#B77C55;stroke-linecap:round;stroke-linejoin:round;stroke-miterlimit:10;}
	.st14{fill:#F3EBC8;stroke:#B77C55;stroke-linecap:round;stroke-linejoin:round;stroke-miterlimit:10;}
	.st15{fill:#FFF8E3;}
</style>
<g id="Layer_2">
</g>
<g id="Layer_3">
	<g>
		<path class="st0" d="M446.8,338.3c0,0-9.7,30.8-18.6,41.5c-9,10.7-26.9,33.3-46.5,44.7c-19.6,11.5-39.3,25.1-49.7,27.8
			c-10.5,2.7-49.3,16.6-63.6,17.6c-14.4,1-55-1.8-66.5-3.9c-11.7-2.1-44.6-18.7-54.9-26c-10.3-7.3-46.8-25.6-55.2-43.3
			c-8.3-17.6-19-18.9-37.4-63.9s-18.9-49.4-19.9-54.6c-1-5.2-7.8-31.9,9.7-75.1S446.8,338.3,446.8,338.3z"/>
		<path class="st1" d="M435.3,336.7c0,0-17.6,28.9-23.9,32.3c-6.3,3.3-23.3,24.6-36.3,32.3s-42.9,26.3-67.5,31.6
			c-24.6,5.3-57.9,6.3-64.2,6.3c-6.3,0-55.9-7.7-69.2-15.9c-13.4-8.3-53.2-30.6-64.5-41.6S84.7,352.1,80,343.4
			c-4.7-8.7-5-5.7-10.7-14.7c-5.7-9-21.6-60.9-14.4-86.1c7.3-25.3,0.7-17.9,2-28.6c1.3-10.7,9.3-40.6,22.9-60.2
			s28.6-87.1,118.4-105.1s105.8-9.5,166.1,15c0,0,61.1,42.2,74.9,78.3c0,0,0.2,10.7,3.8,14.7c3.4,4,15.9,26.5,18.2,52.2
			c2.2,25.7,3.4,47.2,0,55.4c-3.4,8.2-2.4,10.7-3.2,15C457.2,283.4,457.2,302.7,435.3,336.7z"/>
		<path class="st2" d="M442.4,262.5c12.7,5.6,20.1,18.8,18.4,32.5c-5.5,41.4-19.8,114.4-79.6,145.5c-73.9,38.6-51.5,15.8-102.3,32.7
			c-50.7,16.9-87.8,6.8-133.3-25.6c-45.5-32.3-65.6-22.1-89.8-87.5c-15.4-41.7-23.5-62.3-27.3-71.8c-2-4.9-2.7-10.2-2.1-15.5
			c2.8-22.9,11.9-86.9,29.4-104.9c10-10.3,39.3-10.6,98-9.9C202.2,158.8,380.7,235.4,442.4,262.5z"/>
		<path class="st2" d="M442.4,256.1c12.7,5.6,20.1,18.8,18.4,32.5c-5.5,41.4-19.8,114.4-79.6,145.5c-73.9,38.6-51.5,15.8-102.3,32.7
			c-50.7,16.9-87.8,6.8-133.3-25.6C100.2,409,80,419.1,55.9,353.8C40.5,312,32.4,291.5,28.6,282c-2-4.9-2.7-10.2-2.1-15.5
			c2.8-22.9,11.9-86.9,29.4-104.9c10-10.3,39.3-10.6,98-9.9C202.2,152.4,380.7,228.9,442.4,256.1z"/>
		<path class="st3" d="M438.6,346.4c0,0-7,17.9-13.5,26.9s-11.7,18.2-18.2,23.5c-6.5,5.2-25.9,23.6-40.2,30.4
			c-14.2,6.8-50.2,26.3-61.9,26c-11.7-0.2-16.9,5.5-32.7,7.1c-15.7,1.6-25.1,6.3-37.4,2.1c-12.2-4.2-25.5-1.9-34.2-4
			c-8.7-2.2-36.4-13.4-43.6-20.4c-7.2-7-11-4.5-19.2-10.8c-8.2-6.5-11-7-15.7-12c-4.8-4.9-15-8.9-18.9-15.7
			c-3.9-6.8-13.2-18.1-17.5-23.5c-4.2-5.2-7.9-6.8-11.9-17c-4-10.2-14.7-27.1-14.7-27.1S47,300.2,45.3,296.5
			c-1.7-3.7-4.9-19.4-4.9-19.4L438.6,346.4z"/>
		<g>
			<path class="st4" d="M347.9,430.2c-4.5,2.3-21.6,11.9-25.5,13.8c-3.9,1.9-10.7,3.3-17.9,4.3c-7.3,1-15,2.7-20.1,3.3
				c-5.1,0.7-6.3,3.3-13.5,5.1c-7.1,1.8-15.2,3.7-29.6,1.1c-14.4-2.4-18.9-3-27.1-3.7c-8.1-0.7-13-0.7-19.9-3.4
				c-6.9-2.8-11.5-4.7-18.5-8.5s-11.5-7.1-23.3-14c-11.8-6.8-11.8-5.7-15.8-10c-4-4.3-6.1-6.8-12.1-10.5c-6-3.7-10.5-6.1-15.2-13.1
				c-4.8-7-15-14.5-17.9-18.9c-3-4.5-4.8-8-6.3-9c-1.4-1-6-2.4-5.5-6.5c0.4-4,0.7-5.1,0.7-5.1s-9.7-13.1-13.4-19.6
				s-6.9-10.9-10.5-22C52.8,302.3,347.9,430.2,347.9,430.2z"/>
			<path class="st5" d="M348.1,430.2c-0.3,0.2-0.8,0.6-1.2,0.8l-1.1,0.6l-2.1,1.2l-4.2,2.4l-8.5,4.9c-2.9,1.7-5.7,3.2-8.7,4.8
				c-3.1,1.4-6.3,2.2-9.6,3c-3.2,0.7-6.6,1.2-9.7,1.8c-3.2,0.6-6.5,1.1-9.6,1.8l-4.8,0.9l-2.4,0.4c-0.8,0.1-1.7,0.2-2.3,0.3
				c-1.4,0.3-2.7,0.9-4.1,1.7c-1.4,0.8-2.9,1.7-4.6,2.2c-1.6,0.7-3.3,1.1-4.9,1.6s-3.2,0.8-4.9,1.1c-3.3,0.7-6.7,1-10,1.1
				c-3.3,0.1-6.8-0.1-10-0.6c-3.3-0.4-6.6-1-9.8-1.6c-6.5-1.1-12.8-2-19.4-2.4c-3.2-0.3-6.5-0.4-9.8-0.8s-6.8-0.9-10-2
				c-1.7-0.6-3.2-1.2-4.7-1.9l-4.6-1.9c-3-1.3-6-2.8-9-4.3c-5.9-3.1-11.3-6.8-16.9-10.2s-11.1-6.9-16.8-10c-1.4-0.8-2.9-1.6-4.3-2.4
				c-1.4-0.9-2.8-2.2-3.9-3.4c-2.2-2.4-4.3-4.9-6.8-7c-2.4-2.1-5.2-3.7-8-5.5c-2.8-1.8-5.6-3.7-7.9-6c-1.2-1.1-2.3-2.4-3.3-3.8
				c-0.6-0.7-1-1.3-1.4-2c-0.4-0.7-0.9-1.3-1.4-1.9c-2-2.6-4.3-4.8-6.7-7s-4.8-4.5-7.1-6.8c-1.1-1.1-2.3-2.4-3.2-3.9
				c-0.9-1.3-1.8-2.8-2.7-4.1s-1.8-2.8-2.8-3.8c-0.4-0.3-1.2-0.8-2-1.1c-0.8-0.4-1.4-0.9-2.1-1.4c-0.7-0.6-1.3-1.3-1.7-2.2
				s-0.4-2-0.3-2.8l0.6-4.9l0.2,0.7c-2.2-3-4.6-6.1-6.7-9.2c-2.2-3.1-4.3-6.2-6.3-9.5c-1.9-3.3-3.9-6.5-5.8-9.8
				c-1.9-3.3-3.3-6.9-4.7-10.6c-0.3-0.9-0.7-1.8-1-2.8c-0.1-0.3-0.2-0.9,0.1-1.6c0.1-0.3,0.3-0.4,0.6-0.7c0.1-0.1,0.3-0.2,0.4-0.2
				c0.6-0.2,0.9-0.2,1.2-0.2c0.7,0,1.1,0,1.7,0.1c2,0.3,3.9,0.8,5.8,1.2c3.7,1,7.3,2.2,10.9,3.4c7.2,2.4,14.4,5,21.5,7.6
				c14.2,5.3,28.3,10.8,42.4,16.5l21.1,8.5l21,8.7c14,5.8,27.9,11.7,41.8,17.6l41.6,18c13.9,6,27.7,12.2,41.5,18.4
				c6.9,3.1,13.8,6.2,20.7,9.3l10.3,4.7l5.1,2.3l2.6,1.2l1.3,0.6l0.7,0.3C347.6,429.9,347.9,430.1,348.1,430.2z M347.6,430.2
				c-0.2,0-0.4,0-0.6-0.1c-0.1,0-0.4-0.1-0.6-0.2l-1.3-0.6l-2.7-1.1l-5.2-2.1l-10.6-4.2c-7-2.8-14-5.7-21-8.6
				c-14-5.8-28-11.5-41.9-17.2l-83.9-34.6c-27.9-11.5-55.9-23.3-84.1-34.2c-7-2.8-14.1-5.5-21.1-8c-3.6-1.2-7.1-2.4-10.7-3.6
				c-1.8-0.6-3.6-1-5.3-1.3c-0.4-0.1-0.9-0.1-1.1-0.1c-0.1,0-0.3,0-0.1,0c0,0,0.1-0.1,0.2-0.1c0.1-0.1,0.2-0.2,0.3-0.3
				c0.2-0.3,0.1-0.8,0.1-0.8c0.2,0.8,0.6,1.8,0.8,2.7c1.1,3.6,2.6,7,4.2,10.3c1.7,3.3,3.7,6.6,5.5,9.9c1.9,3.2,4,6.3,6,9.5
				c2.1,3.1,4.2,6.2,6.5,9.3l0,0c0.1,0.2,0.2,0.4,0.1,0.7l-0.7,4.8c-0.1,0.8-0.1,1.3,0.1,2c0.2,0.7,0.7,1.2,1.2,1.7
				c0.6,0.4,1.2,0.9,1.9,1.3c0.7,0.4,1.4,0.7,2.2,1.3c0.7,0.7,1.2,1.3,1.7,2c0.4,0.7,0.9,1.3,1.3,2.1c0.9,1.4,1.8,2.8,2.7,4.1
				c0.9,1.3,1.9,2.6,3,3.7c2.2,2.3,4.7,4.6,7,6.8c2.3,2.3,4.7,4.6,6.8,7.2c0.6,0.7,1,1.3,1.6,2c0.4,0.7,0.9,1.3,1.4,1.9
				c1,1.2,2.1,2.4,3.2,3.6c2.3,2.2,5,4,7.8,5.7c2.8,1.7,5.7,3.3,8.3,5.5c2.7,2.1,4.9,4.6,7.1,6.9c1.1,1.2,2.2,2.2,3.6,3
				c1.3,0.8,2.8,1.4,4.2,2.2c5.9,3,11.6,6.2,17.2,9.6c5.7,3.3,11.1,6.8,16.9,9.7c2.9,1.4,5.8,2.8,8.8,4l4.6,1.8
				c1.6,0.6,3,1.2,4.5,1.7c3,1,6,1.4,9.2,1.8c3.2,0.3,6.5,0.4,9.8,0.8c6.6,0.6,13.1,1.6,19.6,2.7c3.2,0.6,6.5,1.2,9.6,1.6
				c3.2,0.4,6.3,0.7,9.6,0.7c3.2,0,6.3-0.3,9.5-0.9c1.6-0.3,3.1-0.7,4.7-1c1.6-0.3,3-0.8,4.5-1.3s2.8-1.2,4.2-2
				c1.4-0.8,3.2-1.6,5-1.8c0.9-0.1,1.7-0.2,2.4-0.3l2.4-0.3l4.8-0.8c3.2-0.6,6.5-1.1,9.8-1.4c3.2-0.4,6.5-0.8,9.7-1.4
				c3.1-0.7,6.3-1.3,9.2-2.6c2.9-1.3,5.8-2.9,8.7-4.3l8.7-4.6l4.3-2.2l2.2-1.1l1.1-0.6C347,430.3,347.2,430.3,347.6,430.2z"/>
		</g>
		<path class="st6" d="M334.1,432.3c-0.8,0.2-8,9.2-16.5,11c-8.5,1.8-45.8,10.2-48.2,10.2c-2.2,0-32.2,0.2-45.4-4.8
			c-13.2-5-56.1-17.9-67.9-25.5c-11.7-7.5-35.7-24.5-40.2-27.7c-4.5-3.2-26.8-30.4-28.8-33c-1.9-2.7-18.4-24.1-20-30.8
			c-3-12.4,61.2,31.2,61.2,31.2L334.1,432.3z"/>
		<g>
			<path class="st7" d="M468.8,268.7c0,0-4.9,11.7-4,15.9c0.8,4.2-2.2,12.4-2.1,15.7c0.1,3.3-4.8,18.7-6.8,23
				c-2,4.2-15.7,31.4-20.7,36.7c-5,5.2-22.3,27.1-31.9,34.9c-9.7,7.8-27.5,27.1-67.3,40.2c-39.9,13-66.1,19.5-97,11.5
				s-52.2-15-58.4-18.5c-6.2-3.4-13-5.5-24.7-13.5s-35.9-18.5-45.4-28.2c-9.5-9.7-12-12.5-21.3-24.5c-9.2-12-35.2-50.8-39.6-66.1
				c-1.8-5.9-8-14.2-10.7-25c-3.7-14.4-3.4-40.3,5.2-68.4c14.2-45.8,30.9-72.9,34.4-76.8s27.3-46.8,85.5-72.5s119.4-13.9,119.4-13.9
				s134.1,4.1,163.1,116.7c0,0,21.3,45.5,22.4,72.8C469.9,255.9,468.8,268.7,468.8,268.7z"/>
			<path class="st5" d="M469,268.8c-1,2.4-1.8,4.9-2.6,7.3c-0.3,1.2-0.7,2.4-0.9,3.8c-0.2,1.2-0.4,2.6-0.4,3.8
				c0,0.3,0.1,0.6,0.1,0.9l0.1,1c0,0.7,0,1.3,0,2c-0.1,1.3-0.3,2.7-0.6,3.9c-0.4,2.6-1.1,5.1-1.4,7.6c0,0.3-0.1,0.7-0.1,0.9v1
				c0,0.7-0.1,1.3-0.2,2c-0.2,1.3-0.6,2.6-0.9,3.8c-0.7,2.6-1.3,5-2.1,7.6c-0.8,2.4-1.6,5-2.4,7.5c-0.9,2.6-2.1,4.8-3.2,7.1
				c-2.2,4.7-4.7,9.2-7.1,13.8c-2.4,4.6-4.9,9.1-7.7,13.6l-1.1,1.7l-1.1,1.7c-0.4,0.6-0.9,1.1-1.3,1.6c-0.4,0.4-0.9,0.9-1.2,1.4
				c-1.7,1.9-3.3,3.9-5,5.9c-3.3,4-6.7,8-10,11.9c-3.4,3.9-6.9,7.8-10.6,11.5c-0.9,0.9-1.9,1.8-2.9,2.8l-3,2.6
				c-1.9,1.7-3.9,3.3-5.8,5.1c-3.9,3.4-7.9,6.8-12.1,9.9c-4.2,3.1-8.6,6-13,8.7c-9,5.3-18.5,9.9-28.3,13.5l-7.3,2.6l-7.7,2.3
				c-4.9,1.6-9.9,3.1-14.9,4.6c-10,2.9-20.1,5.5-30.5,6.9c-2.6,0.3-5.2,0.7-7.8,0.9c-2.7,0.2-5.2,0.3-7.9,0.4
				c-5.2,0-10.6-0.1-15.8-0.9c-2.7-0.2-5.2-0.9-7.8-1.3c-2.6-0.6-5.1-1.1-7.7-1.9c-5-1.3-10-2.7-15-4.1c-10-2.9-19.9-5.9-29.7-9.3
				c-2.4-0.9-4.9-1.8-7.3-2.8c-1.2-0.6-2.4-1-3.7-1.7l-3.4-1.9c-4.6-2.3-9.3-4.5-13.9-7.1c-2.2-1.3-4.5-2.7-6.7-4.1
				c-2.2-1.4-4.2-2.9-6.5-4.2c-4.3-2.7-8.9-5.1-13.5-7.7c-4.6-2.6-9-5-13.5-7.8c-2.2-1.3-4.5-2.8-6.6-4.2c-1.1-0.8-2.1-1.6-3.1-2.3
				c-1-0.9-2.1-1.7-3-2.6c-1-0.9-1.9-1.9-2.8-2.8l-2.7-2.8c-1.8-1.9-3.6-3.8-5.3-5.7c-3.4-3.9-6.7-8-9.8-12.1
				c-6.3-8.2-12.1-16.8-17.8-25.5c-5.7-8.7-11.1-17.5-16.1-26.6c-2.4-4.6-4.9-9.1-6.8-14.1l-1.2-3.7c-0.4-1.2-1-2.3-1.6-3.4
				l-3.6-6.9c-2.3-4.7-4.5-9.5-5.6-14.7c-1.2-5.1-1.8-10.3-2-15.6c-0.4-10.5,0.4-20.9,2.1-31.2c0.9-5.1,2-10.2,3.3-15.2
				c1.3-5,2.9-10,4.5-14.9c6.5-19.7,14.2-39.1,24.3-57.4c1.2-2.2,2.6-4.6,4-6.8c0.7-1.1,1.4-2.2,2.2-3.3c0.4-0.6,1-1.2,1.2-1.6
				l0.6-0.7l0.6-0.8c2.9-4.2,5.9-8.6,9.1-12.7c6.5-8.2,13.5-16,21.1-23.1s15.9-13.6,24.6-19.4l6.7-4.1c1.1-0.7,2.2-1.4,3.3-2
				l3.4-1.9l3.4-1.9c1.1-0.7,2.3-1.3,3.4-1.8l7.1-3.3c2.3-1.2,4.8-2.1,7.2-3.1l3.7-1.4c1.2-0.4,2.4-1,3.7-1.4c5-1.7,9.9-3.4,15-4.7
				l3.8-1l1.9-0.6l1.9-0.4l7.7-1.6c2.6-0.6,5.1-0.9,7.8-1.3l3.9-0.6l3.9-0.4l3.9-0.4l2-0.2l2-0.1l7.8-0.6l7.8-0.2c2.6,0,5.2,0,7.8,0
				c10.5,0.2,20.8,0.9,31.3,2.7h-0.3c9.2,0.4,18,1.8,26.9,3.4s17.7,3.9,26.3,6.6c8.7,2.7,17.1,5.9,25.4,9.6
				c8.2,3.8,16.1,8.1,23.8,13.1l2.8,1.9l1.4,0.9l1.4,1l5.5,4c3.4,2.9,7,5.7,10.3,8.9l2.4,2.3c0.8,0.8,1.6,1.7,2.3,2.4
				c1.6,1.7,3.2,3.2,4.7,5l4.3,5.2c0.8,0.9,1.4,1.8,2.1,2.7l2,2.8l2,2.8c0.7,0.9,1.2,1.9,1.9,2.9c1.2,1.9,2.4,3.8,3.7,5.8l3.2,6
				c0.6,1,1.1,2,1.6,3l1.3,3.1c3.9,8.1,6.6,16.9,9,25.6l-0.1-0.2c4,8.9,7.6,18,10.9,27.1c3.2,9.2,6.2,18.5,8.3,28
				c0.6,2.3,1,4.8,1.4,7.2l0.6,3.7l0.2,1.8l0.1,1.9l0.2,3.7l0.1,3.7l0.1,7.3C469.8,249.3,469.8,259,469,268.8z M468.6,268.7
				c0.2-4.8,0.3-9.7,0.2-14.6c0-4.9-0.1-9.7-0.3-14.6l-0.3-7.2l-0.2-3.7l-0.3-3.6l-0.2-1.8l-0.3-1.8l-0.6-3.6
				c-0.6-2.3-1-4.8-1.6-7.1c-2.3-9.3-5.3-18.6-8.8-27.7c-3.4-9-7.1-18-11.2-26.8c0-0.1,0-0.1-0.1-0.2v-0.1c-2.6-8.5-5.2-17-9.2-24.9
				l-1.4-3c-0.4-1-1-1.9-1.6-2.9l-3.2-5.8l-3.6-5.6c-0.6-0.9-1.2-1.9-1.8-2.8l-2-2.7l-2-2.7c-0.7-0.9-1.3-1.8-2-2.6l-4.3-5
				c-1.4-1.7-3.1-3.2-4.6-4.8c-0.8-0.8-1.6-1.6-2.3-2.3l-2.4-2.2c-3.2-3-6.7-5.8-10.1-8.6l-5-3.7l-1.3-1l-1.4-0.9l-2.8-1.8
				c-7.5-4.8-15.2-8.9-23.4-12.6c-8.1-3.6-16.5-6.7-24.9-9.2c-8.5-2.6-17.1-4.7-25.8-6.3c-8.7-1.6-17.6-2.8-26.3-3.2
				c-0.1,0-0.2,0-0.3,0l0,0c-9.9-1.7-20.3-2.4-30.5-2.6c-2.6,0-5.1,0-7.7,0l-7.7,0.2l-7.7,0.6l-1.9,0.1l-1.9,0.2l-3.8,0.4l-3.8,0.4
				l-3.8,0.6c-2.6,0.4-5.1,0.7-7.6,1.2l-7.6,1.6l-1.9,0.3l-1.9,0.4l-3.7,1c-5,1.1-9.8,2.9-14.7,4.5c-1.2,0.3-2.4,0.9-3.6,1.3
				l-3.6,1.4c-2.3,1-4.8,1.8-7.1,3l-6.9,3.2c-1.2,0.6-2.3,1.1-3.4,1.8L149,63l-3.3,1.8c-1.1,0.6-2.2,1.3-3.3,2l-6.6,4
				c-8.6,5.7-16.7,11.9-24.3,18.8c-7.6,6.9-14.6,14.5-20.9,22.5c-3.2,4-6.1,8.1-9.1,12.5l-0.6,0.8l-0.7,0.9l-1.1,1.4
				c-0.8,1-1.4,2-2.1,3.1c-1.3,2.1-2.7,4.3-4,6.6c-5.1,8.9-9.5,18.2-13.7,27.7c-4.1,9.5-7.8,19.1-11.1,28.8
				c-1.7,4.9-3.2,9.8-4.7,14.7c-1.3,4.9-2.6,10-3.4,15c-1.8,10.1-2.8,20.4-2.4,30.7c0.2,5.1,0.7,10.2,1.8,15.2
				c1.1,5,3.1,9.7,5.3,14.4l3.6,6.9c0.6,1.2,1.1,2.3,1.6,3.7l1.2,3.7c1.8,4.8,4.2,9.3,6.7,13.9c4.9,9,10.3,17.9,16,26.6
				c5.7,8.6,11.5,17.2,17.9,25.4c3.2,4.1,6.3,8.1,9.8,11.9c1.7,1.9,3.4,3.8,5.2,5.7l2.7,2.8c0.9,0.9,1.8,1.9,2.8,2.7
				c3.7,3.4,8.1,6.1,12.6,8.8c4.5,2.7,9,5.1,13.6,7.6c4.6,2.4,9.1,4.9,13.7,7.5c2.2,1.3,4.5,2.8,6.6,4.1c2.1,1.3,4.3,2.7,6.6,3.9
				c4.5,2.6,9.1,4.6,13.9,6.8l3.4,1.8c1.1,0.6,2.3,1,3.4,1.4c2.3,0.9,4.8,1.8,7.2,2.7c9.8,3.3,19.7,6.1,29.7,8.8
				c5,1.3,10,2.7,15,3.9c2.6,0.7,5,1.1,7.5,1.8c2.6,0.4,5,1,7.6,1.2c5,0.7,10.1,0.8,15.2,0.8c2.6-0.1,5.1-0.1,7.6-0.4
				c2.6-0.1,5.1-0.6,7.6-0.9c5-0.8,10.1-1.7,15.1-2.9c5-1.1,10-2.4,14.9-3.9c5-1.4,9.9-2.9,14.8-4.5l7.3-2.3l7.2-2.4
				c9.6-3.6,18.9-7.9,27.7-13c4.3-2.7,8.7-5.5,12.8-8.5c4.1-3,8.1-6.2,12-9.7c2-1.7,3.9-3.3,5.9-5l3-2.4c0.9-0.9,1.9-1.7,2.8-2.6
				c3.7-3.6,7.1-7.3,10.6-11.2c3.4-3.9,6.8-7.8,10.1-11.7c1.7-2,3.3-3.9,5.1-5.9c0.4-0.4,0.9-1,1.3-1.4c0.4-0.4,0.8-0.9,1.2-1.3
				l1.1-1.6l1.1-1.6c2.8-4.2,5.3-8.8,7.8-13.4s4.9-9.1,7.3-13.7c1.1-2.3,2.4-4.6,3.3-6.9c0.9-2.3,1.8-4.8,2.6-7.2
				c0.8-2.4,1.6-4.9,2.2-7.3c0.3-1.2,0.7-2.4,0.9-3.7c0.1-0.7,0.2-1.2,0.3-1.8v-0.4v-0.6c0-0.3,0.1-0.7,0.1-1
				c0.4-2.7,1.1-5.1,1.7-7.7c0.2-1.2,0.4-2.6,0.6-3.8c0-0.7,0.1-1.2,0-1.9l-0.1-0.9c0-0.3-0.1-0.7-0.1-1c0-1.3,0.3-2.7,0.6-3.9
				c0.3-1.2,0.7-2.6,1.1-3.8C466.7,273.4,467.6,271,468.6,268.7z"/>
		</g>
		<path class="st6" d="M393,253.1c1.4,0,5.8,9,9.5-3.2c3.8-12.2,9-17.7,2-20.7c-7-3-3.8,6.8-11.5,9.5c-7.7,2.8-8,7.3-8,7.3l3,7.6
			L393,253.1z"/>
		<path class="st8" d="M387.9,246c-0.4-1.1,8.1-10,9-11.7c0.9-1.7-0.7-4.6,3.7-3.7c4.5,0.9,5.3-0.2,5.8,2.1c0.4,2.3,1.8,2.4-0.4,4
			c-2.2,1.6-2.6,1.7-3,2.9c-0.4,1.2,0.4,2.9-1,4.1c-1.6,1.3-4.9,4.9-6.6,5.5C393.7,250,388.8,248.4,387.9,246z"/>
		<path class="st9" d="M395.4,236l-1.1,3c0,0,1.6,0.3-1.3,2.7c-2.9,2.3-2.9,4-1.2,2.8c1.7-1.2,1.2-0.3,1.8-1.7
			c0.6-1.3,0.8-1.8,0.8-1.8s1.2,0,1.6-1.6c0.3-1.6-0.1-1.7,0.2-2.2c0.3-0.6,1.3-2,0.7-1.8C396,235.7,395.4,236,395.4,236z"/>
		<path class="st6" d="M443.4,327.7c-1.3,1.6-27.4,34.2-27.4,34.2s-2,2.6-21.5,12.1c-19.5,9.6-77.2,23.1-77.2,23.1L312,390l2,7.1
			c0,0-56.4,3.8-83.3-6.1s-42.4-14.7-60.6-29.2c-18.2-14.5-23.3-22.3-30-28.4c-6.8-6.1-18.8-18-22-22.5c-3.1-4.5-12.1-12.6-20-28
			c-7.9-15.5-13.8-43.6-13.8-43.6s-7-39.7-7-46.5c0-6.9-2.4-8.9-1-22.6c1.4-13.7,1.7-24.1,6.5-31.7c4.8-7.7,4-17,9.3-22.4
			C97.5,110.7,443.4,327.7,443.4,327.7z"/>
		<g>
			<path class="st4" d="M460.7,306.3c0,0-32.2,38.3-51.8,50.2s-52.2,29.8-60.3,29.5c-8.1-0.3-28.5,3.8-32.7,3.1c0,0,0.8-1.3-1-3.1
				c-1-1-3-2.6-3.4-3.2c-1.1-1.7-9-5.8-9-5.8s5.7,6.8,6,10c0.3,3.1,2.1,3.2,1.1,2.9c-1-0.3-45.6,3.1-77.1-8.9
				c-31.6-12-55.5-19.5-75.9-37.3c-20.3-17.8-37.9-32.4-39.4-38.8c-1.4-6.5-3.2-11-7-14.7c-3.8-3.8-15.2-22.9-18.2-43.2
				c-3-20.3-9.7-46.8-11.2-58.9c-1.4-12,0.8-33.4,2.4-40.2c1.7-6.8,1-7.2,2.4-10.7c1.4-3.4,4.2-17.7,11.1-31.9
				c6.9-14.2,42.5-62.8,42.5-62.8l137.5,153.2l175.7,117.1"/>
			<path class="st5" d="M460.8,306.4c-9.1,11.1-18.8,21.8-28.9,32c-5.1,5.1-10.3,10-16.1,14.6c-1.4,1.1-2.9,2.2-4.5,3.2
				c-1.6,1-3.1,2-4.6,2.9c-3.1,1.9-6.1,3.8-9.2,5.6c-6.2,3.7-12.5,7.2-18.9,10.6c-6.3,3.3-12.8,6.7-19.6,9.5
				c-1.7,0.7-3.4,1.3-5.2,1.9c-0.9,0.2-1.8,0.6-2.8,0.7c-0.4,0.1-1,0.1-1.6,0.2c-0.6,0-1.1,0-1.6,0c-3.3,0-7,0.4-10.5,0.9
				c-3.6,0.4-7.1,1-10.7,1.4c-1.8,0.2-3.6,0.4-5.5,0.7c-0.9,0.1-1.8,0.2-2.8,0.2s-1.9,0.1-3.1,0L314,388c-0.1,0.1,0,0.1-0.1,0.1l0,0
				l0,0V388c0-0.1-0.1-0.2-0.2-0.4c-0.1-0.2-0.3-0.3-0.4-0.6l-0.8-0.8c-0.6-0.6-1.2-1-1.8-1.6l-0.4-0.4c-0.1-0.1-0.2-0.2-0.3-0.3
				c0,0-0.1-0.1-0.2-0.2s0,0-0.1-0.1c0,0-0.3-0.3-0.6-0.6c-1.1-0.9-2.4-1.7-3.8-2.4c-1.3-0.8-2.7-1.6-4.1-2.2l2.3-2.9
				c1.8,2.2,3.4,4.3,4.9,6.9c0.3,0.7,0.7,1.3,1,2c0.1,0.3,0.3,0.8,0.4,1.2c0.1,0.2,0.1,0.4,0.1,0.8l0.1,0.4c0.1,0.4,0.2,0.9,0.4,1.2
				c0,0.1,0.1,0.1,0.1,0.1l0,0l0,0c-0.1,1.7,0.6-3.9-2,3.2c0.2,0.1,0.1,0,0.1,0s0,0,0.1,0s0.1,0,0.2,0h-0.3
				c-5.3,0.2-10.8,0.3-16.2,0.2c-10.9-0.1-21.8-0.8-32.6-2.3c-5.5-0.8-10.8-1.8-16.1-3.2c-2.7-0.7-5.3-1.4-7.9-2.3
				c-2.7-0.9-5.2-1.9-7.7-2.8c-10.1-3.9-20.3-7.7-30.3-11.9c-5-2.1-10-4.3-14.8-6.8c-4.9-2.4-9.7-5.1-14.2-8.1
				c-4.6-3-8.9-6.3-13-9.9l-12.1-10.8c-4-3.6-8.1-7.2-12.1-10.9c-4-3.7-7.9-7.3-11.5-11.6c-0.9-1-1.8-2.1-2.4-3.3
				c-0.3-0.6-0.8-1.2-1-1.9c-0.1-0.3-0.2-0.7-0.3-1.1l-0.2-1c-0.7-2.6-1.3-5.1-2.4-7.6c-0.6-1.2-1.2-2.3-2-3.4
				c-0.3-0.6-0.8-1-1.2-1.6c-0.4-0.6-0.9-0.9-1.3-1.4c-1.9-2.1-3.2-4.5-4.7-6.8c-5.5-9.5-9.7-19.6-12.2-30.2c-0.3-1.3-0.6-2.7-0.8-4
				s-0.4-2.7-0.7-4c-0.4-2.7-0.9-5.3-1.3-8c-1-5.3-2-10.6-3.2-15.9l-3.4-15.9c-1.1-5.3-2.2-10.6-3.1-16c-0.8-5.5-0.8-10.9-0.7-16.4
				s0.6-10.9,1.2-16.2c0.3-2.7,0.7-5.5,1.2-8.1c0.7-2.8,1.2-5.1,1.6-7.9c0.2-1.4,0.7-3,1.2-4.2c0.4-1.1,0.8-2.4,1.1-3.7
				c0.7-2.6,1.4-5.2,2.1-7.8c1.6-5.2,3.2-10.5,5.3-15.5c1-2.6,2.2-5,3.6-7.5c1.3-2.4,2.7-4.8,4.1-7.1c11.6-18.5,24.1-36.1,36.8-53.6
				c0.7-0.9,2-1.1,2.9-0.4c0.1,0.1,0.2,0.2,0.3,0.3l0,0L175,78.8l34.5,38.3l34.4,38.4l34.3,38.4l-0.4-0.3l43.7,29.5
				c14.6,9.8,29.2,19.7,43.7,29.6l43.6,29.7l43.5,29.8c0.1,0.1,0.1,0.2,0.1,0.3c-0.1,0.1-0.2,0.1-0.3,0.1l-44.3-28.7l-44.2-28.8
				c-14.8-9.6-29.5-19.2-44.2-28.9l-44.1-29c-0.1-0.1-0.2-0.2-0.3-0.3l0,0l-34.5-38.2l-34.4-38.3l-34.3-38.4l-34.3-38.4l3.2-0.1
				c-6.3,8.7-12.7,17.5-18.9,26.3s-12.5,17.7-18.2,26.7c-1.4,2.2-2.8,4.6-4.1,6.9c-1.2,2.2-2.4,4.7-3.4,7.1c-2.1,4.9-3.9,9.9-5.5,15
				c-0.8,2.6-1.6,5.1-2.3,7.8c-0.4,1.3-0.8,2.6-1.3,4c-0.6,1.2-0.9,2.2-1.1,3.6c-0.2,1.3-0.4,2.7-0.8,4c-0.3,1.3-0.7,2.8-1,4
				c-0.6,2.6-1,5.2-1.3,7.9c-0.7,5.3-1.2,10.7-1.4,16c-0.2,5.3-0.3,10.8,0.4,16c0.7,5.3,1.8,10.6,2.8,15.9l3.2,15.9
				c1,5.3,2.1,10.6,3.1,15.9c0.4,2.7,0.9,5.3,1.3,8c0.2,1.3,0.4,2.7,0.7,4s0.4,2.7,0.8,3.9c2.3,10.5,6.5,20.6,11.9,29.8
				c1.3,2.3,2.8,4.6,4.6,6.6c0.4,0.4,0.9,1,1.3,1.4c0.4,0.6,0.9,1.1,1.3,1.7c0.8,1.1,1.6,2.3,2.1,3.6c1.2,2.6,2,5.2,2.7,7.8l0.2,1
				c0.1,0.3,0.1,0.6,0.3,0.9c0.2,0.6,0.6,1.1,0.9,1.7c0.7,1.1,1.6,2.1,2.3,3.1c3.4,4,7.5,7.7,11.5,11.3c4,3.7,8.1,7.1,12.1,10.7
				l12.4,10.6c4.1,3.4,8.5,6.7,12.9,9.5c4.6,2.9,9.2,5.5,14.1,7.8c4.8,2.3,9.8,4.5,14.8,6.5c10,4,20.3,7.6,30.4,11.2
				c2.6,0.9,5,1.9,7.6,2.7c2.6,0.9,5.1,1.6,7.7,2.2c5.1,1.3,10.5,2.2,15.7,3c10.6,1.6,21.4,2.1,32,2.2c5.3,0.1,10.7,0,16.1-0.1h0.7
				c0.1,0,0.3,0,0.4,0.1c0.1,0,0.3,0.1,0.3,0.1c0.1,0.1,0.2,0.1,0.6,0.2c-2.3,7.2-1.9,1.6-2.1,3.2c-0.1-0.1-0.2-0.1-0.2-0.2
				c-0.1-0.1-0.2-0.2-0.3-0.3c-0.2-0.2-0.3-0.4-0.6-0.7c-0.6-0.9-0.8-1.8-0.9-2.7l-0.1-0.6c0-0.1,0-0.1,0-0.2
				c-0.1-0.2-0.1-0.4-0.2-0.7c-0.2-0.6-0.4-1.1-0.8-1.6c-1.2-2.2-2.8-4.3-4.5-6.3l0,0c-0.7-0.8-0.6-2,0.3-2.7c0.6-0.4,1.4-0.6,2-0.2
				c1.4,0.8,2.8,1.6,4.2,2.3c1.4,0.9,2.8,1.7,4.2,2.8c0.3,0.3,0.7,0.6,1.2,1.1l0.1,0.2l0.1,0.1l0.3,0.3l1.8,1.6l0.9,0.9
				c0.3,0.3,0.8,0.8,1,1.2c0.3,0.4,0.6,1.1,0.7,1.8c0,0.3,0.1,0.7,0,1.1c0,0.2,0,0.3-0.1,0.6c0,0.1-0.1,0.2-0.1,0.3
				c0,0.1-0.1,0.2-0.2,0.4l-1.3-2.7c0.6,0.1,1.4,0.1,2.3,0c0.9,0,1.8-0.1,2.6-0.2c1.8-0.2,3.6-0.4,5.3-0.7c3.6-0.4,7.1-1,10.7-1.4
				c3.6-0.4,7.2-0.9,11-0.8c0.6,0,0.9,0,1.2,0c0.3-0.1,0.8-0.1,1.1-0.2c0.8-0.1,1.7-0.3,2.4-0.6c1.7-0.4,3.3-1.1,4.9-1.8
				c6.6-2.7,13-5.8,19.5-9c6.3-3.2,12.7-6.7,18.9-10.2c3.1-1.8,6.2-3.6,9.3-5.3c1.6-0.9,3.1-1.8,4.6-2.8c1.4-1,2.9-2,4.3-3.1
				c5.7-4.3,11-9.1,16.2-14c10.5-9.9,20.3-20.4,29.8-31.2c0.1-0.1,0.2-0.1,0.3,0C460.9,306.1,460.9,306.4,460.8,306.4z"/>
		</g>
		<path class="st6" d="M440.8,317.1c0,0-9,7.6-23.9,22.7c-14.9,15.1-56.9,28.6-63.9,29.2c-7,0.6-46.4,0.4-57.9-0.4
			c-11.5-1-35.9-5.5-48.4-9c-12.5-3.4-23.9-12.1-34.4-16.2s-32.9-13.7-38.4-16.1c-5.5-2.4-23.9-26.9-30.5-33.9
			c-6.6-7-28.5-18.6-29.5-25.5c-1-6.9-28.5-79.2-22.5-114.2s4.5-47.4,9-46.8c4.5,0.6,13.5-24,13.5-24s15.5,5.5,26.5,14.5
			S440.8,317.1,440.8,317.1z"/>
		<g>
			<path class="st7" d="M460.1,297l-2.8-3.4c0,0-8.7-1-8.7-0.1c0,0.8,6.7-3.3,6.7-3.3s-13.1-12.5-14.8-12.8c-1.7-0.3-4.1-1-4.1-1
				s-16.1-13-19.5-13.5c-3.3-0.4-9-2.7-9-2.7s-5.8-5.5-7.8-6c-2-0.6-15.9-5.7-29.5-14.5c-13.6-8.8-16.5-12-20.5-15
				c-4.1-3-46-35.3-48.8-38.3s-20.5-22.6-20.5-22.6s-8.1-10-13-12.4c-4.9-2.3-7.5-3.8-9.8-5.3c-2.3-1.4-6.3-6-10.3-8.8
				c-4-2.8-21.9-17.8-26.5-21.9c-4.5-4.1-8.3-9.7-11.5-12.4c-3.1-2.7-13.8-10-18.9-13.5c-5.1-3.4-8.5-8.8-11.1-12.1
				c-2.7-3.3-2.8-8.5-11.7-12c-8.9-3.6-13.8-10.5-15.8-12.1c-2-1.7-3.1-3-4.1-5.7s-4.3-3.3-5.7-3.7s-2.3-3.7-3.3-1.7
				c-1,2-1.7,2.8-3.4,2.7s0.1-2-2.8-0.7c-3.7,1.7-13,23.1-16.2,31.4c-3.3,8.3-8.3,26.3-10,31.3s-8,19.6-7,28.6
				c1,9,1.4,18.6-0.1,23.9c-1.6,5.3-2.6,13.7,2.4,45.8c5,32.2,20.3,58.9,33.6,71.5c13.4,12.7,19.2,16.2,21.3,21.6
				c2,5.3,27.9,27.9,48.2,36.3c20.3,8.3,24.9,17.9,45.6,18.9c0,0,30.7,12.1,61.1,11.3c29.9-0.9,37.4,4.7,81-12.7
				c33.3-13.2,57.5-35.7,67.1-45.6C462.3,304.4,462.5,300,460.1,297z"/>
			<path class="st5" d="M459.9,297.2l-2.8-3.4l0.1,0.1c-1.3-0.1-2.7-0.2-4.1-0.3c-1.3-0.1-2.8-0.2-4,0c-0.1,0-0.3,0.1-0.3,0.1v-0.1
				l-0.1-0.1h0.1c0.3-0.1,0.6-0.2,0.9-0.3c0.6-0.3,1.2-0.6,1.8-0.9c1.2-0.7,2.3-1.3,3.6-2.1v0.3c-2.9-2.7-5.8-5.5-8.8-8
				c-1.4-1.3-3-2.7-4.6-3.8c-0.4-0.3-0.8-0.6-1.2-0.8c-0.1-0.1-0.4-0.1-0.7-0.1l-0.8-0.1c-1-0.2-1.9-0.4-2.9-0.7H436l0,0
				c-4.3-3.4-8.7-6.8-13.2-9.9c-1.1-0.8-2.3-1.6-3.4-2.2c-0.6-0.3-1.2-0.7-1.8-0.9c-0.3-0.1-0.6-0.2-0.9-0.2c-0.3,0-0.7-0.1-1-0.2
				c-2.8-0.6-5.3-1.4-8-2.3c-0.1,0-0.1-0.1-0.2-0.1l0,0c-1.4-1.3-2.9-2.6-4.5-3.8c-0.8-0.6-1.6-1.1-2.3-1.6
				c-0.2-0.1-0.4-0.2-0.6-0.3l-0.2-0.1l-0.3-0.1c-0.4-0.1-1-0.3-1.4-0.4c-3.7-1.3-7.3-2.8-10.9-4.5c-7.1-3.2-14-7.1-20.6-11.5
				c-3.2-2.1-6.6-4.3-9.7-6.7c-1.6-1.1-3.1-2.3-4.7-3.6c-1.6-1.2-3-2.3-4.7-3.4c-6.2-4.7-12.6-9.3-18.7-14
				c-6.2-4.8-12.5-9.5-18.6-14.2c-3.1-2.4-6.1-4.8-9.2-7.3c-0.3-0.3-0.8-0.8-1.2-1.1l-1-1.1l-2-2.1l-4-4.3l-7.9-8.7l-3.9-4.3l-2-2.2
				c-0.6-0.8-1.2-1.4-1.9-2.2c-2.6-2.9-5.2-5.7-8-8c-0.3-0.2-0.7-0.6-1.1-0.8c-0.3-0.2-0.7-0.4-1-0.7c-0.8-0.4-1.8-0.9-2.6-1.3
				c-1.8-0.9-3.6-1.8-5.2-2.9c-0.9-0.6-1.7-1-2.6-1.7c-1-0.7-1.7-1.3-2.4-2c-1.4-1.3-2.9-2.7-4.2-4c-0.7-0.7-1.4-1.2-2.1-1.8
				c-0.3-0.3-0.8-0.6-1.1-0.9l-1.2-0.9c-1.6-1.2-3.1-2.4-4.6-3.7c-6-5-12-10-17.8-15.2c-1.4-1.3-3-2.7-4.3-4.1
				c-1.4-1.4-2.7-2.9-4-4.5c-1.2-1.4-2.6-3-3.8-4.5c-0.7-0.7-1.3-1.3-2-2c-0.7-0.6-1.4-1.2-2.2-1.8c-3.1-2.3-6.2-4.6-9.5-6.9
				l-4.8-3.3l-2.4-1.7c-0.8-0.6-1.7-1.2-2.4-1.9c-3.1-2.7-5.5-5.9-7.7-9c-0.6-0.8-1.1-1.4-1.8-2.4c-0.6-0.9-1-1.8-1.4-2.7
				c-0.9-1.7-1.9-3.2-3.2-4.6s-2.9-2.3-4.6-3.1l-2.7-1.1c-0.9-0.4-1.8-0.9-2.7-1.3c-3.4-2-6.6-4.7-9.2-7.5l-2-2.1
				c-0.3-0.3-0.7-0.7-1-1c-0.3-0.3-0.8-0.7-1.1-1c-0.8-0.7-1.4-1.6-1.9-2.4c-0.2-0.4-0.4-0.9-0.7-1.3c-0.2-0.4-0.4-1-0.6-1.3
				c-0.7-1.4-2.4-2.2-4.2-2.8l-0.7-0.2c-0.4-0.1-0.7-0.3-0.9-0.6c-0.4-0.4-0.8-0.8-1-1.2c-0.1-0.2-0.3-0.3-0.4-0.4
				c-0.1-0.1-0.2-0.1-0.1-0.1c0.1-0.1,0,0,0,0.1l-0.3,0.7c-0.2,0.4-0.4,0.9-0.9,1.3c-0.3,0.4-0.9,0.9-1.4,1
				c-0.7,0.2-1.1,0.1-1.8,0.1c-0.3,0-0.8-0.2-1.1-0.6c-0.1-0.2-0.2-0.4-0.2-0.6s-0.1-0.2,0-0.1c0.1,0.1,0.3,0.1,0.2,0.1
				c0,0-0.1,0-0.2,0c-0.2,0-0.4,0.1-0.6,0.2c-0.2,0.1-0.4,0.2-0.6,0.2c-0.1,0.1-0.3,0.2-0.4,0.3c-0.7,0.6-1.2,1.3-1.7,2.2
				c-2.1,3.2-3.8,6.7-5.6,10.2c-1.7,3.4-3.2,7-4.8,10.7c-1.6,3.6-3,7.1-4.3,10.8c-2.6,7.3-4.7,14.8-6.9,22.4
				c-0.6,1.9-1.1,3.8-1.7,5.7c-0.7,1.9-1.3,3.7-2,5.6c-1.3,3.7-2.6,7.3-3.4,11c-0.9,3.7-1.7,7.6-1.3,11.2c0.4,3.8,0.9,7.8,1,11.7
				c0.1,3.9,0.2,7.9-0.6,12c-0.1,0.4-0.2,1-0.3,1.6c-0.1,0.4-0.2,0.9-0.3,1.3c-0.2,0.9-0.3,1.8-0.4,2.8c-0.2,1.9-0.2,3.8-0.2,5.7
				c0.1,7.7,1.1,15.4,2.1,23c0.6,3.9,1.1,7.7,1.7,11.6c0.3,1.9,0.7,3.8,1,5.7s0.8,3.8,1.2,5.7c1.8,7.5,4.1,14.8,7.1,21.9
				c2.9,7.1,6.5,14,10.5,20.5c4.1,6.5,8.8,12.6,14.2,17.8c2.8,2.7,5.7,5.2,8.6,7.8c2.9,2.6,5.9,5.1,8.8,8.1c1.4,1.4,2.8,3.3,3.7,5.5
				c0.4,1.2,1.8,2.7,3,4c2.6,2.8,5.5,5.3,8.3,7.8c5.9,5,12,9.6,18.5,13.9c3.2,2.1,6.5,4.1,9.9,5.9c1.7,0.9,3.3,1.8,5.1,2.6
				c0.9,0.4,1.7,0.8,2.6,1.1c0.9,0.3,1.9,0.8,2.8,1.2c3.7,1.7,7.2,3.4,10.6,5.5c3.4,2,6.7,4.1,10,6c3.3,1.9,6.7,3.4,10.2,4.5
				s7.2,1.6,11,1.8c0.2,0,0.4,0.1,0.7,0.1l0,0c9,3.4,18.6,6.1,28.2,8.1c9.6,2,19.4,3.3,29,3.4l7.5-0.1c2.4,0,5,0,7.5,0.1
				c5,0.1,9.9,0.3,14.8,0.3c9.8,0.1,19.5-1.1,29-3.8c9.5-2.6,18.8-5.9,28-9.5c9.1-3.8,17.9-8.2,26.4-13.5c8.5-5.2,16.5-11,24-17.5
				c3.8-3.2,7.5-6.6,11-10c1.7-1.8,3.8-3.3,4.5-5.7C461.9,301.7,461.5,299,459.9,297.2z M460.2,296.9c1.7,2,2.2,4.8,1.4,7.2
				c-0.3,1.2-1.1,2.3-2,3.2s-1.8,1.8-2.7,2.7c-3.6,3.4-7.2,6.9-10.9,10.1c-7.5,6.5-15.5,12.5-23.8,17.9
				c-8.3,5.5-17.1,10.2-26.3,14.2c-9.1,3.9-18.5,7.5-28,10.3c-9.6,2.9-19.6,4.6-29.7,4.7c-5,0.1-10-0.1-14.9-0.1c-2.4,0-4.9,0-7.3,0
				l-7.5,0.2c-10.1,0.1-20.1-1.1-29.9-3c-4.9-1-9.8-2.1-14.6-3.6c-4.8-1.3-9.6-2.9-14.4-4.7l0.8,0.1c-4-0.2-8.1-0.7-12-1.8
				c-4-1.1-7.8-2.8-11.2-4.8c-3.6-2-6.8-4-10.1-6c-3.3-1.9-6.7-3.7-10.1-5.2c-0.9-0.4-1.8-0.8-2.7-1.1c-0.9-0.4-1.9-0.8-2.8-1.2
				c-1.9-0.8-3.6-1.8-5.3-2.7c-3.6-1.9-6.9-4-10.2-6.1c-6.6-4.3-12.9-9.1-18.9-14.4c-3-2.6-5.9-5.2-8.7-8.2c-0.7-0.8-1.3-1.6-2-2.3
				c-0.3-0.4-0.7-0.9-1-1.3c-0.1-0.3-0.3-0.4-0.4-0.9l-0.3-0.8c-0.6-1.4-1.6-2.8-2.8-4.1c-2.4-2.7-5.5-5.2-8.3-7.9
				c-2.9-2.6-5.8-5.2-8.7-8c-5.8-5.6-10.7-12-14.8-18.7c-4.1-6.8-7.7-13.8-10.7-21.1c-2.9-7.3-5.2-14.9-7-22.6
				c-0.4-1.9-0.9-3.9-1.2-5.8c-0.3-1.9-0.7-3.9-1-5.8c-0.6-3.9-1.1-7.8-1.6-11.7c-1-7.8-1.8-15.6-1.8-23.5c0-2,0.1-4,0.4-6
				c0.1-1,0.3-2,0.6-3c0.1-0.6,0.2-1,0.4-1.4c0.1-0.4,0.2-0.9,0.3-1.3c0.8-3.6,0.8-7.5,0.8-11.3c-0.1-3.9-0.4-7.7-0.8-11.6
				c-0.2-4.1,0.7-8.1,1.7-11.9c1-3.8,2.3-7.6,3.7-11.2c0.7-1.8,1.4-3.7,2-5.5c0.6-1.8,1.2-3.7,1.8-5.6c2.3-7.5,4.6-14.9,7.1-22.4
				c1.3-3.7,2.9-7.2,4.5-10.9c1.6-3.6,3.2-7.1,4.9-10.7c1.8-3.6,3.4-7,5.7-10.3c0.6-0.8,1.1-1.7,1.9-2.3c0.2-0.2,0.4-0.3,0.7-0.6
				c0.3-0.2,0.6-0.2,0.8-0.3c0.2-0.1,0.4-0.2,0.8-0.2c0.1,0,0.3-0.1,0.6-0.1c0.1,0,0.2,0,0.4,0c0.1,0,0.3,0.2,0.4,0.3
				c0.2,0.3,0.2,0.4,0.2,0.6c0,0.1,0,0.1,0,0.1s0,0,0.2,0.1c0.3,0,0.8,0,1.1-0.1c0.7-0.2,1.1-0.9,1.6-1.8l0.3-0.7
				c0.1-0.2,0.3-0.7,1-0.8c0.7-0.1,1,0.3,1.2,0.4c0.2,0.2,0.4,0.4,0.6,0.7c0.3,0.3,0.6,0.8,0.9,1c0.1,0.1,0.2,0.2,0.3,0.2l0.7,0.2
				c1,0.2,2,0.6,2.9,1.1s1.8,1.3,2.3,2.3c0.2,0.6,0.3,0.9,0.6,1.3c0.2,0.4,0.4,0.8,0.7,1.2c0.4,0.8,1,1.4,1.7,2.1
				c0.3,0.3,0.7,0.7,1,0.9c0.2,0.1,0.3,0.3,0.6,0.6l0.6,0.6l2,2.1c2.7,2.8,5.6,5.2,8.9,7.1c0.8,0.4,1.7,0.9,2.6,1.3l2.7,1.1
				c1.8,0.9,3.6,1.9,5.1,3.3c1.6,1.4,2.7,3.2,3.6,5c0.4,0.9,0.9,1.7,1.4,2.4c0.4,0.7,1.1,1.4,1.8,2.2c2.3,3.1,4.7,6.1,7.6,8.6
				c0.7,0.7,1.4,1.1,2.2,1.7l2.4,1.7l4.9,3.2c3.2,2.2,6.5,4.5,9.7,6.7c0.8,0.6,1.6,1.2,2.3,1.9c0.8,0.7,1.6,1.4,2.2,2.1
				c1.3,1.4,2.7,2.9,3.9,4.5c1.3,1.4,2.6,2.9,3.9,4.2c1.3,1.3,2.8,2.6,4.2,3.8c5.9,5,12,10,18,14.8c1.6,1.2,3,2.4,4.6,3.6l1.1,0.8
				c0.4,0.3,0.9,0.6,1.2,0.9c0.8,0.7,1.6,1.2,2.3,1.9c1.6,1.3,2.9,2.7,4.3,3.9c0.7,0.7,1.4,1.2,2.1,1.7s1.6,1,2.3,1.4
				c1.7,0.9,3.3,1.8,5.1,2.7l2.7,1.3c0.6,0.2,1,0.6,1.4,0.9c0.4,0.3,0.9,0.7,1.3,0.9c3.2,2.6,5.9,5.5,8.6,8.5
				c0.7,0.8,1.3,1.4,1.9,2.2l1.9,2.1l3.9,4.3l7.8,8.7l3.9,4.3l2,2.1l1,1.1l0.9,0.9c2.9,2.4,6,4.9,9,7.3l18.4,14.6l18.4,14.5
				c1.6,1.1,3.1,2.4,4.7,3.7c1.6,1.2,3,2.4,4.6,3.7c3,2.3,6.2,4.7,9.3,6.9c6.3,4.5,13,8.3,20,11.8c3.4,1.7,7,3.2,10.7,4.7
				c0.4,0.2,0.9,0.3,1.3,0.4l0.3,0.1l0.4,0.1c0.2,0.1,0.6,0.2,0.8,0.3c0.9,0.6,1.7,1.1,2.4,1.8c1.6,1.2,3,2.6,4.5,3.9l-0.2-0.1
				c2.6,1,5.1,1.9,7.8,2.6c0.3,0.1,0.7,0.1,1,0.2c0.3,0.1,0.8,0.2,1.1,0.3c0.7,0.3,1.2,0.7,1.9,1c1.2,0.7,2.3,1.4,3.4,2.3
				c4.6,3.2,8.9,6.6,13.1,10l-0.1-0.1c1,0.2,1.9,0.6,2.9,0.8l0.8,0.1c0.2,0.1,0.4,0.1,0.8,0.2c0.4,0.2,0.9,0.6,1.3,0.9
				c1.6,1.2,3.1,2.6,4.6,3.9c3,2.7,5.9,5.3,8.8,8.1c0.1,0.1,0.1,0.2,0,0.3l0,0c-1.1,0.7-2.3,1.4-3.6,2.1c-0.6,0.3-1.2,0.7-1.8,1
				c-0.3,0.1-0.7,0.3-1,0.3c-0.1,0-0.2,0-0.3,0c0,0-0.2-0.1-0.3-0.2s0-0.3,0-0.3c0.2-0.2,0.4-0.2,0.7-0.2c1.4-0.1,2.8,0,4.1,0
				c1.3,0.1,2.7,0.2,4.1,0.3c0.1,0,0.1,0,0.1,0.1L460.2,296.9z"/>
		</g>
		<circle class="st6" cx="439.5" cy="165.3" r="0"/>
		<path class="st6" d="M246,295.1c0,0-2.1,3.2-5.1,3.4c-3,0.2-3-0.7-4.6,0c-1.6,0.7-5.7,2.8-3.8-0.7s3.6-4.7,3.8-6.8
			c0.2-2.1-2.2-4.7,1.2-6.3c3.4-1.7,4.1-3,6.8-1.7c2.7,1.3,4,0.6,4.6,2.7c0.6,2.1,0.4,4.2-0.4,6.1s-1.8,2.3-1.8,2.9
			C246.8,295.2,246,295.1,246,295.1z"/>
		<path class="st6" d="M148.6,190.1c-0.9,0.7-2,1.2-3.1,1.4c-2.7,0.7-9.8,1.7-7.5,5.5c3.3,5.3,9,5.3,9,5.3l7-4.7l4.3-5.3
			c0,0,2-5.3-4.7-5.3C149.5,187.1,149.9,189,148.6,190.1z"/>
		<path class="st6" d="M47.4,228.7c-2.4,0.4-4,2.7-3.8,5.1c0.2,2.1,0.8,4.6,1.8,6.2c2.1,3.4,5.8,3.4,5.8,3.4l0,0
			c2.4,0.7,5-0.8,5.6-3.2l1-3.8c1.1-4.1-1.9-8.2-6.1-8.2h-0.1C50.1,228.3,48.7,228.5,47.4,228.7z"/>
		<path class="st6" d="M319.5,269.4c0,0-1.1-0.1-1.4,1.2c-0.4,1.4-1.2,2.2,0,2.6c1.2,0.3,0.8,1.2,2.4,0.3c1.7-0.9,2-0.8,2-2
			c0-1.1-0.1-2.2-1.1-2.1C320.4,269.4,319.5,269.4,319.5,269.4z"/>
		<path class="st6" d="M309,278.6c-0.6,0.6-2.3,1-0.6,3.3c1.8,2.3,4,3.3,5.1,3.4c1.1,0.1,1.9-2.8,4.9-1.2c3,1.4,6.2-3.9,3.9-4
			c-2.3-0.1-6-0.8-7.3-0.8s-1.1,0.8-2.4-0.1c-1.3-0.9-1-2.3-2-1.8C309.7,277.9,309,278.6,309,278.6z"/>
		<path class="st6" d="M326.4,101.9c2.4-0.6,3.6-3.1,2.8-5.5c-0.1-0.3-0.2-0.7-0.1-1c1.6-14.2,4.7-21.5-0.7-24.1
			c-5.3-2.8-6.1-4.5-6.1-4.5s3.2,7.7,3.2,10c0,2.3-3.2,0.2-3.2,6s4.5,4.2,3.4,10.5s-1.6,2.6-0.4,8.5
			C325.4,102,325.8,102,326.4,101.9z"/>
		<path class="st6" d="M463.5,252.1c0,0-1.4,3.2,0-11c1.4-14.2,4.7-21.5-0.7-24.1c-5.3-2.8-6.1-4.5-6.1-4.5s3.2,7.7,3.2,10
			s-2,2.8-2,8.5c0,5.8,3.2,1.8,2.2,8c-1,6.2-4.2,3.8-0.4,8.5C463.5,252.1,463.5,252.1,463.5,252.1z"/>
		<path class="st6" d="M240.2,109.1c0,0,2.7,12.5,5.5,13.7c1.2,0.6,3.9,1.1,6.6,1.6c3.3,0.6,6.7,1,6.7,1s8.2-2.6,4-2
			c-4.2,0.6-12.8-0.6-15.6-3.6c-2.8-3-4.3-6.2-4.3-6.2L240.2,109.1z"/>
		<path class="st6" d="M328.2,352.9c0,0,8.6,9.3,11.6,9c1.3-0.1,4-1.1,6.5-2c3.2-1.2,6.2-2.6,6.2-2.6s5.8-6.5,2.3-3.8
			c-3.4,2.7-11.8,1.3-15.7,0.2c-3.9-1.1-5.8-0.3-5.8-0.3L328.2,352.9z"/>
		<path class="st6" d="M147.9,78.5l-1.2,8c0,0,1.4,1.4,4.3,1.7c2.8,0.1,1.3-2.4,3.4-3.8c2.1-1.3,3.4-2.4,3.4-2.4s-1.1-4.8-4.8-4
			c-3.7,0.8-5.8-0.1-5.8-0.1"/>
		<path class="st6" d="M262.2,416.4c-0.4,5.7-4.3,1.3-4.7,10.1c-0.3,8.8,2,6.7,2.3,8.8s-1.8,4.1,1.3,4.8c3.1,0.7,7.7-1,7.7-1
			l2.3-1.4c0,0,8.1-5,2.7-6.1c-5.5-1.1-10.3,2.4-5.5-1.1c4.9-3.6,9.3-2.8,4.8-4.3c-4.5-1.4-6.6-3.7-6.6-3.7l-0.4-2.4
			c0,0-0.2-2.7-0.4-4.7c-0.2-2,0.8-4.3-1.1-3.1c-1.8,1.1-2.7,1.4-2.7,2.3C262.1,415.2,262.2,416.4,262.2,416.4z"/>
		<path class="st6" d="M257.5,418.6c1.6-1.8,0.3-2.2,2.2-5.8c1.9-3.7,1.2-6.7,1.2-6.7s0.1,0.4-0.9,2.4c-0.9,2-1,0.8-2.6,3.8
			c-1.6,3,0.2,2.9-1,5.3c-1.3,2.4-2.2,0.7-1.8,3.3C255.2,423.8,257.5,418.6,257.5,418.6z"/>
		<path class="st6" d="M145.7,279.6c-1-2.2-1.8-1.2-4.3-4.5c-2.4-3.2-5.6-3.9-5.6-3.9s0.4,0.1,1.8,1.8c1.4,1.7,0.3,1.2,2.3,3.9
			c2,2.7,2.7,1,4.3,3.2c1.7,2.2-0.3,2.3,2.3,3C149.2,283.9,145.7,279.6,145.7,279.6z"/>
		<path class="st6" d="M244.7,414.4c3.7-0.4,3.7-2.2,5.3-2c1.7,0.2,2.3-0.7,2.3,0.9s0,2.4,0,2.4s1.9-0.7,1.6,0.4
			c-0.3,1.1-2.4,1.7-4,2.4c-1.7,0.9-2.2-0.4-2.8-1.7c-0.6-1.2-0.2-1.7-1.2-1.6C244.9,415.6,242.9,414.6,244.7,414.4z"/>
		<path class="st8" d="M234.6,296.6c-0.3-0.9,3.6-6.9,4.2-8.2c0.7-1.3-0.6-3.6,2.9-2.9c3.4,0.7,4.1-0.1,4.6,1.7
			c0.3,1.9,1.3,1.9-0.3,3.1c-1.7,1.2-3.6,1.2-3.9,2.1c-0.3,1,0.2,1.2-1,2.2c-1.2,1-1.6,0.9-3,1.3
			C236.8,296.5,235.3,298.4,234.6,296.6z"/>
		<path class="st8" d="M47.4,242.3c-0.8-0.3-2-6.7-2.4-8c-0.3-1.2-2.6-1.9,0.1-3.7c2.7-1.7,2.6-2.7,4-1.8c1.4,1,2.1,0.4,1.7,2.2
			c-0.3,1.9-1.6,3-1.1,3.8c0.3,0.8,0.9,0.7,0.8,2.1c-0.1,1.4-0.4,1.6-1.1,2.7C48.8,240.9,49,243.1,47.4,242.3z"/>
		<path class="st9" d="M241.9,288.5l-0.9,2.3c0,0,1.2,0.3-1,2.1c-2.2,1.8-2.2,3.1-1,2.2c1.3-0.9,0.9-0.3,1.3-1.3
			c0.4-1,0.6-1.3,0.6-1.3s1,0,1.2-1.2s-0.1-1.3,0.1-1.8c0.2-0.4,1-1.6,0.4-1.4C242.4,288.1,241.9,288.5,241.9,288.5z"/>
		<path class="st9" d="M265.3,424.2l-1.1,3c0,0,1.6,0.3-1.3,2.7s-2.9,4-1.2,2.8c1.7-1.2,1.2-0.3,1.8-1.7c0.6-1.3,0.8-1.8,0.8-1.8
			s1.2,0,1.6-1.6c0.3-1.6-0.1-1.7,0.2-2.2c0.3-0.6,1.3-2,0.7-1.8C266,423.9,265.3,424.2,265.3,424.2z"/>
		<path class="st9" d="M240,287.3c1.6-0.6,1.4-1.1,1.4-1.1l-0.4-0.3c0,0-0.4,0.1-1.2,0.9c-0.8,0.8-0.8,0.3-0.8,0.3L240,287.3z"/>
		<path class="st9" d="M47.6,233.7c2-0.7,1.3-1.8,1.3-1.8l-0.6-0.4c0,0-0.6,0.1-1.6,1.1c-1,1-0.2,4.5-0.2,4.5L47.6,233.7z"/>
		<path class="st8" d="M147.5,199.8c3.1-1,5.2-2.1,6.2-3.9c1-1.8,2-3.6,2-3.6s1.3-4.7-0.9-2.8s-0.7,1.3-4,3
			c-3.3,1.7-7.5,2.6-7.5,2.6s-0.1,1.7,0.7,2.3C145,198.1,147.5,199.8,147.5,199.8z"/>
		<path class="st9" d="M147.4,196.8c1.9-1.1,4.5-3.3,2.7-2.1c-1.8,1.2-3.8,0.8-4.5,1.2c-0.7,0.4-1.1,0.4-0.7,0.9s0.1,0.3,1,0.4
			C146.9,197.2,147.4,196.8,147.4,196.8z"/>
		<path class="st6" d="M189.6,93.3c10.5,9,10.5,9,10.5,9l5.8,7.7c0,0,6.8,4.5,13.2,9.2c6.5,4.8,9.7,8.5,12.7,12.2s6.2,6,6.2,6
			l13.2,11l-11-3.8c0,0-0.4,0.2-6.8-6c-6.2-6.2-9.2-13-14.2-15.9c-5-2.9-11-7.7-17.5-10c-6.5-2.2-10-11-10.7-12
			c-0.8-1-4.8-7.5-4.8-7.5S189.6,93.3,189.6,93.3z"/>
		<path class="st6" d="M326.6,364.5c-0.7,0-12.1,1.9-12.1,1.9l-19.1-3.3l-21.9-4.7c0,0-20.5-1.3-27.8-4.3
			c-7.3-3-20.5-11.3-20.5-11.3L212,335l-13.4-3.6c0,0-16.8-10.5-18.9-13.1s9.7,4,13.8,6.7c4.1,2.7,12.7,5.5,18.6,7.3
			s11,6.5,12.7,7.1c1.7,0.7,16.2,12.1,24.6,12.5c8.3,0.3,28.5,4.1,28.5,4.1s12.8,2.4,20.8,4.3c8,1.8,16.1,2.8,16.1,2.8
			s12.8-0.1,13.5-0.1C328.9,363.1,326.6,364.5,326.6,364.5z"/>
		<path class="st10" d="M218,41.6c7.6,0,20.7-3.8,29.5-2.8c8.8,0.9,13,2.4,13,2.4s-7.5,1.4-17.2,2.4s-9.1,1.1-14.9,1.1
			c-5.8,0-13,0.3-13,0.3l-15.7,2.4c0,0-6.9,0-5.6,0.1c1.3,0.1,14.9-4,14.9-4L218,41.6z"/>
		<g>
			<g>
				<path class="st10" d="M315.5,130.6c2.1,0,2.1-3.3,0-3.3C313.3,127.2,313.3,130.6,315.5,130.6L315.5,130.6z"/>
			</g>
		</g>
		<g>
			<g>
				<path class="st10" d="M305.4,158.8c2.1,0,2.1-3.3,0-3.3C303.2,155.5,303.2,158.8,305.4,158.8L305.4,158.8z"/>
			</g>
		</g>
		<path class="st6" d="M446.7,295.5c0,1.1-1,8.3-1,8.3l-3,1.8c0,0-0.7,0.8-0.4,1.8c0.1,1,2.3,3.7,5.5-0.8s3.1-5.8,3.1-5.8l-2-5.3
			H446.7z"/>
		<path class="st11" d="M137.5,269.7c1,0.7,18.5,27.1,24.9,32.4c6.5,5.3,17.6,11.1,17.6,11.1l20.9,13.6c0,0,30.5,13.5,36.7,17.8
			c6.3,4.3,20.8,7.8,29.4,8.3c8.6,0.4,23.9,3,23.9,3s-45.4-9-53.1-13.4c-7.7-4.3-25.6-11.7-34.5-17.1c-8.9-5.5-36.2-20.8-39.8-25.1
			C159.9,296,137.5,269.7,137.5,269.7z"/>
		<path class="st12" d="M268.5,453.1c-0.4,0-10.3,2.9-14,2.3c-3.6-0.4-12.1-0.8-18.7-2.3c-6.6-1.6-19.7-4-25.1-4
			c-5.5,0-23.8-3.3-32.3-9.1c-8.5-5.8-24.1-12.4-24.1-12.4l-12.4-7.5c0,0,1-1.9,14.7,6s34.3,18.6,48.1,19.5
			c13.8,0.9,32,4.9,38.3,6.2C249.1,453.2,268.5,453.1,268.5,453.1z"/>
		<path class="st12" d="M146.2,405.5c-0.4-0.2-10.3-3.1-13-5.5c-2.8-2.3-9.8-7.1-14.5-12c-4.7-4.9-14.5-13.9-19.1-16.9
			s-18.4-15.6-22.4-25c-4.1-9.3-13.8-23.4-13.8-23.4L57,309.8c0,0,1.9-1.1,9.2,12.9s19,34,30.2,42.2s24.5,21.3,28.9,25.8
			C129.8,395.3,146.2,405.5,146.2,405.5z"/>
		<path class="st12" d="M83,151.9l-1.4,30.9c0,0,11,57.6,15.5,71.4c4.5,13.7,8.5,24.9,11.7,30.7c3.2,5.8,7.7,15.7,10.5,20.7
			c2.8,5,6.2,8.5,7.7,8.7c1.4,0.2-18.7-30.2-19.9-37.2c-1.2-7-10-36.4-14.2-53.6s-8.5-41.9-8.5-41.9s0.8-19.2,0-26.5
			C83.5,147.9,83,151.9,83,151.9z"/>
		<path class="st12" d="M306.2,380.1c0.1,0.2,2.9,8.9,2.9,8.9s-5.6,0.7-6.7,0.3c-1.1-0.3,1-4.2,1-4.6c0-0.3-3-4.3-3-4.3l-1.9-6.5
			c0,0,6.8,0.1,9.2,2.3c2.4,2.1,5,5.3,5,5.3l11.6,6.1l-5.7-0.3c0,0-0.6,2.8-2.8,0c-2.1-2.8-5.8-6.7-5.8-6.7l-4.6-2.8L306.2,380.1z"
			/>
		<circle class="st6" cx="277.2" cy="335.6" r="1.1"/>
		<circle class="st6" cx="258.7" cy="333.3" r="1.3"/>
		<circle class="st6" cx="248.8" cy="320.3" r="0.8"/>
		<circle class="st6" cx="262.5" cy="294.6" r="1.1"/>
		<g>
			<path class="st7" d="M119.5,157.1c0,1.1-0.3-0.6-1.4-0.6c-1.1,0-1.4,0.4-1.4-0.7s-0.6-3,0.6-3
				C118.4,152.8,119.5,155.9,119.5,157.1z"/>
			<path class="st5" d="M119.5,157.1c0,0.1,0.1,0.2,0,0.4c-0.1,0.1-0.2,0-0.2,0l-0.1-0.1c-0.1,0-0.1-0.1-0.2-0.1
				c-0.2-0.1-0.4-0.2-0.7-0.2c-0.2-0.1-0.8-0.2-1.3-0.3c-0.1,0-0.3,0-0.4-0.2c-0.1-0.1-0.1-0.3-0.2-0.4c-0.1-0.3-0.1-0.6-0.2-0.8
				c-0.1-0.4-0.2-1-0.2-1.7c0-0.3,0-0.7,0.4-1.1c0.4-0.3,1-0.3,1.3-0.2c0.8,0.4,1,0.9,1.2,1.4c0.2,0.6,0.3,1.1,0.4,1.6
				C119.4,155.9,119.5,156.5,119.5,157.1z M119.4,157.1c-0.1-1-0.7-2-1.3-2.7c-0.3-0.3-0.7-0.8-0.9-0.8c-0.1,0-0.1,0-0.1,0
				s-0.1,0.1-0.1,0.3c-0.1,0.4,0,0.9-0.1,1.4c0,0.2-0.1,0.6-0.1,0.8c0,0.1,0,0.2,0,0.3c0,0,0.1,0.1,0.2,0c0.2,0,0.4-0.2,0.8-0.3
				c0.2-0.1,0.7-0.1,1,0.1C119.2,156.4,119.3,156.7,119.4,157.1v0.2c0,0.1,0.1,0.1,0,0.1C119.4,157.3,119.4,157.2,119.4,157.1z"/>
		</g>
		<g>
			<circle class="st7" cx="375.9" cy="325.1" r="1.1"/>
			<path class="st5" d="M377.1,325.1c0,0.3-0.1,0.6-0.3,0.9c-0.2,0.2-0.4,0.4-0.9,0.6c-0.8,0.1-1.4-0.6-1.6-1.3
				c0-0.4,0.1-0.8,0.3-1.1c0.3-0.3,0.8-0.6,1.1-0.4c0.4,0,0.8,0.3,1,0.7C377.1,324.4,377.1,324.7,377.1,325.1z M377,325.1
				c0-0.3-0.2-0.4-0.4-0.6c-0.2-0.1-0.4,0-0.6,0c-0.2,0.1-0.6,0.1-0.7,0.6c-0.1,0.3,0.2,0.8,0.7,0.8c0.2,0,0.4,0,0.7-0.1
				S377,325.4,377,325.1z"/>
		</g>
		<circle class="st6" cx="177.4" cy="267.8" r="1.1"/>
		<circle class="st6" cx="158.9" cy="265.3" r="1.1"/>
		<circle class="st6" cx="148.9" cy="252.4" r="1.1"/>
		<circle class="st6" cx="162.7" cy="226.6" r="1.1"/>
		<circle class="st6" cx="181.3" cy="228.8" r="1.1"/>
		<circle class="st6" cx="213" cy="229.3" r="0.6"/>
		<circle class="st6" cx="194.4" cy="226.8" r="1.4"/>
		<circle class="st13" cx="396.9" cy="100.4" r="1.1"/>
		<circle class="st13" cx="396.9" cy="201.1" r="1.1"/>
		<circle class="st6" cx="198.2" cy="188.1" r="1.1"/>
		<circle class="st6" cx="216.8" cy="190.3" r="1.1"/>
		<g>
			<circle class="st7" cx="214" cy="296.9" r="2.1"/>
			<path class="st5" d="M216.1,296.9c0,0.6-0.1,1.1-0.4,1.8c-0.3,0.6-1,0.9-1.8,0.8c-0.7-0.1-1.2-0.6-1.6-1c-0.3-0.4-0.7-1-0.8-1.6
				c-0.3-1.3,1-2.8,2.4-2.7c0.7,0,1.4,0.3,1.8,1C216.1,295.8,216.1,296.5,216.1,296.9z M216,296.9c0-0.6-0.3-1-0.8-1.2
				c-0.4-0.2-0.8-0.3-1.2-0.2c-0.8,0-1.6,0.6-1.8,1.4c-0.1,0.4,0,1,0.4,1.3c0.4,0.3,0.9,0.3,1.3,0.2c0.4-0.1,0.8-0.2,1.2-0.4
				C215.7,298,216,297.5,216,296.9z"/>
		</g>
		<path class="st6" d="M393.8,84.3c-3.1,0-15.2-7-15.2-10.1c0-3.1,7.6,1.3,10.7,1.3c3.1,0,5.7,2.6,5.7,5.7
			C394.8,84.2,396.9,84.3,393.8,84.3z"/>
		<circle class="st6" cx="224.8" cy="315.3" r="1.1"/>
		<circle class="st6" cx="212.9" cy="277.2" r="1.1"/>
		<circle class="st6" cx="129.1" cy="106.4" r="0.4"/>
		<circle class="st6" cx="131.9" cy="99.6" r="1.7"/>
		<circle class="st6" cx="143.2" cy="97.9" r="0.4"/>
		<circle class="st6" cx="143.2" cy="103.6" r="0.4"/>
		<circle class="st6" cx="119.8" cy="144.5" r="1.2"/>
		<circle class="st6" cx="144.1" cy="135.6" r="0.2"/>
		<circle class="st6" cx="122.5" cy="132.5" r="0.6"/>
		<ellipse class="st6" cx="128.1" cy="128.9" rx="1" ry="0.4"/>
		<circle class="st6" cx="132.3" cy="123.6" r="0.8"/>
		<circle class="st6" cx="129.7" cy="155.9" r="0.6"/>
		<ellipse class="st6" cx="119" cy="165.2" rx="0.9" ry="0.3"/>
		<circle class="st6" cx="111.8" cy="177.7" r="0.2"/>
		<circle class="st6" cx="141.2" cy="169.5" r="0.7"/>
		<circle class="st6" cx="157.6" cy="175.9" r="0.2"/>
		<ellipse class="st6" cx="169.3" cy="160.5" rx="0.8" ry="1.1"/>
		<circle class="st6" cx="153.6" cy="147.8" r="0.4"/>
		<path class="st6" d="M374.8,303.4c0,0,7.3,1.8,10.7,0c3.3-1.8-2.7-1.3,6.1-4.3c8.7-3,14-9.2,14-9.2s-3.1,0.8-9.7,4
			c-6.6,3.2-8.6,4.1-11.6,4.6c-3,0.4-8.7-1.4-9.5-1.4s-10-4.1-10-4.1s4.9,8,6.6,8c1.8,0,3.1,1.3,3.9,1.4
			C376.1,302.4,374.8,303.4,374.8,303.4z"/>
		<path class="st6" d="M173.8,112.7c-1.9,3.2-4.6,4.2-2.2,5.3s0.9,0.9,3.7,1.9c2.8,1,3.9,2.8,4.6,2.8c0.8,0-3.2,1.7-3.2,1.7
			s-1.4-2-3.2-3.4c-1.8-1.3-4.1-2.4-4.1-2.4s-1.6-2.1,0-3.4C170.7,113.7,173.8,112.7,173.8,112.7z"/>
		<ellipse class="st6" cx="181" cy="416.4" rx="1.2" ry="0.7"/>
		<ellipse class="st6" cx="173.2" cy="409.7" rx="0.6" ry="1.1"/>
		<circle class="st6" cx="143.8" cy="397.2" r="0.8"/>
		<circle class="st6" cx="129.4" cy="377.6" r="1.4"/>
		<circle class="st6" cx="157.3" cy="397.7" r="0.6"/>
		<circle class="st6" cx="201.8" cy="422.1" r="2.1"/>
		<ellipse class="st6" cx="224.7" cy="434.5" rx="1.4" ry="0.8"/>
		<ellipse class="st6" cx="293.1" cy="424.2" rx="1.4" ry="0.8"/>
		<ellipse class="st6" cx="247.5" cy="440.8" rx="1.6" ry="0.4"/>
		<circle class="st6" cx="233.5" cy="422.5" r="0.7"/>
		<circle class="st6" cx="198.9" cy="400.7" r="0.8"/>
		<circle class="st6" cx="161.5" cy="381.1" r="0.3"/>
		<ellipse class="st6" cx="106.2" cy="357.2" rx="0.9" ry="0.3"/>
		<circle class="st6" cx="97.2" cy="333.7" r="0.4"/>
		<ellipse class="st6" cx="90.3" cy="304.5" rx="0.4" ry="0.9"/>
		<ellipse class="st6" cx="78.4" cy="304.9" rx="1.1" ry="0.4"/>
		<ellipse class="st6" cx="108.3" cy="326" rx="2" ry="0.3"/>
		<circle class="st6" cx="74.5" cy="316.3" r="0.6"/>
		<ellipse class="st6" cx="124.5" cy="344.6" rx="1.7" ry="1.1"/>
		<circle class="st6" cx="59.9" cy="277" r="0.2"/>
		<circle class="st6" cx="74.1" cy="264.9" r="0.7"/>
		<ellipse class="st6" cx="58.9" cy="250" rx="1.3" ry="0.7"/>
		<circle class="st6" cx="68.9" cy="223.8" r="0.2"/>
		<circle class="st6" cx="56.8" cy="208.5" r="1.3"/>
		<circle class="st6" cx="62.6" cy="182.2" r="0.4"/>
		<circle class="st6" cx="66.4" cy="168.1" r="0.9"/>
		<circle class="st6" cx="67.6" cy="197" r="1.2"/>
		<circle class="st6" cx="49" cy="217.4" r="0.9"/>
		<g>
			<circle class="st7" cx="58.5" cy="280.8" r="1.4"/>
			<path class="st5" d="M59.9,280.8c0,0.8-0.6,1.6-1.4,1.8c-0.4,0.1-1,0-1.3-0.3c-0.4-0.3-0.7-0.9-0.7-1.3c0-0.6,0.2-1.1,0.7-1.3
				c0.4-0.3,0.9-0.4,1.3-0.3C59.3,279.1,59.9,280,59.9,280.8z M59.9,280.8c0-0.3-0.2-0.8-0.4-1c-0.3-0.2-0.7-0.3-1-0.2
				c-0.7,0.2-0.9,0.8-0.9,1.2c0,0.4,0.2,1,0.9,1.2c0.3,0.1,0.7,0,1-0.2C59.7,281.6,59.9,281.1,59.9,280.8z"/>
		</g>
		<circle class="st6" cx="42.3" cy="257.5" r="0.4"/>
		<path class="st6" d="M46.9,283c0,0-7.7-14.7-7.2-19.4c0.4-4.7,0.6-6.9,0.6-6.9s0.6,2.3,1.7,4.2s3.8,1.2,5.9,1.4
			c2.2,0.3,4.9,0.7,4.3,0.7c-0.4,0-3.4,1.3-5.8,1.8c-2.3,0.3-2.4-1.9-3.2,0.2c-0.8,2.2-1.7,3-0.2,4.8C44.5,271.7,46.9,283,46.9,283z
			"/>
		<path class="st6" d="M418.2,375c-0.7,0.3-30.2,28.9-35,31.3c-5,2.3-17.6,13.4-29.6,17.5c-12,4.1-22.6,8.6-29.6,10.7
			c-7,2.1-17.6,3.4-17.6,3.4s41.9-13.5,53.7-19.8c11.8-6.3,26.1-18.9,28.6-20.6c2.4-1.7,15.5-13.7,18.8-16.6
			C410.7,377.8,418.2,375,418.2,375z"/>
		<path class="st6" d="M139.2,46c2.2,1.7,8.3,7.5,10.5,10.2c2.1,2.8-1.9,4,9.6,11c11.5,7,10.9,6.3,16.5,10.6c5.6,4.1,3.4,2.3,0-2.4
			c-3.4-4.8-4.6-5.6-10.6-8.5c-6-2.9-11.8-8.1-12.9-10.3c-1.1-2.2-4.2-7.5-6.6-8.7c-2.3-1.2-5.5-1.8-5.5-1.8h-1V46z"/>
		<path class="st6" d="M119.3,228.8c0,0,5.3,5.1,8.8,4.8s1.3-1.3,5.7-1c4.3,0.3,4.7-0.2,5.8,0c1.1,0.2-13.5-3.4-15.9-4.9
			c-2.4-1.4-4.5-2.2-5.7-4.9c-1.1-2.7-1.4-4.1-3.4-4c-2,0.1,2,7.5,2,7.5l-1,0.7L119.3,228.8z"/>
		<circle class="st6" cx="300.2" cy="439.4" r="1.2"/>
		<circle class="st6" cx="307.8" cy="430.2" r="0.7"/>
		<circle class="st6" cx="317.4" cy="425.3" r="1.9"/>
		<circle class="st6" cx="287.6" cy="436.3" r="0.4"/>
		<circle class="st6" cx="325.6" cy="402.4" r="0.6"/>
		<circle class="st6" cx="350.1" cy="407.2" r="0.1"/>
		<circle class="st6" cx="375.3" cy="392.5" r="0.6"/>
		<circle class="st6" cx="386.1" cy="386" r="1.1"/>
		<circle class="st6" cx="416.7" cy="369.2" r="0.4"/>
		<circle class="st6" cx="424" cy="365.6" r="0.8"/>
		<circle class="st6" cx="427.2" cy="356.7" r="0"/>
		<circle class="st6" cx="157" cy="365.1" r="0.3"/>
		<circle class="st6" cx="133.3" cy="350" r="0.3"/>
		<circle class="st6" cx="94.6" cy="285.9" r="0"/>
		<circle class="st14" cx="242.4" cy="374.6" r="1.7"/>
		<circle class="st14" cx="226.4" cy="363.8" r="0.2"/>
		<circle class="st6" cx="436.3" cy="218.4" r="0.8"/>
		<circle class="st6" cx="430.4" cy="203.2" r="0.4"/>
		<circle class="st6" cx="415.3" cy="198.4" r="1.4"/>
		<circle class="st6" cx="441.8" cy="192.4" r="0.2"/>
		<circle class="st6" cx="448.7" cy="190.2" r="0.8"/>
		<circle class="st6" cx="430.1" cy="163.8" r="2.1"/>
		<circle class="st6" cx="418.3" cy="145.4" r="1"/>
		<circle class="st6" cx="394" cy="152.4" r="0.8"/>
		<circle class="st6" cx="393.3" cy="124.6" r="0.8"/>
		<circle class="st6" cx="406.5" cy="120.3" r="1"/>
		<circle class="st6" cx="416" cy="121.3" r="1.1"/>
		<circle class="st6" cx="374.3" cy="101.5" r="1"/>
		<circle class="st6" cx="351.4" cy="138.2" r="1"/>
		<circle class="st6" cx="368" cy="177.1" r="1"/>
		<circle class="st6" cx="368" cy="157.2" r="0.7"/>
		<circle class="st6" cx="362.1" cy="79.2" r="0.7"/>
		<circle class="st6" cx="341.5" cy="86.3" r="0.4"/>
		<circle class="st6" cx="322" cy="105.2" r="1"/>
		<circle class="st6" cx="292.3" cy="88.4" r="0.7"/>
		<circle class="st6" cx="287" cy="125.9" r="0.7"/>
		<circle class="st6" cx="285.5" cy="101.9" r="1.4"/>
		<circle class="st6" cx="325.4" cy="153.2" r="1.4"/>
		<circle class="st6" cx="265.3" cy="58.5" r="1.2"/>
		<circle class="st6" cx="247.3" cy="101.6" r="1.2"/>
		<circle class="st6" cx="283.9" cy="50.8" r="1.1"/>
		<circle class="st6" cx="219.6" cy="52.8" r="0.8"/>
		<circle class="st6" cx="198.3" cy="60.1" r="0.4"/>
		<circle class="st6" cx="244.4" cy="75" r="0.7"/>
		<circle class="st6" cx="310.4" cy="55.5" r="0.6"/>
		<circle class="st6" cx="246.7" cy="86.7" r="0.6"/>
		<circle class="st6" cx="326.7" cy="60.4" r="0.7"/>
		<circle class="st6" cx="283.7" cy="73.3" r="0.9"/>
		<circle class="st6" cx="270.6" cy="81.4" r="0.9"/>
		<circle class="st6" cx="211.4" cy="75.4" r="0.3"/>
		<path class="st6" d="M190.9,56c0,0-1.8,5.1-1.3,6.9c0.3,1.8,2.2,4,2.8,4.8c0.6,0.8-0.4,1.3,3,2.3c3.4,1,4.1,1.4,4.1,1.4l-5.5,1.7
			c0,0-2.2-2.9-4.5-4.3c-2.3-1.4-2.9-2.2-3.1-4.2c-0.2-2-1.3-3.3,0-5C187.7,58,190.9,56,190.9,56z"/>
		<circle class="st6" cx="408.7" cy="149.9" r="0.2"/>
		<circle class="st6" cx="367.7" cy="107.2" r="0.3"/>
		<circle class="st6" cx="362.8" cy="113.7" r="0.2"/>
		<circle class="st6" cx="371.3" cy="131.2" r="0"/>
		<circle class="st6" cx="343.9" cy="62" r="0.2"/>
		<circle class="st6" cx="270.6" cy="46.7" r="0.2"/>
		<ellipse class="st6" cx="306" cy="344.2" rx="0.3" ry="0.7"/>
		<ellipse class="st6" cx="322.9" cy="335.1" rx="1.2" ry="0.6"/>
		<ellipse class="st6" cx="341.4" cy="325.6" rx="1.7" ry="0.6"/>
		<circle class="st6" cx="301.8" cy="309.3" r="0.6"/>
		<ellipse class="st6" cx="382.6" cy="339.6" rx="2.7" ry="0.8"/>
		<ellipse class="st6" cx="415.2" cy="317.1" rx="0.9" ry="0.3"/>
		<ellipse class="st6" cx="399.2" cy="313" rx="0.9" ry="0.2"/>
		<circle class="st6" cx="380.1" cy="311.7" r="0.2"/>
		<ellipse class="st6" cx="328.6" cy="303.1" rx="5.5" ry="1"/>
		<ellipse class="st6" cx="273.1" cy="312.6" rx="2.2" ry="0.8"/>
		<ellipse class="st6" cx="195.6" cy="306.5" rx="3.9" ry="1.1"/>
		<ellipse class="st6" cx="267.2" cy="216.9" rx="3.2" ry="0.7"/>
		<path class="st6" d="M300.1,193c0,0.9,1.3,0,3,0s4.5,2.2,4.5,1.2s-2.8-2.9-4.5-2.9S300.1,192.1,300.1,193z"/>
		<path class="st6" d="M337.7,217.5c0,0-1.9-2-4.9-3.9c-3.1-1.9-6.2-3.7-8.3-2.7s-6.1,3.1-6.8,3.8c-0.6,0.6-3.6,6.6,3.9,5.9
			c7.5-0.7,7-2.1,10.8-2.4c3.8-0.4,2.4,0,4.8,0.8c2.3,0.8,7.8,4.3,5.1,2.2C339.6,219,337.7,217.5,337.7,217.5z"/>
		<ellipse class="st6" cx="255.6" cy="227.7" rx="0" ry="0.9"/>
		<circle class="st6" cx="244.4" cy="206.8" r="1.7"/>
		<ellipse class="st6" cx="270.2" cy="254.2" rx="0" ry="1.3"/>
		<circle class="st6" cx="246.8" cy="257.1" r="0.8"/>
		<ellipse class="st6" cx="224.9" cy="248.8" rx="1.2" ry="0.7"/>
		<ellipse class="st6" cx="236.8" cy="232.8" rx="2.2" ry="0.7"/>
		<ellipse class="st6" cx="299.1" cy="241.7" rx="1.7" ry="0.7"/>
		<ellipse class="st6" cx="260" cy="174.6" rx="1.6" ry="0.8"/>
		<polygon class="st6" points="206,145.4 206,145.4 206,145.4 		"/>
		<ellipse class="st6" cx="350" cy="269.4" rx="1.8" ry="1.1"/>
		<ellipse class="st6" cx="344.7" cy="252.4" rx="0" ry="0.8"/>
		<circle class="st6" cx="340.6" cy="243.1" r="0.2"/>
		<ellipse class="st6" cx="425.2" cy="291.9" rx="2" ry="0.2"/>
		<path class="st15" d="M174.3,112.7c2.4-0.7,3.3-0.8,4.7,0s3,2.4,3.3,3s-2.7,1.7,0.4,2.8c3.1,1.1,6-0.2,4.6,1.4
			c-1.4,1.8-2.4,2.1-5,2.1s-2.6-1-3.9-1.2c-1.3-0.2-1.9-2-4.2-2.4c-2.3-0.4-4.1-0.7-3.3-1.3c0.8-0.7,0.7-0.3,1.7-1.4
			c1-1.1,1.4-1.7,1.3-2.1c-0.1-0.4,0.1-0.9,0.1-0.9"/>
		<path class="st15" d="M118,216.7c-0.8,1-2.4,1.3-1.7,2.8c0.9,1.4,1.8,3.9,2.4,4.8c0.7,0.8,3.1,3.1,6.5,4.1
			c3.3,1.1,11.9,5.2,13.7,4s4-2.2,2-3.6c-2-1.3-6-2.2-6-2.2l-8.5-2.9c0,0-3.4-6.3-5.5-7C119,216,118,216.7,118,216.7z"/>
		<path class="st15" d="M263.6,122.9c1.6-1.1,4-4.8,1.8-5.5c-2.2-0.8-2.1-0.9-4-0.8c-1.9,0.1-2.4-2.2-6.3-4.5
			c-3.8-2.3-5-2.4-6.9-2.9c-1.8-0.4-6.3-3.1-6.7-2.1c-0.3,1,2.2,2.9,5.3,5.8c3.1,3,0.8,0.3,4.3,3.7c3.6,3.3,1.4,2.2,5.3,3.9
			C260.3,122.3,263.6,122.9,263.6,122.9z"/>
		<circle class="st6" cx="152.5" cy="371.8" r="1.1"/>
		<circle class="st12" cx="168.4" cy="376.8" r="0.6"/>
		<circle class="st6" cx="164.7" cy="385.5" r="0.6"/>
		<path class="st12" d="M47.1,282.2c0,0-0.2-4-1.4-7.6c-1.2-3.6-3-5.6-2.6-7.3c0.4-1.8-0.9-2,2-2c2.9,0.1,2.6,2.1,5.1-0.3
			c2.4-2.4,3-1.9,3.1-1.7c0.1,0.2,0.8,1.6,1.2,1.7c0.4,0.1-1.2,1.4-4,2.2c-2.8,0.8-4.8-0.2-4.6,1.2c0.2,1.4,1.4,1.1,1.7,2.9
			c0.2,1.8-0.2,3.3,0.1,4.2C48.1,276.4,47.1,282.2,47.1,282.2z"/>
		<path class="st12" d="M439.5,136.8c0,0-3.9-10.2-6.2-14.4c-2.3-4.1-16.4-26.7-23-30.8c-6.7-4-9.7-9.5-12.5-11.1s4.8,6.6,10.8,12.8
			c6,6.2,12.8,15.8,15.6,20.5c2.8,4.7,6.2,11.1,8.2,15c2,3.9,5.3,21.1,7,22.8c1.7,1.7,20.5,47.6,20.9,51.1
			c0.4,3.4,4.2,10.9,4.2,10.9s-1.7-14.6-3.4-19.9c-1.8-5.5-6.9-19.4-9-24.4c-2.1-5-7.8-20.4-8.5-22.4c-0.7-2,1.6,2.8-2.3-4.2
			C437.6,135.8,439.5,136.8,439.5,136.8"/>
		<path class="st6" d="M221.6,161.6c4.3,2.7,3.4-2.1,11,3.4c7.6,5.6,7.8,7.9,11.7,6.7c3.9-1.2,5.6-4.7,1.7-6.5
			c-3.9-1.8-6.8-2.4-8.6-5.9c-1.8-3.4-6.1-8.6-10.3-6.2c-4.1,2.3-7.5,0.6-7.7,5C219.2,162.6,221.6,161.6,221.6,161.6z"/>
		<path class="st8" d="M226.6,158.5c3.1-1,12.6,5.5,12,3.4c-0.4-1.6-6.8-6.8-6.8-6.8s-1.7-2.9-3.9-1c-2.1,1.9,0.1-0.4-3.2,1.2
			c-3.3,1.7-5.2,2.6-5.2,2.6s-0.1,1.7,0.7,2.3S226.6,158.5,226.6,158.5z"/>
		<path class="st9" d="M228,155c1.9-1.1,7.6,3.3,5.7,2.3c-5.3-3-11.3,0.1-12,0.6c-0.7,0.4,0.9-1.4,1.3-1.1s1.1-0.8,2-0.8
			C225.9,156.2,228,155,228,155z"/>
		<path class="st6" d="M114.1,353.5c-4.3,7.5-3.9,10.8-0.8,13.5c3.1,2.7,0.2,4.6,6.2,6c6,1.3,2.4-3.9,8.5-2.9c6,1,9.8,2.1,8.1-1.4
			c-1.7-3.6-0.6-5.9-5.1-6.7c-4.6-0.9-8.6-1.9-10.6-4.2C118.4,355.2,115.4,351.3,114.1,353.5z"/>
		<path class="st8" d="M120.8,369.9c3.4-0.8,2.3-3.8,7-1.7s5.7,2.4,6.1,1.8c0.4-0.7,1-0.8,0.4-2.6c-0.6-1.8,0.7-3.1-1.1-3.7
			c-1.7-0.7-2.3-1-3.7-1.2c-1.2-0.3-2.1,0-0.7,1.9c1.3,1.9,4.5,1.8,1.2,2.4c-3.2,0.7-5-0.3-6.2-0.1c-1.2,0.2-1.3-0.8-2.7,1.3
			c-1.2,2.1-1.9,2.6-1.9,2.6L120.8,369.9z"/>
		<path class="st9" d="M131.8,367.2c-0.3,0.3-0.7,0.6-2.2,0.6c-1.6,0-0.8,0.3-3.1-0.1c-2.3-0.4-3.4-1.1-4.5-0.9
			c-1,0.2-1.3,1,0.2,1.1c1.6,0.1,2.7,0.1,3.8,0.3c1.1,0.3,0.2,0.3,2.2,0.4c2,0.1,2.9-0.4,3.4-0.8
			C132.3,367.5,131.8,367.2,131.8,367.2z"/>
		<path class="st12" d="M116.1,86.2c0,0-4.7,11.1-7.5,17.1c-2.9,6-3.4,5.9-4.3,11.7c-0.9,5.7-5,9.3-4.3,13.9
			c0.6,3.7,1,12.8,0.8,19.4c0,1.7-0.1,3.1-0.2,4.3c-0.7,5.9-1.4,5.9-1.8,11.1c-0.4,5.2-1.4,4.2,0,8.3c1.4,4.1-0.1,6.9,0.2,10.6
			c0.3,3.8-0.9,9.7,1.3,11.7c2.3,2,2,5.5,2,5.5s-0.7,4.1-0.4,5.9c0.3,1.8,1.3,0.7,2.3,5.7c1,5,2,19.7,4.5,21.5
			c2.6,1.8,4.5,2.3,4.2,6.3c-0.2,4,2.2,1.3,3.1,6.9s1.7,7.3,3.8,10.7c2,3.3,13.1,15.8,13.1,15.8s-8.7-14.9-10.5-18.4
			c-1.8-3.4,0.6-1.9-2.7-8.1c-3.2-6.3-3.4-4.9-4.3-9c-0.9-4-1.1-5.3-3.9-8.3s-3.4-1.7-4-7.1c-0.6-5.5-1-11-1.8-13.2
			c-0.8-2.2-2.3-1.9-1.6-7.3s-0.2-6.8,0-10.8s-3.7,4.1-3.7-3.2c0-7.5,0.4-10.7,0.8-15c0.2-4.3,0.2-3.4,0.2-9.8s1.2-18.6,1.2-26.9
			c0-8.3-3-6.9,1.4-13.2c4.5-6.3,5-6.6,4-9.5c-1-2.9-1-2.3,2.2-7.5c3.2-5.1,5.2-5.5,4.9-7.7c-0.4-2.2,1.7-15.1,5.6-25.1
			s0.9-5.8,0.9-5.8s-2.1,6.2-3.8,11C116.4,82.5,116.1,86.2,116.1,86.2z"/>
		<path class="st12" d="M295.6,441.2c-0.7,0.3-22.4,3.1-27,2.4c-4.7-0.7-5.8,0.8-15.7-0.4c-9.9-1.3-5-0.8-16.4-2s-31.4-7.5-31.4-7.5
			l-25.5-10.6c0,0,6.6,5.9,9.8,6.3c3.2,0.4,7.6,5.1,13.1,6.9c5.6,1.7,11.5,3.4,14.4,4.2c2.9,0.8,11.3,3.4,13.2,4.7
			c1.8,1.1,5.8,0.6,8.6,1.2c2.8,0.7,0.6-2.2,3.4,0s2.3,1.4,5.2,1.9c2.9,0.4,1.8-1.2,5.5,0c3.6,1.2,1.9,1.2,6.8,1.4
			c4.9,0.2,1.8-0.9,7.2-0.9c5.5,0,0.4-2,8.9-1.8c8.5,0.1,8.2-0.9,11.3-0.1c3.1,0.7,6.5-2.7,7.6-2.7c1.1,0,0.4-0.1,1-0.7
			S295.6,441.2,295.6,441.2z"/>
		<path class="st12" d="M451.8,288.5c0.3-1.3-9.3-7-20.5-12.4c-11.1-5.3-12.8-9.7-20.6-14.9c-7.8-5.2-14.1-7-19-8.8
			c-4.9-1.9-47.6-22.1-51-26.5c-3.3-4.3-14.1-4.2-14.1-4.2s-5.5,0.8-2.4,2.9c3,2.1-5.1,8,5.7,16.5c10.8,8.5,51.5,32.3,62.5,35
			c11,2.8,15.5,2.2,22.9,9.7s16.7,1.9,21,3.9c4.3,2,10.8,0.7,12,0C449.4,289.1,451.8,288.5,451.8,288.5z"/>
		<path class="st12" d="M318,208.5c-4.2-2.8-4.2-5.6-12.7-7.6c-8.5-2-13.1-0.3-19.8-8.7c-6.7-8.3,0.4-14.8-5.6-20.1
			c-6.1-5.3-12.1-9.8-18.5-14c-6.3-4.3-16.1-9.3-14.7-4.6s14.1,8.2,19.5,12.5c5.3,4.2,7.7,0.3,8.3,9.7c0.8,9.3-3.6,14.6,2.9,20.8
			c6.5,6.2,4.8,7.8,12.1,10.3s3.2,4.6,11,5.1C308.6,212.4,318,208.5,318,208.5z"/>
		<path class="st12" d="M233.5,138.7c-12-4.7-20.7-18.4-34.2-24.9c-13.5-6.6-18.9-3.2-23.5-13.5c-4.5-10.2-1.8-15.8-3.2-18.9
			c-1.6-3.2-2.8-5-8.2-8.1c-5.5-3.1-12.1-7.9-17.8-13.6c-5.7-5.8-5.9-9.7-8.3-8.9c-2.4,0.9-3.4,2.3-3.4,6.3s1.4,7.3,6.2,9.5
			c4.8,2.1,7.9,3.4,11.3,5.8c3.4,2.2,11.7,4.6,13.4,9.9c1.8,5.3,0,6.3,1.8,12.5s0.8,6.5,5.2,10.5c4.5,4.1,16.5,12.8,26.7,21.3
			s8.7,8,15,12.7c6.2,4.8,2,2.1,10.5,5.2C233.3,147.5,248.9,144.7,233.5,138.7z"/>
		<ellipse class="st6" cx="347.9" cy="245" rx="1.8" ry="1.1"/>
		<path class="st6" d="M390.5,251.8c0,0.6-0.8,0-1.8,0c-1,0-1.8,0.6-1.8,0c0-0.6,0.8-1.1,1.8-1.1
			C389.7,250.7,390.5,251.3,390.5,251.8z"/>
		<path class="st12" d="M385.1,75.7c0,0,7.2,3.6-6.7-6.1s-14.7-12.7-22-12.5c-7.5,0.2-12.8-1.9-14.5-4.5s-2-2.9-9.5-5
			c-7.5-2-9.6-2.7-14.5-3.7c-4.9-1-5.1-1.3-12.7-2.4s-15.6-2.4-19.8-2.3c-2.2,0-3.8-0.2-5.5-0.6c-1.6-0.2-3.2-0.6-5.7-0.9
			c-5.2-0.6-5-2.9-10.3-1.4c-5.3,1.4-5,0-11.1,0c-6.2,0-8.2-1.6-14.4-0.6c-6,1-3.8-0.8-9.6,0.6c-5.8,1.3-4.2,2.1-8.6,2.1
			c-4.3,0-0.1-0.1-5.9,0.6c-5.8,0.7-5.2,1.9-11.1,1.7c-5.9-0.2-8.6-1.1-13.9,1.8c-5.2,2.9-34,14.4-34,14.4s41.3-12.2,48.5-13.7
			c7.2-1.4,2.6,0.2,9.9-0.7c7.3-0.8,5.6-1.1,10.6-1.3c5-0.2,11.5-2.3,14.1-2.7c2.7-0.3,2.3,2.6,9.6,2c7.2-0.6,5-0.9,15.8-1.2
			c10.9-0.3,23.1,1.3,28.9,3.9s9.3,1.2,20.4,2.8c11,1.4,16.5,6.5,19.7,7.6c3.2,1.1,10.7,0.4,12.5,2.4c1.8,1.9,9.5,3.9,13,5.8
			c3.4,1.9,7.7,0.7,9.5,2.9C369.7,66.9,385.1,75.7,385.1,75.7z"/>
	</g>
</g>
</svg>
