<svg xmlns="http://www.w3.org/2000/svg" viewBox="0 0 445.89 315.4"><defs><style>.cls-1{fill:#84382c;}.cls-2{fill:#303030;}.cls-3{fill:#7c4440;}.cls-4{fill:#723d19;}.cls-5,.cls-6{fill:#89744e;}.cls-10,.cls-11,.cls-12,.cls-16,.cls-17,.cls-20,.cls-6,.cls-7,.cls-8,.cls-9{stroke:#303030;}.cls-10,.cls-11,.cls-12,.cls-15,.cls-16,.cls-17,.cls-18,.cls-19,.cls-20,.cls-22,.cls-6,.cls-7,.cls-8,.cls-9{stroke-miterlimit:10;}.cls-7{fill:#0c0715;}.cls-8{fill:#9b613a;}.cls-9{fill:#6d4326;}.cls-10{fill:#85522f;}.cls-11{fill:#f3d7b4;}.cls-12{fill:#371a12;}.cls-13{fill:#b19b6c;}.cls-14{fill:#9a6c26;}.cls-15{fill:#22222a;stroke:#1e1e1e;}.cls-16{fill:#9f8664;}.cls-17,.cls-18,.cls-19{fill:none;}.cls-18{stroke:#f4f4f4;stroke-width:0.5px;}.cls-19{stroke:#ceba89;}.cls-20{fill:#2f0e0a;}.cls-21{fill:#762700;}.cls-22{fill:#75573c;stroke:#282828;stroke-width:0.75px;}</style></defs><title>tur</title><g id="Layer_8" data-name="Layer 8"><path class="cls-1" d="M260,241.14s1.37,1.69,3.37,20.19-13.17,33-34.5,44.83-49.67,17.67-49.67,17.67L137.42,227.5s5-6.08,18.67-19.17,29.25-19.25,41.83-21,26.72,5.78,26.72,5.78,9.58,2.45,16.94,13.08S257.87,225.37,260,241.14Z" transform="translate(-18.94 -80.79)"/><path class="cls-2" d="M260,241.12a9.4,9.4,0,0,1,.68,2c.18.67.33,1.35.47,2q.42,2,.75,4.1c.45,2.75.84,5.5,1.19,8.26.17,1.38.36,2.76.49,4.14l.12,2.1.05,1-.06,1-.13,2.1c-.08.7-.23,1.38-.34,2.07a28.44,28.44,0,0,1-1,4.07,40.43,40.43,0,0,1-8.74,14.21,76.81,76.81,0,0,1-12.66,10.93,127.48,127.48,0,0,1-14.29,8.67,149.7,149.7,0,0,1-15.29,6.76,227.22,227.22,0,0,1-32,9.44l-.21,0-.08-.19-10.34-24.12-10.5-24.05L137,227.67l-.11-.25.17-.2c2.77-3.27,5.72-6.33,8.69-9.39s6-6,9.07-9a82,82,0,0,1,20.74-14.94,69.59,69.59,0,0,1,24.51-7.28,41,41,0,0,1,12.76,1.54,62.13,62.13,0,0,1,12,4.59l-.09,0a32.23,32.23,0,0,1,13.05,8.37c.44.48.9.94,1.32,1.43l1.24,1.5c.78,1,1.55,2.09,2.27,3.14,1.48,2.1,3,4.16,4.56,6.23a83.72,83.72,0,0,1,8.38,13A46.26,46.26,0,0,1,260,241.12Zm-.09,0a46.15,46.15,0,0,0-4.67-14.62,88.36,88.36,0,0,0-8.49-12.84c-1.55-2.05-3.12-4.1-4.63-6.2-.75-1.06-1.51-2.08-2.28-3.09L238.62,203c-.42-.48-.88-.93-1.31-1.39a31.55,31.55,0,0,0-12.77-8l-.05,0,0,0a61.32,61.32,0,0,0-11.84-4.41,45.53,45.53,0,0,0-6.19-1.19,35.16,35.16,0,0,0-6.27-.25,68.65,68.65,0,0,0-24.1,7.21,82.9,82.9,0,0,0-20.52,14.71c-6.11,5.89-12.2,11.85-17.77,18.22l.06-.45,20.68,48.25,10.37,24.11,10.53,24-.29-.15A228.27,228.27,0,0,0,211,313.93a141.83,141.83,0,0,0,29.39-15.38A76.08,76.08,0,0,0,253,287.83a39.81,39.81,0,0,0,8.7-13.92,27.89,27.89,0,0,0,1-4c.11-.68.27-1.35.35-2l.14-2.06a52.57,52.57,0,0,0-.49-8.27c-.3-2.76-.64-5.52-1-8.27q-.3-2.06-.68-4.11c-.13-.68-.27-1.36-.43-2A9.29,9.29,0,0,0,259.92,241.16Z" transform="translate(-18.94 -80.79)"/><path class="cls-3" d="M186.17,303.43s-7.42,25.32-19,45.7-33.25,35.13-39.37,38.5S107,400,85,393.63,47.88,356,47.88,356L25.25,316.38a52.72,52.72,0,0,1-2.37-43.62c9.38-24,43.5-36.5,52-38.5s30-9,55.63-8.61S186.17,303.43,186.17,303.43Z" transform="translate(-18.94 -80.79)"/><path class="cls-2" d="M186.21,303.43a260.46,260.46,0,0,1-11.1,30.34c-2.18,4.93-4.55,9.78-7.17,14.49a87.81,87.81,0,0,1-9.16,13.33A127.54,127.54,0,0,1,135,383.46c-2.21,1.55-4.44,3.07-6.81,4.41s-4.72,2.62-7.2,3.73a50.65,50.65,0,0,1-7.63,2.79c-.65.2-1.31.37-2,.51s-1.32.31-2,.44c-1.34.2-2.67.49-4,.58a51.51,51.51,0,0,1-16.16-.9c-1.32-.3-2.62-.66-3.94-1a32.84,32.84,0,0,1-3.84-1.35,40.78,40.78,0,0,1-7.11-3.91,63.91,63.91,0,0,1-12-10.86,104.75,104.75,0,0,1-9.61-13c-1.43-2.28-2.8-4.61-4.07-7-.32-.59-.63-1.19-.92-1.8l-1-1.75-2-3.5-8-14-8-14-4-7a47.88,47.88,0,0,1-3.1-7.49,53.31,53.31,0,0,1-.35-32A42.48,42.48,0,0,1,28.61,262,63.09,63.09,0,0,1,40.26,250.7,95.45,95.45,0,0,1,54,242.07a114.52,114.52,0,0,1,14.85-6.48c1.28-.44,2.56-.87,3.86-1.25s2.63-.69,3.92-1l7.81-2c5.22-1.33,10.48-2.54,15.8-3.49s10.66-1.7,16-2.15c2.69-.21,5.39-.39,8.09-.46,1.35-.07,2.7,0,4-.05h2a15.3,15.3,0,0,1,2.08.19,20.24,20.24,0,0,1,7.59,3.11,40.94,40.94,0,0,1,6.34,5.12A88.93,88.93,0,0,1,156.79,246,221.84,221.84,0,0,1,173.1,273.9Q180.33,288.36,186.21,303.43Zm-.1,0c-4-9.94-8.59-19.73-13.46-29.31a221.26,221.26,0,0,0-16.45-27.69,88.19,88.19,0,0,0-10.36-12.25,40.09,40.09,0,0,0-6.24-5,19.33,19.33,0,0,0-7.26-2.92,14.31,14.31,0,0,0-1.94-.17h-2c-1.34,0-2.68,0-4,.07-2.68.07-5.36.24-8,.44-5.35.44-10.67,1.18-16,2.12s-10.52,2.14-15.73,3.46l-7.81,2c-1.32.33-2.62.63-3.89,1s-2.55.8-3.82,1.23a113.59,113.59,0,0,0-14.73,6.41,94.53,94.53,0,0,0-13.59,8.53,63.55,63.55,0,0,0-11.51,11.1A41.63,41.63,0,0,0,22,276.62a52.65,52.65,0,0,0,.14,31.59,47.37,47.37,0,0,0,3,7.42l4,7,8,14,8,14c2.74,4.64,5.08,9.49,8,14a104.33,104.33,0,0,0,9.65,12.88,63.39,63.39,0,0,0,11.94,10.7,40.29,40.29,0,0,0,7,3.81,32.19,32.19,0,0,0,3.78,1.3c1.3.32,2.59.67,3.9,1a50.8,50.8,0,0,0,15.94.8c1.33-.1,2.64-.39,4-.59.65-.13,1.3-.3,2-.44s1.3-.31,1.94-.51a49.83,49.83,0,0,0,7.5-2.79c2.43-1.11,4.77-2.41,7.11-3.74s4.55-2.81,6.75-4.34a126.78,126.78,0,0,0,23.74-21.61A87.16,87.16,0,0,0,167.42,348c2.64-4.68,5-9.5,7.22-14.4A278.39,278.39,0,0,0,186.12,303.43Z" transform="translate(-18.94 -80.79)"/><path class="cls-4" d="M127.58,225.64s-17.5-.22-27.58,4.45-21.25,10.08-22.25,24.17,1.75,25.83,6.83,35S108.33,327,108.33,327s11.67,14.67,27.83,16,29.17-8.5,34.33-13.67,16.91-19,21.35-49.05Z" transform="translate(-18.94 -80.79)"/><path class="cls-2" d="M127.58,225.64a100.2,100.2,0,0,0-17.85,1.66,45.07,45.07,0,0,0-8.59,2.47c-2.73,1.18-5.43,2.51-8,3.94a40.87,40.87,0,0,0-7.36,5,22.58,22.58,0,0,0-5.44,6.95c-2.73,5.34-2.5,11.56-2.37,17.46a62.44,62.44,0,0,0,3.23,17.51,52.86,52.86,0,0,0,3.59,8.15c1.44,2.61,3,5.15,4.58,7.7,6.31,10.17,12.82,20.22,19.37,30.24l0,0a52.74,52.74,0,0,0,11.68,10.13,36,36,0,0,0,14.34,5.44,35.23,35.23,0,0,0,7.7.17A41.94,41.94,0,0,0,150,341a49.39,49.39,0,0,0,7.21-2.82,53.71,53.71,0,0,0,6.67-4,48.93,48.93,0,0,0,6-4.91,53.89,53.89,0,0,0,5.15-5.82,71.17,71.17,0,0,0,8-13.36,99.15,99.15,0,0,0,5.34-14.65,141.88,141.88,0,0,0,3.22-15.28l.11.29-32-27.37Zm0,0,32.25,27.12L192.06,280l.14.12,0,.18A142.55,142.55,0,0,1,189,295.7a99.89,99.89,0,0,1-5.33,14.78,72,72,0,0,1-8,13.54,54.73,54.73,0,0,1-5.2,5.93,49.79,49.79,0,0,1-6.09,5,54.61,54.61,0,0,1-6.77,4.06,50.31,50.31,0,0,1-7.35,2.91,42.89,42.89,0,0,1-7.77,1.5,34.75,34.75,0,0,1-7.92-.17,36.93,36.93,0,0,1-14.7-5.64A53.57,53.57,0,0,1,108,327.27h0v0c-6.51-10.05-13-20.13-19.26-30.33-1.56-2.56-3.12-5.11-4.57-7.75a53.54,53.54,0,0,1-3.61-8.28,63.07,63.07,0,0,1-3.2-17.7,79.07,79.07,0,0,1,.15-9,23.47,23.47,0,0,1,2.34-8.72,23,23,0,0,1,5.59-7.08,41.3,41.3,0,0,1,7.49-5c2.66-1.4,5.35-2.7,8.12-3.86a45.31,45.31,0,0,1,8.67-2.39A100.3,100.3,0,0,1,127.58,225.64Z" transform="translate(-18.94 -80.79)"/><path class="cls-4" d="M233.62,198.09s-11.12-8.53-20.37-6.41-15.44,11.19-17.31,23.19-4.74,25.54-4.74,25.54-4,7.25,12.38,13.25,27.17,9.75,38.75,8.75,17.33-7.75,18.58-11.67-2.37-15.32-4.1-18.66" transform="translate(-18.94 -80.79)"/><path class="cls-2" d="M233.62,198.09a41.12,41.12,0,0,0-8.59-4.71,30.12,30.12,0,0,0-4.67-1.43,21.26,21.26,0,0,0-2.41-.33l-1.21-.08-1.21.05a6.42,6.42,0,0,0-1.2.14c-.4.08-.8.11-1.19.22a19,19,0,0,0-2.3.76,17.24,17.24,0,0,0-4.2,2.37,21.16,21.16,0,0,0-3.5,3.34,26.39,26.39,0,0,0-2.71,4,34.34,34.34,0,0,0-3.4,9.08c-.71,3.15-1.1,6.43-1.69,9.66q-1.67,9.7-3.67,19.33v0l0,.08a4.72,4.72,0,0,0-.26,2.81,6.7,6.7,0,0,0,1.23,2.7,15.46,15.46,0,0,0,4.68,4c3.6,2.17,7.7,3.45,11.7,4.94s8,2.87,12.13,4.07a72.41,72.41,0,0,0,12.44,2.68,40.82,40.82,0,0,0,12.64-.39,22.79,22.79,0,0,0,11.11-5.71,13.71,13.71,0,0,0,3.46-5.19,9.29,9.29,0,0,0,.2-3.11,27.81,27.81,0,0,0-.41-3.16A56.24,56.24,0,0,0,259,238.1a43.44,43.44,0,0,0-2.21-6,43.51,43.51,0,0,1,2.34,6,56.45,56.45,0,0,1,1.65,6.2,28.11,28.11,0,0,1,.48,3.19,9.61,9.61,0,0,1-.15,3.26,13.76,13.76,0,0,1-3.48,5.45,23.39,23.39,0,0,1-11.33,6,41.56,41.56,0,0,1-12.88.55A73.08,73.08,0,0,1,220.84,260c-4.12-1.2-8.17-2.61-12.2-4s-8.14-2.74-11.9-5a16.27,16.27,0,0,1-5-4.3,6.57,6.57,0,0,1-1-6.55l0,.13q2-9.61,3.74-19.28l.82-4.84c.13-.81.26-1.61.42-2.43s.32-1.62.52-2.42a35.08,35.08,0,0,1,3.58-9.23,27.05,27.05,0,0,1,2.83-4.08,21.77,21.77,0,0,1,3.64-3.39,17.78,17.78,0,0,1,4.36-2.39,17.45,17.45,0,0,1,2.38-.74c.4-.1.82-.13,1.23-.2a6.73,6.73,0,0,1,1.24-.12l1.24,0,1.24.1a21.6,21.6,0,0,1,2.45.39,30.38,30.38,0,0,1,4.69,1.54A41.22,41.22,0,0,1,233.62,198.09Z" transform="translate(-18.94 -80.79)"/><path class="cls-5" d="M198.63,243.5s-48.75-21.75-75.25-17.25-33.25,18.13-33.25,18.13-7.37,8,0,29.13,35.25,53.88,38.38,55.25,21.83,10.58,43.83-10.42S198.63,243.5,198.63,243.5Z" transform="translate(-18.94 -80.79)"/><path class="cls-2" d="M198.63,243.5a291.3,291.3,0,0,0-27.44-10.06c-4.65-1.44-9.35-2.75-14.08-3.88a144.25,144.25,0,0,0-14.32-2.78,78,78,0,0,0-14.52-.75,45.49,45.49,0,0,0-7.19,1c-2.39.43-4.73,1.09-7.06,1.74a53.47,53.47,0,0,0-13.23,5.89A38.94,38.94,0,0,0,95,239a23.92,23.92,0,0,0-4.55,5.51l0,0,0,0a11.34,11.34,0,0,0-1.64,3,20.2,20.2,0,0,0-1,3.32,30.08,30.08,0,0,0-.49,6.95A52.4,52.4,0,0,0,90,271.62a71.38,71.38,0,0,0,5.67,12.86c2.25,4.13,4.74,8.13,7.35,12.06a255.56,255.56,0,0,0,16.92,22.64c1.52,1.8,3.06,3.58,4.65,5.31.8.86,1.6,1.72,2.45,2.52a14.89,14.89,0,0,0,1.29,1.13,8.62,8.62,0,0,0,1.5.73,33.26,33.26,0,0,0,13.63,2.66A36.63,36.63,0,0,0,157,328.43a49.81,49.81,0,0,0,11.85-7.5l2.65-2.32c.9-.75,1.66-1.65,2.5-2.47s1.55-1.76,2.27-2.69,1.45-1.85,2.08-2.84a78.45,78.45,0,0,0,6.81-12.34,152.79,152.79,0,0,0,8.74-26.86A219.16,219.16,0,0,0,198.63,243.5Zm0,0a219.32,219.32,0,0,1-4.37,28,144.13,144.13,0,0,1-8.55,27A79,79,0,0,1,178.89,311c-.64,1-1.39,1.92-2.09,2.88s-1.52,1.83-2.29,2.73-1.62,1.75-2.53,2.52l-2.67,2.36a50.49,50.49,0,0,1-12,7.65,37.37,37.37,0,0,1-13.85,3.23,34.06,34.06,0,0,1-14-2.67l-.82-.35c-.14-.06-.26-.11-.41-.19a4.6,4.6,0,0,1-.44-.28,15.51,15.51,0,0,1-1.38-1.2c-.87-.82-1.68-1.69-2.49-2.55-1.61-1.74-3.17-3.52-4.7-5.33a256.48,256.48,0,0,1-17.08-22.66c-2.62-3.94-5.1-8-7.35-12.15a72.3,72.3,0,0,1-5.69-13,53.25,53.25,0,0,1-2.67-14,30.89,30.89,0,0,1,.53-7.14,21,21,0,0,1,1-3.46,11.92,11.92,0,0,1,1.8-3.2l-.06.09a24.49,24.49,0,0,1,4.74-5.71,39.67,39.67,0,0,1,5.89-4.43,54.17,54.17,0,0,1,13.42-5.92c2.36-.65,4.72-1.31,7.13-1.73a46.13,46.13,0,0,1,7.28-1,78.56,78.56,0,0,1,14.63.82,173.55,173.55,0,0,1,28.43,6.89A291.46,291.46,0,0,1,198.63,243.5Z" transform="translate(-18.94 -80.79)"/><path class="cls-6" d="M204.38,240.75s26.88,18,45.63,8.5c0,0,13.63-5.75,4.38-23S236.63,199.5,233,197.75s-7.5-3.37-11.75-1.5a29.58,29.58,0,0,0-16,21.5A96.8,96.8,0,0,0,204.38,240.75Z" transform="translate(-18.94 -80.79)"/></g><g id="Layer_7" data-name="Layer 7"><polygon class="cls-7" points="90.93 230.4 91.26 226.8 75.9 203.17 72.88 204.68 75.39 205.04 90.93 230.4"/><polygon class="cls-8" points="445.39 21.37 417.31 43.96 387.43 62.08 386.56 62.08 410.68 41.73 445.39 21.37"/><polygon class="cls-9" points="386.56 62.08 384.31 61.21 385.91 56.25 410.68 41.73 386.56 62.08"/><path class="cls-10" d="M446,116.88l3.88,6.12a24.38,24.38,0,0,1,3.42.58s-1.58,1.17-1.08,2.08.42,4,4.25,4.5,6-.08,6.75,1.5-.67,3.92-2.17,5.92-4.48,3.33-5.83,3.92c-.47.2-4.67,1-5.83-.5s.75-5.08,1.33-7.5-1.67-4.67-2.42-4.75a11.29,11.29,0,0,0-2.83.62s.17-2.53.83-2.95l-4-6.58Z" transform="translate(-18.94 -80.79)"/><path class="cls-10" d="M440.32,152.14a11.15,11.15,0,0,1-9.51,4.55c-6.31-.31-2.5-5.31-2-6.5a4.47,4.47,0,0,0-1.6-5.44c-2.34-1.44-2.59,0-2.59,0a2.31,2.31,0,0,1,0-3.06c1.38-1.44,0-.31,0-.31l-4.45-6.87,3.25-2Z" transform="translate(-18.94 -80.79)"/><path class="cls-10" d="M427.82,129.87l5.49,7.13s1.63-.69,2.5.31c0,0-1.48.69-.9,1.88s1.4,3.31,2.46,3.31,5.5-.62,6.38,0a4.27,4.27,0,0,1,1.56,3.56,9.65,9.65,0,0,1-3.87,5.31c-2.19,1.5-4.25,3.06-7.69,3s-3.62-2.81-2.75-4.5,2-3.69,1.5-4.81-2.94-3.69-3.87-2.19a2.91,2.91,0,0,1,.19-2.81l-5.38-7.53Z" transform="translate(-18.94 -80.79)"/><path class="cls-10" d="M420,93.68a11.62,11.62,0,0,0-1.26,3.07c-.16,1.16.31,3.66,1.5,4.16s1.56,1.41,3.06.44c0,0,.34.09,0,1a4.61,4.61,0,0,0-.28,1.78l2.3,3.31-4.26,2.29-1.88-2.32s-1.09.38-2.81-.81a2.59,2.59,0,0,0,.5-2.94c-.75-1.84-1.22-3.22-3.19-3.22s-5.75.91-6.78-.28-.28-4.38,1.13-6.44a9.52,9.52,0,0,1,3.54-3Z" transform="translate(-18.94 -80.79)"/><path class="cls-10" d="M405.79,117.63l-2.54-3a4.26,4.26,0,0,0,.33-3.46,2.53,2.53,0,0,1-2.83,0,4.47,4.47,0,0,1-2.37-4.33c.29-1.58,1.71-4,1.46-5s-.5-3.21-4.08-3a8.62,8.62,0,0,0-5.58,2.33c-.17.17-4.08,3-4.08,5.88s1.5,3.46,3.54,3.38,4.5-.21,5.75,1.25,2.5,3.58.75,4.54a2.19,2.19,0,0,0,2.5,1.13l2.67,3Z" transform="translate(-18.94 -80.79)"/><path class="cls-11" d="M456.5,90.67,241.58,206.19c2.27,1.19,13.13,18.89,13.13,18.89L464.33,102.17C464.5,100,456.5,90.67,456.5,90.67Zm-12.27,22-15.56,8.25a1.51,1.51,0,0,1-2-.62l-1.37-2.59a1.51,1.51,0,0,1,.62-2l15.56-8.25a1.51,1.51,0,0,1,2,.62l1.37,2.59A1.51,1.51,0,0,1,444.23,112.67Z" transform="translate(-18.94 -80.79)"/><polygon class="cls-12" points="405.63 39.29 231.06 137.76 227.43 131.38 401.99 34.33 405.63 39.29"/><path class="cls-13" d="M139.94,285.25s-2.06.56-2.12,1.13a8.18,8.18,0,0,0,.56,3.19c.38.56,3.06,4.94,3.5,5.38s2.81.44,4.25-.5a4.19,4.19,0,0,0,1.75-1.87l-2.44.06Z" transform="translate(-18.94 -80.79)"/><path class="cls-13" d="M133.31,274.19l-1.69.94a1.87,1.87,0,0,1-2.69-.47c-1.12-1.59-3.94-5.78-3.94-5.78s-.62-2.12.69-2.62a3.63,3.63,0,0,0,1.75-1.19Z" transform="translate(-18.94 -80.79)"/><path class="cls-14" d="M145.88,284.81l-3.81-6s1.38-2.29.06-2.66-2.25-.61-2.25-.61l-5.69-8.82s.06-3.69-1.87-4.37-3.19-.69-3.81,0a8.29,8.29,0,0,0-1.06,2.75l18,27.56s4.63.25,3.75-3.25S148.06,284.75,145.88,284.81Z" transform="translate(-18.94 -80.79)"/><polygon class="cls-15" points="90.97 235.62 90.97 230.79 75.39 205.04 71.39 204.46 52.06 217.29 52.06 221.46 66.14 245.37 70.47 247.04 90.97 235.62"/><path class="cls-16" d="M68.75,300.94l-7.56,5.6s-2.25,1.46-2.12,5.15,0,14,0,14L71,332.19s2.63,1.19,6.81-.75a21.23,21.23,0,0,0,7-5.67L71,302.25Z" transform="translate(-18.94 -80.79)"/><path class="cls-17" d="M63.28,305.78a18.5,18.5,0,0,0,1.72,3c.28.06.34-.06.53,0s.16.38.16.38a1.32,1.32,0,0,0-.16.88,17.53,17.53,0,0,0,1.75,2.78,5.34,5.34,0,0,0,.53.34s.25.34.19.44a6.11,6.11,0,0,0,0,1.09s.8,2.93,1.64,3l.83.08v.5l1.92,3.5s1,.08.92.5l-.08.42,1.42,2.5s1-.5,1,0a4.88,4.88,0,0,1-.42,1.42l2.67,4,6.93-4.82L71,302.25l-2.25-1.31L63.28,305Z" transform="translate(-18.94 -80.79)"/><path class="cls-18" d="M65.53,308.75s5.22-4.5,5.84-5.5l1.37,2S67.91,306.78,65.53,308.75Z" transform="translate(-18.94 -80.79)"/><path class="cls-18" d="M67.52,312.95s5.26-4,5.76-5l.49-1,1.76,3s-7,2.74-7.54,4.24Z" transform="translate(-18.94 -80.79)"/><path class="cls-18" d="M69.67,317.67s6.49-3.95,7.18-5.85l.91,1.9s-6.87,3.38-7.25,4.54Z" transform="translate(-18.94 -80.79)"/><path class="cls-18" d="M73,321.88c.33-.09,5.83-4.11,7.28-3.85l-1.5-2.45s-4.37,4.55-6.58,5.79Z" transform="translate(-18.94 -80.79)"/><path class="cls-18" d="M75.22,325S79.45,323,81.48,320l1.09,1.84s-6.57,2.44-7,3.94Z" transform="translate(-18.94 -80.79)"/><line class="cls-18" x1="76.74" y1="204.46" x2="109.85" y2="186.54"/><line class="cls-18" x1="79.26" y1="208.35" x2="402.68" y2="30.9"/><line class="cls-18" x1="82.64" y1="213.54" x2="402.68" y2="35.27"/><line class="cls-18" x1="85.91" y1="218.58" x2="404.49" y2="37.7"/><line class="cls-18" x1="88.21" y1="222.11" x2="406.91" y2="40.86"/><polyline class="cls-18" points="126.93 204.02 408.37 42.77 398.9 30.4 114.89 183.43"/><line class="cls-19" x1="387.37" y1="36.14" x2="396.96" y2="49.77"/><line class="cls-19" x1="383.26" y1="39.03" x2="392.85" y2="52.66"/><line class="cls-19" x1="377.89" y1="42.26" x2="387.48" y2="55.89"/><line class="cls-19" x1="367.4" y1="47.7" x2="376.99" y2="61.33"/><line class="cls-19" x1="361.65" y1="50.19" x2="371.4" y2="64.76"/><line class="cls-19" x1="356.4" y1="52.94" x2="366.04" y2="67.9"/><line class="cls-19" x1="346.59" y1="58.77" x2="356.39" y2="73.33"/><line class="cls-19" x1="340.42" y1="62.08" x2="351.01" y2="76.71"/><line class="cls-19" x1="335.82" y1="64.56" x2="345.72" y2="79.82"/><line class="cls-19" x1="331.73" y1="66.76" x2="342.01" y2="81.99"/><line class="cls-19" x1="326.14" y1="69.76" x2="336.37" y2="85.3"/><line class="cls-19" x1="317.7" y1="74.29" x2="328.44" y2="89.95"/><line class="cls-19" x1="312.8" y1="76.88" x2="323.8" y2="92.64"/><line class="cls-19" x1="307.23" y1="79.92" x2="318.52" y2="95.76"/><line class="cls-19" x1="299.64" y1="84" x2="310.61" y2="100.4"/><line class="cls-19" x1="294.52" y1="86.76" x2="306.3" y2="102.93"/><line class="cls-19" x1="290.62" y1="88.85" x2="301.88" y2="105.52"/><line class="cls-19" x1="282.28" y1="93.33" x2="293.83" y2="110.24"/><line class="cls-19" x1="276.08" y1="96.67" x2="287.56" y2="113.91"/><line class="cls-19" x1="271.71" y1="99.02" x2="282.83" y2="116.69"/><line class="cls-19" x1="266.8" y1="101.23" x2="278.45" y2="119.26"/><line class="cls-19" x1="261.1" y1="104.97" x2="272.78" y2="122.86"/><line class="cls-19" x1="256.34" y1="107.28" x2="268.34" y2="125.19"/><line class="cls-19" x1="252.94" y1="109.1" x2="264.45" y2="127.47"/><line class="cls-19" x1="246.29" y1="112.68" x2="258.69" y2="130.84"/><line class="cls-19" x1="240.33" y1="115.88" x2="252.65" y2="134.39"/><line class="cls-19" x1="233.11" y1="119.77" x2="245.93" y2="138.32"/><line class="cls-19" x1="225.63" y1="123.78" x2="238.09" y2="142.92"/><line class="cls-18" x1="123.18" y1="206.75" x2="90.97" y2="225.75"/><path class="cls-20" d="M453.5,99.69c-3.31-3.81-6-1.87-6-1.87l-25.87,13.88,6.19,9.69-3.24-5.31s13.32-8.4,15.75-7.56a8.88,8.88,0,0,1,4,3.5l9.61-5.43S456.81,103.5,453.5,99.69Z" transform="translate(-18.94 -80.79)"/><path class="cls-10" d="M432.78,103.42l-4.28-6.13a14.56,14.56,0,0,0,0-2.42,12.47,12.47,0,0,0-.25-1.29s-.92,1.08-1.75.79-3.25-3-3.37-3.87.71-2.71,1-3.62,1.88-4.5-.21-5.25-6-.08-6.79.54-3.92,2-5,5.33-.29,4.83,2,5.25,6.29,0,7.25,2.17,1.25,3.38.33,3.63a2.1,2.1,0,0,0,2.13.83c1.25-.37,4.8,6.29,4.8,6.29Z" transform="translate(-18.94 -80.79)"/><path class="cls-21" d="M421.63,112.09,449,97.32s-2.49,4.29-5.31,5.74a13.82,13.82,0,0,0-5.87,5.47l-13.24,7.53Z" transform="translate(-18.94 -80.79)"/><polygon class="cls-22" points="412.1 29.15 417.9 36.81 421.65 34.74 415.93 26.14 412.1 29.15"/><path class="cls-22" d="M428.84,113.36s4.8,6.39,4.39,6.39-3,2.25-3,2.25l-3.74-6.58Z" transform="translate(-18.94 -80.79)"/></g></svg>