<?xml version="1.0" encoding="utf-8"?>
<!-- Generator: Adobe Illustrator 21.0.0, SVG Export Plug-In . SVG Version: 6.00 Build 0)  -->
<svg version="1.1" id="Layer_1" xmlns="http://www.w3.org/2000/svg" xmlns:xlink="http://www.w3.org/1999/xlink" x="0px" y="0px"
	 width="200px" height="200px" viewBox="0 0 200 200" style="enable-background:new 0 0 200 200;" xml:space="preserve">
<style type="text/css">
	.st0{}
</style>
<g>
	<path class="st0" d="M113.1,119.5c16.9-11,28.3-28.6,31.3-48.5c1.4-9.2,1-18.4-1.2-27.4L133.4,3c-0.4-1.8-2-3-3.8-3H70.4
		c-1.8,0-3.4,1.2-3.8,3l-9.9,40.7c-2.2,9-2.6,18.2-1.2,27.4c3,19.9,14.5,37.6,31.3,48.5l9.2,6v51.9l-30.4,15.2
		c-1.6,0.8-2.5,2.6-2.1,4.4c0.4,1.8,2,3,3.8,3h65.1c1.8,0,3.4-1.2,3.8-3c0.4-1.8-0.4-3.6-2.1-4.4l-30.4-15.2v-51.9L113.1,119.5z
		 M73.5,7.8h53l8,32.9h-69L73.5,7.8z M63.3,69.8c-1.1-7.1-1-14.3,0.4-21.4h72.6c1.4,7,1.5,14.2,0.4,21.4
		c-2.7,17.7-12.9,33.4-27.8,43.2l-8.9,5.8l-8.9-5.8C76.1,103.3,66,87.5,63.3,69.8z M84,192.2l16-8l16,8H84z"/>
	<path class="st0" d="M108.5,102.5c0.9,0,1.8-0.3,2.6-1c8.4-7.5,14.3-17.2,16.9-28.1c0.5-2.1-0.8-4.2-2.9-4.7s-4.2,0.8-4.7,2.9
		c-2.3,9.4-7.3,17.7-14.5,24.1c-1.6,1.4-1.8,3.9-0.3,5.5C106.4,102,107.5,102.5,108.5,102.5z"/>
	<path class="st0" d="M125.6,61.5c1,0,2-0.4,2.8-1.1c0.7-0.7,1.1-1.7,1.1-2.8c0-1-0.4-2-1.1-2.8c-0.7-0.7-1.7-1.1-2.8-1.1
		c-1,0-2,0.4-2.8,1.1s-1.1,1.7-1.1,2.8c0,1,0.4,2,1.1,2.8C123.6,61.1,124.6,61.5,125.6,61.5z"/>
</g>
</svg>
