<?xml version="1.0" encoding="utf-8"?>
<!-- Generator: Adobe Illustrator 21.0.0, SVG Export Plug-In . SVG Version: 6.00 Build 0)  -->
<svg version="1.1" id="Layer_1" xmlns="http://www.w3.org/2000/svg" xmlns:xlink="http://www.w3.org/1999/xlink" x="0px" y="0px"
	 width="200px" height="200px" viewBox="0 0 200 200" style="enable-background:new 0 0 200 200;" xml:space="preserve">
<g>
	<path d="M176.3,183.2h-4.3c-3.3-27.3-25.3-49-52.8-51.8v-5.6c0-3.9-3.2-7.1-7.1-7.1s-7.1,3.2-7.1,7.1v5.8
		c-26.5,3.7-47.5,24.9-50.6,51.6h-3.7c-3.9,0-7.1,3.2-7.1,7.1c0,3.9,3.2,7.1,7.1,7.1h125.6c3.9,0,7.1-3.2,7.1-7.1
		C183.4,186.3,180.3,183.2,176.3,183.2z M68.8,183.2c3.4-21.5,22.1-37.9,44.5-37.9c22.4,0,41.1,16.5,44.5,37.9H68.8z"/>
</g>
<g>
	<path d="M153.7,43.9v74.8c0,3.9-3.2,7.1-7.1,7.1s-7.1-3.2-7.1-7.1V51H30.8v139.3c0,3.9-3.2,7.1-7.1,7.1c-3.9,0-7.1-3.2-7.1-7.1
		V43.9c0-0.2,0-0.5,0-0.7c0,0,0-0.1,0-0.1c0-0.1,0-0.3,0.1-0.4c0-0.1,0-0.3,0.1-0.4c0-0.2,0.1-0.3,0.1-0.5c0-0.1,0-0.2,0.1-0.3
		c0-0.1,0.1-0.2,0.1-0.4c0.1-0.2,0.1-0.3,0.2-0.5l0.2-0.4c0.2-0.4,0.5-0.7,0.8-1.1c0.1-0.1,0.2-0.2,0.3-0.3c0.1-0.1,0.1-0.1,0.2-0.2
		c0.4-0.4,0.9-0.8,1.4-1.1c0.2-0.1,0.3-0.2,0.5-0.2c0,0,0,0,0,0c0.1-0.1,0.3-0.1,0.5-0.2c0,0,0,0,0,0l0.4-0.2l89.5-34
		c2.2-0.8,4.6-0.5,6.5,0.8c1.9,1.3,3.1,3.5,3.1,5.8v13.9c0,3.9-3.2,7.1-7.1,7.1s-7.1-3.2-7.1-7.1V20L62.3,36.8h84.3
		C150.5,36.8,153.7,40,153.7,43.9z"/>
</g>
</svg>
