<?xml version="1.0" encoding="utf-8"?>
<!-- Generator: Adobe Illustrator 21.0.0, SVG Export Plug-In . SVG Version: 6.00 Build 0)  -->
<svg version="1.1" id="Layer_1" xmlns="http://www.w3.org/2000/svg" xmlns:xlink="http://www.w3.org/1999/xlink" x="0px" y="0px"
	 width="200px" height="200px" viewBox="0 0 200 200" style="enable-background:new 0 0 200 200;" xml:space="preserve">
<style type="text/css">
	.st0{}
</style>
<g>
	<g>
		<g>
			<path class="st0" d="M148,51.2c4.8-6.1,5.6-13.8,2.4-22.2c-2.3-6-5.9-10.3-6-10.5c-1.2-1.4-3.3-1.6-4.7-0.4
				c-1.4,1.2-1.6,3.3-0.4,4.7c0.2,0.2,11.5,14.1,3.5,24.4c-11.6,14.7,0.8,34.2,1.3,35c0.6,1,1.7,1.5,2.8,1.5c0.6,0,1.2-0.2,1.8-0.5
				c1.5-1,2-3,1-4.6C149.6,78.3,139.4,62.2,148,51.2z"/>
		</g>
	</g>
	<g>
		<g>
			<path class="st0" d="M170.2,51.2c4.8-6.1,5.6-13.8,2.4-22.2c-2.3-6-5.9-10.3-6-10.5c-1.2-1.4-3.3-1.6-4.7-0.4
				c-1.4,1.2-1.6,3.3-0.4,4.7c0.1,0.1,11.5,14.1,3.5,24.4c-11.6,14.7,0.8,34.2,1.3,35c0.6,1,1.7,1.5,2.8,1.5c0.6,0,1.2-0.2,1.8-0.5
				c1.5-1,2-3,1-4.6C171.8,78.3,161.6,62.2,170.2,51.2z"/>
		</g>
	</g>
	<g>
		<g>
			<path class="st0" d="M31.3,52.7c4.8-6.1,5.6-13.8,2.4-22.2c-2.3-6-5.9-10.3-6-10.5c-1.2-1.4-3.3-1.6-4.7-0.4
				c-1.4,1.2-1.6,3.3-0.4,4.7c0.1,0.1,11.5,14.1,3.5,24.4c-11.6,14.7,0.8,34.2,1.3,35c0.6,1,1.7,1.5,2.8,1.5c0.6,0,1.2-0.2,1.8-0.5
				c1.5-1,2-3,1-4.6C32.9,79.9,22.7,63.7,31.3,52.7z"/>
		</g>
	</g>
	<g>
		<g>
			<path class="st0" d="M53.5,52.7c4.8-6.1,5.6-13.8,2.4-22.2c-2.3-6-5.9-10.3-6-10.5c-1.2-1.4-3.3-1.6-4.7-0.4
				c-1.4,1.2-1.6,3.3-0.4,4.7c0.1,0.1,11.5,14.1,3.5,24.4c-11.6,14.7,0.8,34.2,1.3,35c0.6,1,1.7,1.5,2.8,1.5c0.6,0,1.2-0.2,1.8-0.5
				c1.5-1,2-3,1-4.6C55.1,79.9,44.9,63.7,53.5,52.7z"/>
		</g>
	</g>
	<g>
		<g>
			<path class="st0" d="M189,156.6h-7c-1.6-41.3-34-74.8-74.7-78.3v-3.4c4.1-2.5,6.7-6.9,6.7-11.8c0-7.6-6.2-13.8-13.8-13.8
				c0,0-0.2,0-0.3,0c-7.6,0-13.8,6.2-13.8,13.8c0,4.9,2.6,9.4,6.7,11.8v3.4c-40.8,3.5-73.1,37-74.7,78.3h-7c-6.1,0-11,4.9-11,11v4.1
				c0,6.1,4.9,11,11,11h178c6.1,0,11-4.9,11-11v-4.1C200,161.5,195.1,156.6,189,156.6z M92.6,63.1c0-4,3.2-7.2,7.2-7.2
				c0.1,0,0.2,0,0.3,0c4,0,7.2,3.2,7.2,7.2c0,3-1.8,5.6-4.6,6.7c-1.3,0.5-2.1,1.7-2.1,3.1V78h-1.4v-5.1c0-1.4-0.8-2.6-2.1-3.1
				C94.4,68.7,92.6,66.1,92.6,63.1z M189,176.1H11c-2.4,0-4.4-2-4.4-4.4v-4.1c0-2.4,2-4.4,4.4-4.4h5.4c0,0,0.1,0,0.1,0h118.8
				c1.8,0,3.3-1.5,3.3-3.3c0-1.8-1.5-3.3-3.3-3.3H24.6c1.7-39.9,34.6-71.8,74.9-72h0.9c40.3,0.2,73.2,32.1,74.9,72h-18.7
				c-1.8,0-3.3,1.5-3.3,3.3c0,1.8,1.5,3.3,3.3,3.3l25.5,0h6.8c2.4,0,4.4,2,4.4,4.4v4.1h0C193.4,174.1,191.4,176.1,189,176.1z"/>
		</g>
	</g>
</g>
</svg>
