<?xml version="1.0" encoding="utf-8"?>
<!-- Generator: Adobe Illustrator 21.0.0, SVG Export Plug-In . SVG Version: 6.00 Build 0)  -->
<svg version="1.1" id="Layer_1" xmlns="http://www.w3.org/2000/svg" xmlns:xlink="http://www.w3.org/1999/xlink" x="0px" y="0px"
	 width="200px" height="200px" viewBox="0 0 200 200" style="enable-background:new 0 0 200 200;" xml:space="preserve">
<style type="text/css">
	.st0{}
</style>
<g>
	<g>
		<g>
			<path class="st0" d="M196.7,126.7H3.3c-1.8,0-3.3,1.5-3.3,3.3c0,38.6,31.4,70,70,70h60c38.6,0,70-31.4,70-70
				C200,128.2,198.5,126.7,196.7,126.7z M130,193.3H70c-33.8,0-61.5-26.6-63.2-60h186.5C191.5,166.7,163.8,193.3,130,193.3z"/>
		</g>
	</g>
	<g>
		<g>
			<path class="st0" d="M170,46.7c0-0.2,0-0.5,0-0.9c-0.5-5.5-4.3-10.1-9.3-11.8l3.8-3.8c6.5-6.4,7.2-16.7,1.5-23.9
				c-6.1-7.5-17.2-8.5-24.6-2.4c-0.4,0.4-0.8,0.7-1.2,1.1l-4.1,4.2c-1.7-5-6.3-8.8-11.9-9.3c-7.4-0.4-13.6,5.3-14,12.6
				c0,0.2,0,0.5,0,0.7v5.1c-2-1.1-4.2-1.8-6.7-1.8c-0.2,0-0.5,0-0.9,0c-7.1,0.7-12.6,6.8-12.5,13.9v4.5c-2-1.2-4.3-1.8-6.7-1.8
				c-0.2,0-0.5,0-0.9,0C75.4,34,69.9,40.1,70,47.2v48l-19,19l4.7,4.7l19-19H130c7.4,0,13.3-6,13.3-13.3c0-2.4-0.7-4.7-1.8-6.7h4.5
				c7.2,0.2,13.3-5.4,14-12.6c0.1-2.7-0.5-5.3-1.8-7.5c3-0.3,5.8-1.7,7.9-3.8C168.6,53.6,170,50.3,170,46.7z M161.4,51.4
				c-1.3,1.3-2.9,1.9-4.7,1.9c0,0,0,0,0,0h-10c-1.8,0-3.3,1.5-3.3,3.3c0,1.8,1.5,3.3,3.3,3.3l0.4,0c3.7,0.2,6.5,3.3,6.3,6.9
				c-0.3,3.7-3.5,6.5-7.2,6.4H130c-1.8,0-3.3,1.5-3.3,3.3c0,1.8,1.5,3.3,3.3,3.3c3.7,0,6.7,3,6.7,6.7c0,3.7-3,6.7-6.7,6.7H81.4
				l6.7-6.7H110V80H94.7l13.3-13.3h18.6V60h-11.9L128,46.7h15.3V40h-8.6L149,25.7l-4.7-4.7L130,35.3v-8.6h-6.7V42L110,55.3V43.4
				h-6.7V62L90,75.3V60h-6.7v22l-6.7,6.7V47.2c-0.1-3.7,2.8-6.8,6.3-7.2l0.4,0c3.7,0,6.7,3,6.7,6.7v0c0,1.8,1.5,3.3,3.3,3.3
				c0.9,0,1.8-0.4,2.4-1c0.6-0.6,1-1.4,1-2.4V30.5c-0.1-3.7,2.8-6.8,6.3-7.2l0.4,0c3.7,0,6.7,3,6.7,6.7v0c0,1.8,1.5,3.3,3.3,3.3
				c0,0,0,0,0,0c1.8,0,3.3-1.5,3.3-3.3V13.3l0-0.4c0.2-3.7,3.3-6.5,6.9-6.3c3.7,0.3,6.5,3.5,6.4,7.2v2.8c0,1.3,0.8,2.6,2.1,3.1
				c1.2,0.5,2.7,0.2,3.6-0.7l9-9.2c0.2-0.2,0.5-0.5,0.8-0.7c4.6-3.8,11.4-3.1,15.2,1.4c3.6,4.5,3.2,10.9-1,15l-8.8,8.8
				c-1,1-1.2,2.4-0.7,3.6c0.5,1.2,1.7,2.1,3.1,2.1h2.9c3.6,0,6.7,2.8,7.1,6.3l0,0.4C163.3,48.5,162.6,50.1,161.4,51.4z"/>
		</g>
	</g>
	<g>
		<g>
			<path class="st0" d="M62.2,15.4C62.2,15.4,62.2,15.4,62.2,15.4c-4.7-7.1-14.3-9-21.3-4.3c-0.2,0.1-0.4,0.3-0.7,0.5L39,12.5
				l-1.2-0.8C31.8,6,22.2,6.3,16.4,12.3c-2.8,2.9-4.4,6.8-4.3,10.9c0.1,4.1,1.7,7.9,4.7,10.8c0.9,0.8,1.8,1.6,2.8,2.2l2.8,2.2V40
				c0,9.2,7.5,16.7,16.7,16.7S55.7,49.2,55.7,40v-1.7l2.9-2.3C65.1,31.2,66.6,22.1,62.2,15.4z M54.6,30.7l-4.3,3.3
				c-0.8,0.6-1.3,1.6-1.3,2.6V40c0,5.5-4.5,10-10,10s-10-4.5-10-10v-3.3c0-1-0.5-2-1.3-2.6l-4.3-3.3c-0.1-0.1-0.3-0.2-0.4-0.3
				c-0.6-0.4-1.2-0.8-1.7-1.3c-1.7-1.6-2.6-3.8-2.6-6.1s0.8-4.5,2.4-6.2c1.7-1.8,4-2.6,6.2-2.6c2.2,0,4.3,0.8,6,2.4
				c0.1,0.1,0.2,0.2,0.4,0.3l3.3,2.4c1.2,0.9,2.8,0.8,4,0l3.5-2.6c1.9-1.3,4.2-1.7,6.5-1.3c2.3,0.5,4.2,1.8,5.5,3.7
				C59.1,22.9,58.2,28,54.6,30.7z"/>
		</g>
	</g>
	<g>
		<g>
			<rect x="73.3" y="3.3" class="st0" width="6.7" height="6.7"/>
		</g>
	</g>
	<g>
		<g>
			<rect x="93.3" y="110" class="st0" width="6.7" height="6.7"/>
		</g>
	</g>
	<g>
		<g>
			<path class="st0" d="M180,20v6.7c3.7,0,6.7,3,6.7,6.7s-3,6.7-6.7,6.7v6.7c7.4,0,13.3-6,13.3-13.3S187.3,20,180,20z"/>
		</g>
	</g>
	<g>
		<g>
			<rect x="6.7" y="50" class="st0" width="6.7" height="6.7"/>
		</g>
	</g>
	<g>
		<g>
			<rect x="0" y="36.7" class="st0" width="6.7" height="6.7"/>
		</g>
	</g>
	<g>
		<g>
			<path class="st0" d="M130,106.7c-7.4,0-13.3,6-13.3,13.3h6.7c0-3.7,3-6.7,6.7-6.7c3.7,0,6.7,3,6.7,6.7h6.7
				C143.3,112.7,137.4,106.7,130,106.7z"/>
		</g>
	</g>
	<g>
		<g>
			<path class="st0" d="M40,76.7h-0.4c-1.5-5.7-6.7-10-12.9-10c-6.2,0-11.4,4.3-12.9,10h-0.4C6,76.7,0,82.7,0,90
				c0,7.4,6,13.3,13.3,13.3h3.3v10c0,1.8,1.5,3.3,3.3,3.3h13.3c1.8,0,3.3-1.5,3.3-3.3v-10H40c7.4,0,13.3-6,13.3-13.3
				C53.3,82.7,47.4,76.7,40,76.7z M30,110h-6.7v-6.7H30V110z M40,96.7H13.3c-3.7,0-6.7-3-6.7-6.7c0-3.7,3-6.7,6.7-6.7h3.3
				c1.8,0,3.3-1.5,3.3-3.3c0-3.7,3-6.7,6.7-6.7c3.7,0,6.7,3,6.7,6.7c0,1.8,1.5,3.3,3.3,3.3H40c3.7,0,6.7,3,6.7,6.7
				C46.7,93.7,43.7,96.7,40,96.7z"/>
		</g>
	</g>
	<g>
		<g>
			<path class="st0" d="M176.7,86.7c-5.5,0-10,4.5-10,10s4.5,10,10,10s10-4.5,10-10S182.2,86.7,176.7,86.7z M176.7,100
				c-1.8,0-3.3-1.5-3.3-3.3c0-1.8,1.5-3.3,3.3-3.3s3.3,1.5,3.3,3.3C180,98.5,178.5,100,176.7,100z"/>
		</g>
	</g>
	<g>
		<g>
			<path class="st0" d="M176.7,73.3c-12.9,0-23.3,10.5-23.3,23.3s10.5,23.3,23.3,23.3S200,109.5,200,96.7S189.5,73.3,176.7,73.3z
				 M176.7,113.3c-9.2,0-16.7-7.5-16.7-16.7c0-9.2,7.5-16.7,16.7-16.7s16.7,7.5,16.7,16.7S185.9,113.3,176.7,113.3z"/>
		</g>
	</g>
</g>
</svg>
