<?xml version="1.0" encoding="utf-8"?>
<!-- Generator: Adobe Illustrator 21.0.0, SVG Export Plug-In . SVG Version: 6.00 Build 0)  -->
<svg version="1.1" id="Layer_1" xmlns="http://www.w3.org/2000/svg" xmlns:xlink="http://www.w3.org/1999/xlink" x="0px" y="0px"
	 width="200px" height="200px" viewBox="0 0 200 200" style="enable-background:new 0 0 200 200;" xml:space="preserve">
<style type="text/css">
	.st0{}
</style>
<g>
	<path class="st0" d="M197.8,95.8c-1.5-1.6-3.6-2.5-5.8-2.5h-0.7c3-5.1,4.6-10.9,4.6-16.9c0-13.5-8.1-25.6-20.3-30.9
		c-0.3-18.4-15.3-33.2-33.7-33.2c-18.4,0-33.5,14.9-33.8,33.2c-0.7-0.2-1.4-0.3-2.1-0.3c-3,0-5.8,1.5-7.6,3.9l-0.8,1.2
		c-0.7,1-2,1.3-3.1,0.8l-1.3-0.6c-2.7-1.3-5.9-1.1-8.5,0.4c-2.6,1.5-4.3,4.2-4.6,7.2L80,59.5c0,0.5-0.3,1.2-0.6,2
		c-0.8-0.4-1.3-1.1-1.4-2L77.8,58c-0.3-2.8-1.8-5.2-3.9-6.7l10.6-15.1c2.1-2.9,2.9-6.5,2.3-10.1c-0.6-3.6-2.6-6.7-5.5-8.7
		c-6.1-4.3-14.5-2.8-18.8,3.3L43,48.3c-0.6,0.9-1.1,1.9-1.5,2.9c-0.3,0-0.6,0-1-0.2l-1.3-0.6c-2.7-1.3-5.9-1.1-8.5,0.4
		C28,52.4,26.3,55,26.1,58l-0.1,1.5c-0.1,1.2-1.1,2.1-2.3,2.3l-1.5,0.1c-3,0.3-5.7,2-7.2,4.6c-1.5,2.6-1.6,5.8-0.4,8.5l0.6,1.3
		c0.5,1.1,0.2,2.4-0.8,3.1l-1.2,0.8c-2.5,1.7-3.9,4.6-3.9,7.6c0,2,0.7,3.9,1.9,5.5H8c-2.2,0-4.3,0.9-5.8,2.5
		c-1.5,1.6-2.3,3.8-2.2,6.1c2,29.5,20.8,44.4,48.4,57.6c3.1,1.5,5.6,3.9,7.2,6.9c1.5,2.9,1.3,6.7-0.7,9.9c-1.4,2.4-1.5,5.3-0.1,7.7
		s3.9,3.9,6.7,3.9h77c2.8,0,5.3-1.5,6.7-3.9c1.4-2.4,1.3-5.3-0.1-7.8c-1.9-3.1-2.1-6.9-0.6-9.8c1.5-3,4.1-5.4,7.2-6.9
		c27.6-13.2,46.4-28,48.4-57.6C200.1,99.6,199.3,97.4,197.8,95.8z M189.2,76.4c0,6.1-2.1,12.1-6,16.9h-17.7V79.7
		c0-1.9-1.5-3.4-3.4-3.4c-1.9,0-3.4,1.5-3.4,3.4v13.5h-11.9c0.3-0.4,0.5-0.8,0.7-1.2c0,0,0,0,0-0.1c0.3-0.6,0.5-1.2,0.7-1.8
		c0-0.2,0.1-0.3,0.1-0.5c0.1-0.6,0.2-1.3,0.2-2c0-3-1.5-5.8-3.9-7.6l-0.8-0.6c0.3,0,0.5-0.1,0.8-0.1c0.4,0,0.8-0.1,1.2-0.1
		c0.7-0.1,1.3-0.2,2-0.3c0.4-0.1,0.8-0.1,1.2-0.2c0.7-0.2,1.4-0.3,2.1-0.5c0.3-0.1,0.6-0.2,0.9-0.3c1-0.3,1.9-0.6,2.8-1
		c0.3-0.1,0.5-0.2,0.7-0.4c0.7-0.3,1.3-0.6,2-1c0.4-0.2,0.7-0.4,1.1-0.6c0.5-0.3,1-0.6,1.5-0.9c0.4-0.2,0.7-0.5,1.1-0.7
		c0.5-0.3,0.9-0.7,1.3-1c0.4-0.3,0.7-0.6,1.1-0.9c0.4-0.4,0.8-0.7,1.2-1.1c0.3-0.3,0.7-0.6,1-1c0.4-0.4,0.7-0.8,1.1-1.2
		c0.7-0.8,1.3-1.5,1.9-2.3c0.2-0.3,0.4-0.6,0.6-0.9c0.4-0.5,0.7-1.1,1-1.6c0.2-0.3,0.3-0.6,0.5-0.8c0.3-0.6,0.7-1.2,1-1.8
		c0.1-0.2,0.2-0.5,0.4-0.7c0.3-0.7,0.6-1.4,0.9-2c0.1-0.1,0.1-0.3,0.2-0.5c0.6-1.6,1.1-3.3,1.5-5.1
		C183.6,57.3,189.2,66.4,189.2,76.4z M141.9,18.9c14.9,0,27,12.1,27,27c0,0.5,0,1-0.1,1.5c0,0,0,0,0,0c-0.2,3.6-1.1,6.9-2.5,9.9
		c0,0,0,0.1,0,0.1c-0.3,0.7-0.7,1.4-1.1,2c0,0.1-0.1,0.2-0.1,0.2c-0.4,0.6-0.8,1.2-1.2,1.8c-0.1,0.1-0.2,0.2-0.3,0.4
		c-0.4,0.5-0.8,1-1.2,1.5c-0.1,0.2-0.3,0.3-0.4,0.5c-0.4,0.4-0.8,0.9-1.2,1.3c-0.2,0.2-0.3,0.4-0.5,0.5c-0.4,0.4-0.8,0.7-1.3,1.1
		c-0.2,0.2-0.4,0.4-0.7,0.5c-0.4,0.3-0.8,0.6-1.3,0.9c-0.3,0.2-0.5,0.4-0.8,0.5c-0.4,0.3-0.9,0.5-1.3,0.7c-0.3,0.2-0.6,0.3-0.9,0.5
		c-0.4,0.2-0.9,0.4-1.3,0.6c-0.3,0.1-0.7,0.3-1,0.4c-0.4,0.2-0.9,0.3-1.3,0.5c-0.4,0.1-0.7,0.3-1.1,0.4c-0.4,0.1-0.9,0.2-1.3,0.3
		c-0.4,0.1-0.8,0.2-1.2,0.3c-0.4,0.1-0.9,0.1-1.3,0.2c-0.4,0.1-0.9,0.1-1.3,0.2c-0.1,0-0.2,0-0.3,0v0c0,0,0-0.1,0-0.1
		c0.1-0.6,0.1-1.2,0.1-1.8c0-0.2,0-0.4,0-0.6c0-0.5-0.1-1-0.2-1.4c0-0.2-0.1-0.4-0.1-0.6c-0.2-0.6-0.4-1.3-0.8-1.8
		c-1.5-2.6-4.2-4.3-7.2-4.6l-1.5-0.1c-0.9-0.1-1.7-0.6-2-1.4l7.2-7.2c1.3-1.3,1.3-3.5,0-4.8c-1.3-1.3-3.5-1.3-4.8,0l-4.8,4.8
		c-0.7-0.9-1.6-1.7-2.6-2.3c-0.7-0.4-1.4-0.7-2.2-0.9c-0.2-0.1-0.5-0.1-0.8-0.1c-0.5-0.1-1-0.2-1.5-0.2c-0.1,0-0.1,0-0.2,0
		c-0.4,0-0.8,0.1-1.2,0.1c-0.2,0-0.5,0-0.7,0.1c-0.7,0.1-1.4,0.4-2,0.7l-1.3,0.6c-0.3,0.2-0.7,0.2-1.1,0.2c0,0,0,0-0.1,0
		c-0.4,0-0.7-0.1-1-0.3c-0.3-1.7-0.5-3.4-0.5-5C114.8,31.1,127,18.9,141.9,18.9z M86.7,60.1l0.1-1.5c0.1-0.8,0.5-1.5,1.2-1.9
		c0.7-0.4,1.5-0.5,2.3-0.1l1.3,0.6c4,1.9,8.9,0.6,11.4-3.1L104,53c0.9-1.3,3.1-1.3,4.1,0l0.8,1.2c1.7,2.4,4.5,3.8,7.3,3.9
		c0,0,0.1,0,0.1,0c0.4,0,0.8,0,1.2,0c0.2,0,0.4-0.1,0.6-0.1c0.3-0.1,0.6-0.1,0.8-0.2c0.5-0.1,1-0.3,1.4-0.5l1.3-0.6
		c0.7-0.3,1.6-0.3,2.3,0.1c0.7,0.4,1.2,1.1,1.2,1.9l0.1,1.4c0.4,4.5,3.9,8,8.4,8.4l1.5,0.1c0.8,0.1,1.5,0.5,1.9,1.2
		c0.4,0.7,0.4,1.5,0.1,2.3l-0.6,1.3c0,0.1,0,0.1-0.1,0.2c-1.2,2.8-1,5.8,0.5,8.3c0,0,0,0.1,0.1,0.1c0.2,0.3,0.4,0.6,0.6,0.9
		c0.1,0.2,0.2,0.3,0.4,0.5c0.2,0.2,0.3,0.4,0.5,0.6c0.3,0.3,0.7,0.7,1.1,0.9l1.2,0.8c0.7,0.5,1.1,1.2,1.1,2c0,0.8-0.4,1.6-1.1,2
		l-1.2,0.8c0,0,0,0,0,0c-0.4,0.3-0.8,0.7-1.2,1.1c-0.1,0.2-0.3,0.3-0.4,0.5c-0.2,0.2-0.4,0.5-0.6,0.7c-0.1,0.1-0.2,0.2-0.2,0.3H92.8
		c0.3-0.4,0.5-0.8,0.7-1.2c0,0,0,0,0,0c0.3-0.6,0.5-1.2,0.7-1.8c0-0.2,0.1-0.3,0.1-0.5c0.1-0.6,0.2-1.3,0.2-2v0l0,0l0,0
		c0-0.4-0.1-0.8-0.2-1.3c0-0.3,0-0.6-0.1-0.9c-0.2-1-0.7-1.9-1.3-2.8c-0.6-1-1.4-1.9-2.4-2.6l-1.2-0.8c-1-0.7-1.3-2-0.8-3.1l0.6-1.3
		c0.3-0.6,0.5-1.3,0.6-2c0-0.2,0-0.4,0.1-0.6c0.1-0.5,0.1-1,0.1-1.5c0-0.3,0-0.5-0.1-0.8c0-0.4-0.1-0.9-0.2-1.3
		c-0.1-0.3-0.2-0.5-0.3-0.8c-0.1-0.2-0.1-0.5-0.2-0.7c-0.1-0.1-0.2-0.2-0.2-0.4c-0.1-0.2-0.1-0.4-0.2-0.5c-0.2-0.3-0.4-0.6-0.6-0.8
		c-0.2-0.2-0.3-0.5-0.5-0.7c-0.4-0.5-0.9-0.8-1.4-1.2c-0.1-0.1-0.3-0.3-0.4-0.4C86.3,62.3,86.6,61.2,86.7,60.1z M68,24.6
		c2.1-3,6.4-3.8,9.4-1.6c1.5,1,2.4,2.6,2.8,4.4c0.3,1.8-0.1,3.6-1.1,5L65.8,51.1c0,0,0,0,0,0L59.6,60c-1,1.5-2.6,2.4-4.4,2.8
		c-1.8,0.3-3.6-0.1-5-1.1c0,0,0,0,0,0c-0.5-0.3-0.9-0.8-1.3-1.2c-0.1-0.1-0.2-0.2-0.3-0.3c-0.3-0.4-0.6-0.9-0.8-1.4c0,0,0-0.1,0-0.1
		c-0.2-0.5-0.3-1.1-0.4-1.7c0-0.1,0-0.3,0-0.4c0-0.6,0-1.2,0.1-1.7c0.2-0.9,0.5-1.7,1.1-2.5L68,24.6z M18.3,90.7l-1.2-0.8
		c-0.7-0.5-1.1-1.2-1.1-2s0.4-1.6,1.1-2l1.2-0.8c3.7-2.6,4.9-7.4,3.1-11.5l-0.6-1.3c-0.3-0.7-0.3-1.6,0.1-2.3
		c0.4-0.7,1.1-1.2,1.9-1.2l1.4-0.1c4.5-0.4,8-3.9,8.4-8.4l0.1-1.5c0.1-0.8,0.5-1.5,1.2-1.9c0.7-0.4,1.5-0.4,2.3-0.1l1.3,0.6
		c1,0.4,2,0.7,3,0.8c0,0.1,0,0.1,0.1,0.2c0,0.1,0,0.1,0,0.2c0.1,0.4,0.2,0.7,0.3,1.1c0.1,0.4,0.2,0.9,0.4,1.3c0.2,0.5,0.4,1,0.7,1.4
		c0.2,0.3,0.3,0.6,0.5,0.9c0.3,0.5,0.7,1,1.1,1.5c0.2,0.2,0.3,0.4,0.5,0.6c0.6,0.7,1.3,1.3,2.1,1.8c0.7,0.5,1.4,0.9,2.1,1.2
		c0.2,0.1,0.5,0.2,0.7,0.3c0.5,0.2,1,0.4,1.6,0.5c0.3,0.1,0.5,0.1,0.8,0.2c0.6,0.1,1.1,0.2,1.7,0.2c0.2,0,0.4,0,0.7,0.1
		c0.1,0,0.1,0,0.2,0c0.8,0,1.6-0.1,2.3-0.2c3.6-0.6,6.7-2.6,8.7-5.5l5-7.1c0.6,0.4,1,1,1.1,1.8l0.1,1.4c0.4,4.5,3.9,8,8.4,8.4
		l1.5,0.1c0.3,0,0.6,0.2,0.9,0.3c0.1,0.1,0.3,0.1,0.4,0.2c0.2,0.1,0.3,0.3,0.5,0.5c0.1,0.1,0.2,0.2,0.3,0.4c0.2,0.3,0.3,0.7,0.3,1
		c0,0,0,0,0,0c0,0.4-0.1,0.8-0.2,1.1l-0.6,1.3c-0.7,1.5-1,3.2-0.8,4.7c0,0,0,0,0,0.1c0.1,0.5,0.1,1,0.3,1.5c0.5,2,1.8,3.9,3.6,5.2
		l0.8,0.6l0.4,0.3c0.7,0.5,1.1,1.2,1.1,2.1c0,0.4-0.1,0.8-0.3,1.1c-0.1,0.1-0.2,0.2-0.2,0.3c-0.2,0.2-0.3,0.5-0.6,0.6l0,0l-1.2,0.8
		c-0.5,0.3-0.9,0.7-1.3,1.1c-0.1,0.1-0.2,0.3-0.3,0.4c-0.3,0.3-0.5,0.6-0.7,0.9c0,0.1-0.1,0.1-0.1,0.2H20.8
		C20.2,92.2,19.3,91.3,18.3,90.7z M148.7,153.3c-4.4,2.1-8,5.6-10.3,9.9c-2.6,5-2.3,11.3,0.9,16.4c0.2,0.4,0.1,0.7,0,0.9
		c-0.1,0.2-0.4,0.5-0.8,0.5h-77c-0.4,0-0.7-0.3-0.8-0.5c-0.1-0.2-0.2-0.6,0-1c3.1-5.1,3.4-11.4,0.8-16.4c-2.2-4.3-5.9-7.8-10.3-9.9
		c-26.2-12.5-42.8-25.6-44.6-51.9c0-0.5,0.2-0.8,0.4-1c0.2-0.2,0.5-0.4,0.9-0.4h10.6h66.6h54h0.2h45.2h7.2c0.4,0,0.7,0.2,0.9,0.4
		c0.1,0.2,0.4,0.5,0.4,1C191.5,127.8,174.9,140.8,148.7,153.3z"/>
	<path class="st0" d="M125,157.4H95.6c-1.9,0-3.4,1.5-3.4,3.4s1.5,3.4,3.4,3.4H125c1.9,0,3.4-1.5,3.4-3.4S126.8,157.4,125,157.4z"/>
	<path class="st0" d="M74.3,164.2h11.4c1.9,0,3.4-1.5,3.4-3.4s-1.5-3.4-3.4-3.4H74.3c-1.9,0-3.4,1.5-3.4,3.4S72.4,164.2,74.3,164.2z
		"/>
	<path class="st0" d="M125,167.6H74.3c-1.9,0-3.4,1.5-3.4,3.4c0,1.9,1.5,3.4,3.4,3.4H125c1.9,0,3.4-1.5,3.4-3.4
		C128.4,169.1,126.8,167.6,125,167.6z"/>
	<path class="st0" d="M134.7,43.6c0.7,0.7,1.5,1,2.4,1c0.9,0,1.7-0.3,2.4-1c1.3-1.3,1.3-3.5,0-4.8l-9.6-9.6c-1.3-1.3-3.5-1.3-4.8,0
		c-1.3,1.3-1.3,3.5,0,4.8L134.7,43.6z"/>
	<path class="st0" d="M153.8,62.7c0.7,0.7,1.5,1,2.4,1c0.9,0,1.7-0.3,2.4-1c1.3-1.3,1.3-3.5,0-4.8l-9.6-9.6c-1.3-1.3-3.5-1.3-4.8,0
		c-1.3,1.3-1.3,3.5,0,4.8L153.8,62.7z"/>
	<path class="st0" d="M146.6,44.6c0.9,0,1.7-0.3,2.4-1l9.6-9.6c1.3-1.3,1.3-3.5,0-4.8c-1.3-1.3-3.5-1.3-4.8,0l-9.6,9.6
		c-1.3,1.3-1.3,3.5,0,4.8C144.9,44.2,145.8,44.6,146.6,44.6z"/>
	<path class="st0" d="M165.5,73c0,1.9,1.5,3.4,3.4,3.4h13.5c1.9,0,3.4-1.5,3.4-3.4c0-1.9-1.5-3.4-3.4-3.4h-13.5
		C167,69.6,165.5,71.1,165.5,73z"/>
	<path class="st0" d="M103,74.7c0.9,0,1.7-0.3,2.4-1l5.1-5.1c1.3-1.3,1.3-3.5,0-4.8c-1.3-1.3-3.5-1.3-4.8,0l-5.1,5.1
		c-1.3,1.3-1.3,3.5,0,4.8C101.3,74.3,102.2,74.7,103,74.7z"/>
	<path class="st0" d="M119.2,82.1c0.7,0.7,1.5,1,2.4,1s1.7-0.3,2.4-1c1.3-1.3,1.3-3.5,0-4.8l-3.4-3.4c-1.3-1.3-3.5-1.3-4.8,0
		s-1.3,3.5,0,4.8L119.2,82.1z"/>
	<path class="st0" d="M105.7,80.7l-3.4,3.4c-1.3,1.3-1.3,3.5,0,4.8c0.7,0.7,1.5,1,2.4,1s1.7-0.3,2.4-1l3.4-3.4
		c1.3-1.3,1.3-3.5,0-4.8S107,79.4,105.7,80.7z"/>
</g>
</svg>
